<?xml version="1.0" encoding="UTF-8" standalone="no"?>
<!DOCTYPE svg PUBLIC "-//W3C//DTD SVG 1.1//EN"
 "http://www.w3.org/Graphics/SVG/1.1/DTD/svg11.dtd">
<!-- Generated by graphviz version 2.38.0 (20140413.2041)
 -->
<!-- Title: snakemake_dag Pages: 1 -->
<svg width="1083pt" height="1212pt"
 viewBox="0.00 0.00 1082.58 1212.00" xmlns="http://www.w3.org/2000/svg" xmlns:xlink="http://www.w3.org/1999/xlink">
<g id="graph0" class="graph" transform="scale(1 1) rotate(0) translate(4 1208)">
<title>snakemake_dag</title>
<polygon fill="white" stroke="none" points="-4,4 -4,-1208 1078.58,-1208 1078.58,4 -4,4"/>
<!-- 0 -->
<g id="node1" class="node"><title>0</title>
<path fill="none" stroke="#566bd8" stroke-width="2" d="M546.905,-36C546.905,-36 516.905,-36 516.905,-36 510.905,-36 504.905,-30 504.905,-24 504.905,-24 504.905,-12 504.905,-12 504.905,-6 510.905,-0 516.905,-0 516.905,-0 546.905,-0 546.905,-0 552.905,-0 558.905,-6 558.905,-12 558.905,-12 558.905,-24 558.905,-24 558.905,-30 552.905,-36 546.905,-36"/>
<text text-anchor="middle" x="531.905" y="-15" font-family="sans" font-size="10.00">all</text>
</g>
<!-- 1 -->
<g id="node2" class="node"><title>1</title>
<path fill="none" stroke="#d89556" stroke-width="2" d="M418.905,-396C418.905,-396 388.905,-396 388.905,-396 382.905,-396 376.905,-390 376.905,-384 376.905,-384 376.905,-372 376.905,-372 376.905,-366 382.905,-360 388.905,-360 388.905,-360 418.905,-360 418.905,-360 424.905,-360 430.905,-366 430.905,-372 430.905,-372 430.905,-384 430.905,-384 430.905,-390 424.905,-396 418.905,-396"/>
<text text-anchor="middle" x="403.905" y="-375" font-family="sans" font-size="10.00">refine</text>
</g>
<!-- 1&#45;&gt;0 -->
<g id="edge1" class="edge"><title>1&#45;&gt;0</title>
<path fill="none" stroke="grey" stroke-width="2" d="M408.762,-359.671C415.775,-333.079 427.905,-280.504 427.905,-235 427.905,-235 427.905,-235 427.905,-161 427.905,-111.63 469.327,-68.0181 499.888,-42.5596"/>
<polygon fill="grey" stroke="grey" stroke-width="2" points="502.207,-45.1863 507.784,-36.1783 497.806,-39.7421 502.207,-45.1863"/>
</g>
<!-- 2 -->
<g id="node3" class="node"><title>2</title>
<path fill="none" stroke="#56d8a9" stroke-width="2" d="M673.652,-108C673.652,-108 614.158,-108 614.158,-108 608.158,-108 602.158,-102 602.158,-96 602.158,-96 602.158,-84 602.158,-84 602.158,-78 608.158,-72 614.158,-72 614.158,-72 673.652,-72 673.652,-72 679.652,-72 685.652,-78 685.652,-84 685.652,-84 685.652,-96 685.652,-96 685.652,-102 679.652,-108 673.652,-108"/>
<text text-anchor="middle" x="643.905" y="-87" font-family="sans" font-size="10.00">summarize_trees</text>
</g>
<!-- 2&#45;&gt;0 -->
<g id="edge2" class="edge"><title>2&#45;&gt;0</title>
<path fill="none" stroke="grey" stroke-width="2" d="M616.507,-71.8761C601.753,-62.6553 583.38,-51.1717 567.528,-41.2646"/>
<polygon fill="grey" stroke="grey" stroke-width="2" points="569.355,-38.2792 559.02,-35.9471 565.645,-44.2152 569.355,-38.2792"/>
</g>
<!-- 3 -->
<g id="node4" class="node"><title>3</title>
<path fill="none" stroke="#56d8d0" stroke-width="2" d="M572.274,-108C572.274,-108 491.536,-108 491.536,-108 485.536,-108 479.536,-102 479.536,-96 479.536,-96 479.536,-84 479.536,-84 479.536,-78 485.536,-72 491.536,-72 491.536,-72 572.274,-72 572.274,-72 578.274,-72 584.274,-78 584.274,-84 584.274,-84 584.274,-96 584.274,-96 584.274,-102 578.274,-108 572.274,-108"/>
<text text-anchor="middle" x="531.905" y="-87" font-family="sans" font-size="10.00">summarize_comb_log</text>
</g>
<!-- 3&#45;&gt;0 -->
<g id="edge3" class="edge"><title>3&#45;&gt;0</title>
<path fill="none" stroke="grey" stroke-width="2" d="M531.905,-71.6966C531.905,-63.9827 531.905,-54.7125 531.905,-46.1124"/>
<polygon fill="grey" stroke="grey" stroke-width="2" points="535.405,-46.1043 531.905,-36.1043 528.405,-46.1044 535.405,-46.1043"/>
</g>
<!-- 4 -->
<g id="node5" class="node"><title>4</title>
<path fill="none" stroke="#68d856" stroke-width="2" d="M363.905,-472C363.905,-472 333.905,-472 333.905,-472 327.905,-472 321.905,-466 321.905,-460 321.905,-460 321.905,-448 321.905,-448 321.905,-442 327.905,-436 333.905,-436 333.905,-436 363.905,-436 363.905,-436 369.905,-436 375.905,-442 375.905,-448 375.905,-448 375.905,-460 375.905,-460 375.905,-466 369.905,-472 363.905,-472"/>
<text text-anchor="middle" x="348.905" y="-451" font-family="sans" font-size="10.00">tree</text>
</g>
<!-- 4&#45;&gt;1 -->
<g id="edge4" class="edge"><title>4&#45;&gt;1</title>
<path fill="none" stroke="grey" stroke-width="2" d="M361.661,-435.837C368.603,-426.497 377.324,-414.763 385.037,-404.386"/>
<polygon fill="grey" stroke="grey" stroke-width="2" points="388.062,-406.184 391.218,-396.07 382.443,-402.008 388.062,-406.184"/>
</g>
<!-- 5 -->
<g id="node6" class="node"><title>5</title>
<path fill="none" stroke="#59d856" stroke-width="2" d="M611.338,-548C611.338,-548 564.472,-548 564.472,-548 558.472,-548 552.472,-542 552.472,-536 552.472,-536 552.472,-524 552.472,-524 552.472,-518 558.472,-512 564.472,-512 564.472,-512 611.338,-512 611.338,-512 617.338,-512 623.338,-518 623.338,-524 623.338,-524 623.338,-536 623.338,-536 623.338,-542 617.338,-548 611.338,-548"/>
<text text-anchor="middle" x="587.905" y="-527" font-family="sans" font-size="10.00">adjust_names</text>
</g>
<!-- 5&#45;&gt;1 -->
<g id="edge5" class="edge"><title>5&#45;&gt;1</title>
<path fill="none" stroke="grey" stroke-width="2" d="M552.684,-527.735C514.899,-524.395 455.889,-513.102 422.905,-476 406.129,-457.129 402.361,-427.906 402.189,-406.466"/>
<polygon fill="grey" stroke="grey" stroke-width="2" points="405.691,-406.412 402.365,-396.352 398.692,-406.29 405.691,-406.412"/>
</g>
<!-- 5&#45;&gt;4 -->
<g id="edge8" class="edge"><title>5&#45;&gt;4</title>
<path fill="none" stroke="grey" stroke-width="2" d="M552.499,-521.9C512.323,-513.302 445.199,-497.285 389.905,-476 388.506,-475.461 387.091,-474.889 385.672,-474.291"/>
<polygon fill="grey" stroke="grey" stroke-width="2" points="386.882,-470.996 376.329,-470.049 383.988,-477.37 386.882,-470.996"/>
</g>
<!-- 23 -->
<g id="node24" class="node"><title>23</title>
<path fill="none" stroke="#d87d56" stroke-width="2" d="M732.762,-476C732.762,-476 609.048,-476 609.048,-476 603.048,-476 597.048,-470 597.048,-464 597.048,-464 597.048,-444 597.048,-444 597.048,-438 603.048,-432 609.048,-432 609.048,-432 732.762,-432 732.762,-432 738.762,-432 744.762,-438 744.762,-444 744.762,-444 744.762,-464 744.762,-464 744.762,-470 738.762,-476 732.762,-476"/>
<text text-anchor="middle" x="670.905" y="-463" font-family="sans" font-size="10.00">beast</text>
<text text-anchor="middle" x="670.905" y="-451" font-family="sans" font-size="10.00">analysis_name: 201014_europe2</text>
<text text-anchor="middle" x="670.905" y="-439" font-family="sans" font-size="10.00">seed: 1</text>
</g>
<!-- 5&#45;&gt;23 -->
<g id="edge42" class="edge"><title>5&#45;&gt;23</title>
<path fill="none" stroke="grey" stroke-width="2" d="M607.155,-511.837C616.789,-503.248 628.694,-492.634 639.599,-482.912"/>
<polygon fill="grey" stroke="grey" stroke-width="2" points="642.18,-485.299 647.315,-476.032 637.521,-480.075 642.18,-485.299"/>
</g>
<!-- 24 -->
<g id="node25" class="node"><title>24</title>
<path fill="none" stroke="#d87d56" stroke-width="2" d="M897.762,-476C897.762,-476 774.048,-476 774.048,-476 768.048,-476 762.048,-470 762.048,-464 762.048,-464 762.048,-444 762.048,-444 762.048,-438 768.048,-432 774.048,-432 774.048,-432 897.762,-432 897.762,-432 903.762,-432 909.762,-438 909.762,-444 909.762,-444 909.762,-464 909.762,-464 909.762,-470 903.762,-476 897.762,-476"/>
<text text-anchor="middle" x="835.905" y="-463" font-family="sans" font-size="10.00">beast</text>
<text text-anchor="middle" x="835.905" y="-451" font-family="sans" font-size="10.00">analysis_name: 201014_europe2</text>
<text text-anchor="middle" x="835.905" y="-439" font-family="sans" font-size="10.00">seed: 2</text>
</g>
<!-- 5&#45;&gt;24 -->
<g id="edge43" class="edge"><title>5&#45;&gt;24</title>
<path fill="none" stroke="grey" stroke-width="2" d="M623.174,-518.476C657.56,-508.216 711.062,-492.252 755.807,-478.9"/>
<polygon fill="grey" stroke="grey" stroke-width="2" points="756.922,-482.22 765.504,-476.007 754.921,-475.512 756.922,-482.22"/>
</g>
<!-- 25 -->
<g id="node26" class="node"><title>25</title>
<path fill="none" stroke="#d87d56" stroke-width="2" d="M1062.76,-476C1062.76,-476 939.048,-476 939.048,-476 933.048,-476 927.048,-470 927.048,-464 927.048,-464 927.048,-444 927.048,-444 927.048,-438 933.048,-432 939.048,-432 939.048,-432 1062.76,-432 1062.76,-432 1068.76,-432 1074.76,-438 1074.76,-444 1074.76,-444 1074.76,-464 1074.76,-464 1074.76,-470 1068.76,-476 1062.76,-476"/>
<text text-anchor="middle" x="1000.9" y="-463" font-family="sans" font-size="10.00">beast</text>
<text text-anchor="middle" x="1000.9" y="-451" font-family="sans" font-size="10.00">analysis_name: 201014_europe2</text>
<text text-anchor="middle" x="1000.9" y="-439" font-family="sans" font-size="10.00">seed: 3</text>
</g>
<!-- 5&#45;&gt;25 -->
<g id="edge44" class="edge"><title>5&#45;&gt;25</title>
<path fill="none" stroke="grey" stroke-width="2" d="M623.37,-524.412C682.444,-516.534 804.874,-499.204 917.41,-476.233"/>
<polygon fill="grey" stroke="grey" stroke-width="2" points="918.135,-479.657 927.222,-474.211 916.722,-472.802 918.135,-479.657"/>
</g>
<!-- 26 -->
<g id="node27" class="node"><title>26</title>
<path fill="none" stroke="#d87d56" stroke-width="2" d="M567.762,-476C567.762,-476 444.048,-476 444.048,-476 438.048,-476 432.048,-470 432.048,-464 432.048,-464 432.048,-444 432.048,-444 432.048,-438 438.048,-432 444.048,-432 444.048,-432 567.762,-432 567.762,-432 573.762,-432 579.762,-438 579.762,-444 579.762,-444 579.762,-464 579.762,-464 579.762,-470 573.762,-476 567.762,-476"/>
<text text-anchor="middle" x="505.905" y="-463" font-family="sans" font-size="10.00">beast</text>
<text text-anchor="middle" x="505.905" y="-451" font-family="sans" font-size="10.00">analysis_name: 201014_europe2</text>
<text text-anchor="middle" x="505.905" y="-439" font-family="sans" font-size="10.00">seed: 4</text>
</g>
<!-- 5&#45;&gt;26 -->
<g id="edge45" class="edge"><title>5&#45;&gt;26</title>
<path fill="none" stroke="grey" stroke-width="2" d="M568.886,-511.837C559.369,-503.248 547.607,-492.634 536.834,-482.912"/>
<polygon fill="grey" stroke="grey" stroke-width="2" points="538.98,-480.133 529.211,-476.032 534.29,-485.33 538.98,-480.133"/>
</g>
<!-- 6 -->
<g id="node7" class="node"><title>6</title>
<path fill="none" stroke="#8fd856" stroke-width="2" d="M679.215,-180C679.215,-180 608.595,-180 608.595,-180 602.595,-180 596.595,-174 596.595,-168 596.595,-168 596.595,-156 596.595,-156 596.595,-150 602.595,-144 608.595,-144 608.595,-144 679.215,-144 679.215,-144 685.215,-144 691.215,-150 691.215,-156 691.215,-156 691.215,-168 691.215,-168 691.215,-174 685.215,-180 679.215,-180"/>
<text text-anchor="middle" x="643.905" y="-159" font-family="sans" font-size="10.00">trajectory_mapping</text>
</g>
<!-- 6&#45;&gt;2 -->
<g id="edge6" class="edge"><title>6&#45;&gt;2</title>
<path fill="none" stroke="grey" stroke-width="2" d="M643.905,-143.697C643.905,-135.983 643.905,-126.712 643.905,-118.112"/>
<polygon fill="grey" stroke="grey" stroke-width="2" points="647.405,-118.104 643.905,-108.104 640.405,-118.104 647.405,-118.104"/>
</g>
<!-- 7 -->
<g id="node8" class="node"><title>7</title>
<path fill="none" stroke="#d8cb56" stroke-width="2" d="M604.009,-252C604.009,-252 555.801,-252 555.801,-252 549.801,-252 543.801,-246 543.801,-240 543.801,-240 543.801,-228 543.801,-228 543.801,-222 549.801,-216 555.801,-216 555.801,-216 604.009,-216 604.009,-216 610.009,-216 616.009,-222 616.009,-228 616.009,-228 616.009,-240 616.009,-240 616.009,-246 610.009,-252 604.009,-252"/>
<text text-anchor="middle" x="579.905" y="-231" font-family="sans" font-size="10.00">combine_logs</text>
</g>
<!-- 7&#45;&gt;3 -->
<g id="edge7" class="edge"><title>7&#45;&gt;3</title>
<path fill="none" stroke="grey" stroke-width="2" d="M574.115,-215.871C565.898,-191.564 550.773,-146.819 541.036,-118.013"/>
<polygon fill="grey" stroke="grey" stroke-width="2" points="544.233,-116.542 537.715,-108.189 537.602,-118.783 544.233,-116.542"/>
</g>
<!-- 7&#45;&gt;6 -->
<g id="edge11" class="edge"><title>7&#45;&gt;6</title>
<path fill="none" stroke="grey" stroke-width="2" d="M595.725,-215.697C603.475,-207.22 612.944,-196.864 621.429,-187.583"/>
<polygon fill="grey" stroke="grey" stroke-width="2" points="624.102,-189.846 628.267,-180.104 618.936,-185.123 624.102,-189.846"/>
</g>
<!-- 8 -->
<g id="node9" class="node"><title>8</title>
<path fill="none" stroke="#80d856" stroke-width="2" d="M460.556,-620C460.556,-620 397.254,-620 397.254,-620 391.254,-620 385.254,-614 385.254,-608 385.254,-608 385.254,-596 385.254,-596 385.254,-590 391.254,-584 397.254,-584 397.254,-584 460.556,-584 460.556,-584 466.556,-584 472.556,-590 472.556,-596 472.556,-596 472.556,-608 472.556,-608 472.556,-614 466.556,-620 460.556,-620"/>
<text text-anchor="middle" x="428.905" y="-599" font-family="sans" font-size="10.00">combine_samples</text>
</g>
<!-- 8&#45;&gt;5 -->
<g id="edge9" class="edge"><title>8&#45;&gt;5</title>
<path fill="none" stroke="grey" stroke-width="2" d="M467.801,-583.876C490.689,-573.8 519.715,-561.021 543.498,-550.55"/>
<polygon fill="grey" stroke="grey" stroke-width="2" points="544.924,-553.747 552.666,-546.514 542.103,-547.34 544.924,-553.747"/>
</g>
<!-- 9 -->
<g id="node10" class="node"><title>9</title>
<path fill="none" stroke="#d86e56" stroke-width="2" stroke-dasharray="5,2" d="M455.905,-1204C455.905,-1204 425.905,-1204 425.905,-1204 419.905,-1204 413.905,-1198 413.905,-1192 413.905,-1192 413.905,-1180 413.905,-1180 413.905,-1174 419.905,-1168 425.905,-1168 425.905,-1168 455.905,-1168 455.905,-1168 461.905,-1168 467.905,-1174 467.905,-1180 467.905,-1180 467.905,-1192 467.905,-1192 467.905,-1198 461.905,-1204 455.905,-1204"/>
<text text-anchor="middle" x="440.905" y="-1183" font-family="sans" font-size="10.00">load</text>
</g>
<!-- 9&#45;&gt;5 -->
<g id="edge10" class="edge"><title>9&#45;&gt;5</title>
<path fill="none" stroke="grey" stroke-width="2" d="M468.149,-1184.81C543.284,-1182.71 747.905,-1165.73 747.905,-1043 747.905,-1043 747.905,-1043 747.905,-677 747.905,-614.248 679.919,-571.269 632.58,-548.949"/>
<polygon fill="grey" stroke="grey" stroke-width="2" points="633.964,-545.733 623.414,-544.76 631.055,-552.1 633.964,-545.733"/>
</g>
<!-- 12 -->
<g id="node13" class="node"><title>12</title>
<path fill="none" stroke="#56d86b" stroke-width="2" d="M467.715,-700C467.715,-700 390.095,-700 390.095,-700 384.095,-700 378.095,-694 378.095,-688 378.095,-688 378.095,-668 378.095,-668 378.095,-662 384.095,-656 390.095,-656 390.095,-656 467.715,-656 467.715,-656 473.715,-656 479.715,-662 479.715,-668 479.715,-668 479.715,-688 479.715,-688 479.715,-694 473.715,-700 467.715,-700"/>
<text text-anchor="middle" x="428.905" y="-687" font-family="sans" font-size="10.00">subsample</text>
<text text-anchor="middle" x="428.905" y="-675" font-family="sans" font-size="10.00">build_name: eEurope</text>
<text text-anchor="middle" x="428.905" y="-663" font-family="sans" font-size="10.00">subsample: hubei</text>
</g>
<!-- 9&#45;&gt;12 -->
<g id="edge26" class="edge"><title>9&#45;&gt;12</title>
<path fill="none" stroke="grey" stroke-width="2" d="M455.75,-1167.97C476.298,-1142.58 510.905,-1092.47 510.905,-1043 510.905,-1043 510.905,-1043 510.905,-825 510.905,-779.754 480.597,-735.56 456.833,-707.862"/>
<polygon fill="grey" stroke="grey" stroke-width="2" points="459.267,-705.332 450.022,-700.157 454.022,-709.968 459.267,-705.332"/>
</g>
<!-- 13 -->
<g id="node14" class="node"><title>13</title>
<path fill="none" stroke="#56d86b" stroke-width="2" d="M587.715,-700C587.715,-700 510.095,-700 510.095,-700 504.095,-700 498.095,-694 498.095,-688 498.095,-688 498.095,-668 498.095,-668 498.095,-662 504.095,-656 510.095,-656 510.095,-656 587.715,-656 587.715,-656 593.715,-656 599.715,-662 599.715,-668 599.715,-668 599.715,-688 599.715,-688 599.715,-694 593.715,-700 587.715,-700"/>
<text text-anchor="middle" x="548.905" y="-687" font-family="sans" font-size="10.00">subsample</text>
<text text-anchor="middle" x="548.905" y="-675" font-family="sans" font-size="10.00">build_name: eEurope</text>
<text text-anchor="middle" x="548.905" y="-663" font-family="sans" font-size="10.00">subsample: italy</text>
</g>
<!-- 9&#45;&gt;13 -->
<g id="edge28" class="edge"><title>9&#45;&gt;13</title>
<path fill="none" stroke="grey" stroke-width="2" d="M466.226,-1167.83C498.148,-1143.92 548.905,-1097.36 548.905,-1043 548.905,-1043 548.905,-1043 548.905,-825 548.905,-785.494 548.905,-739.975 548.905,-710.408"/>
<polygon fill="grey" stroke="grey" stroke-width="2" points="552.405,-710.278 548.905,-700.278 545.405,-710.278 552.405,-710.278"/>
</g>
<!-- 14 -->
<g id="node15" class="node"><title>14</title>
<path fill="none" stroke="#56d86b" stroke-width="2" d="M707.715,-700C707.715,-700 630.095,-700 630.095,-700 624.095,-700 618.095,-694 618.095,-688 618.095,-688 618.095,-668 618.095,-668 618.095,-662 624.095,-656 630.095,-656 630.095,-656 707.715,-656 707.715,-656 713.715,-656 719.715,-662 719.715,-668 719.715,-668 719.715,-688 719.715,-688 719.715,-694 713.715,-700 707.715,-700"/>
<text text-anchor="middle" x="668.905" y="-687" font-family="sans" font-size="10.00">subsample</text>
<text text-anchor="middle" x="668.905" y="-675" font-family="sans" font-size="10.00">build_name: eEurope</text>
<text text-anchor="middle" x="668.905" y="-663" font-family="sans" font-size="10.00">subsample: germany</text>
</g>
<!-- 9&#45;&gt;14 -->
<g id="edge30" class="edge"><title>9&#45;&gt;14</title>
<path fill="none" stroke="grey" stroke-width="2" d="M468.096,-1178.08C519.96,-1163.06 627.905,-1122.29 627.905,-1043 627.905,-1043 627.905,-1043 627.905,-825 627.905,-784.021 643.061,-738.902 654.944,-709.825"/>
<polygon fill="grey" stroke="grey" stroke-width="2" points="658.324,-710.817 658.98,-700.242 651.873,-708.099 658.324,-710.817"/>
</g>
<!-- 15 -->
<g id="node16" class="node"><title>15</title>
<path fill="none" stroke="#56d86b" stroke-width="2" d="M89.7152,-700C89.7152,-700 12.0948,-700 12.0948,-700 6.09482,-700 0.094823,-694 0.094823,-688 0.094823,-688 0.094823,-668 0.094823,-668 0.094823,-662 6.09482,-656 12.0948,-656 12.0948,-656 89.7152,-656 89.7152,-656 95.7152,-656 101.715,-662 101.715,-668 101.715,-668 101.715,-688 101.715,-688 101.715,-694 95.7152,-700 89.7152,-700"/>
<text text-anchor="middle" x="50.905" y="-687" font-family="sans" font-size="10.00">subsample</text>
<text text-anchor="middle" x="50.905" y="-675" font-family="sans" font-size="10.00">build_name: eEurope</text>
<text text-anchor="middle" x="50.905" y="-663" font-family="sans" font-size="10.00">subsample: france</text>
</g>
<!-- 9&#45;&gt;15 -->
<g id="edge32" class="edge"><title>9&#45;&gt;15</title>
<path fill="none" stroke="grey" stroke-width="2" d="M413.69,-1185.12C337.039,-1183.91 124.905,-1169.16 124.905,-1043 124.905,-1043 124.905,-1043 124.905,-825 124.905,-780.705 97.47,-736.223 76.0096,-708.203"/>
<polygon fill="grey" stroke="grey" stroke-width="2" points="78.5211,-705.736 69.5783,-700.055 73.0263,-710.073 78.5211,-705.736"/>
</g>
<!-- 16 -->
<g id="node17" class="node"><title>16</title>
<path fill="none" stroke="#56d86b" stroke-width="2" d="M209.715,-700C209.715,-700 132.095,-700 132.095,-700 126.095,-700 120.095,-694 120.095,-688 120.095,-688 120.095,-668 120.095,-668 120.095,-662 126.095,-656 132.095,-656 132.095,-656 209.715,-656 209.715,-656 215.715,-656 221.715,-662 221.715,-668 221.715,-668 221.715,-688 221.715,-688 221.715,-694 215.715,-700 209.715,-700"/>
<text text-anchor="middle" x="170.905" y="-687" font-family="sans" font-size="10.00">subsample</text>
<text text-anchor="middle" x="170.905" y="-675" font-family="sans" font-size="10.00">build_name: eEurope</text>
<text text-anchor="middle" x="170.905" y="-663" font-family="sans" font-size="10.00">subsample: spain</text>
</g>
<!-- 9&#45;&gt;16 -->
<g id="edge34" class="edge"><title>9&#45;&gt;16</title>
<path fill="none" stroke="grey" stroke-width="2" d="M413.718,-1181.64C351.466,-1172.29 203.905,-1139.89 203.905,-1043 203.905,-1043 203.905,-1043 203.905,-825 203.905,-784.552 191.706,-739.318 182.142,-710.07"/>
<polygon fill="grey" stroke="grey" stroke-width="2" points="185.402,-708.784 178.893,-700.425 178.769,-711.019 185.402,-708.784"/>
</g>
<!-- 17 -->
<g id="node18" class="node"><title>17</title>
<path fill="none" stroke="#56d86b" stroke-width="2" d="M348.091,-700C348.091,-700 251.719,-700 251.719,-700 245.719,-700 239.719,-694 239.719,-688 239.719,-688 239.719,-668 239.719,-668 239.719,-662 245.719,-656 251.719,-656 251.719,-656 348.091,-656 348.091,-656 354.091,-656 360.091,-662 360.091,-668 360.091,-668 360.091,-688 360.091,-688 360.091,-694 354.091,-700 348.091,-700"/>
<text text-anchor="middle" x="299.905" y="-687" font-family="sans" font-size="10.00">subsample</text>
<text text-anchor="middle" x="299.905" y="-675" font-family="sans" font-size="10.00">build_name: eEurope</text>
<text text-anchor="middle" x="299.905" y="-663" font-family="sans" font-size="10.00">subsample: othereuropean</text>
</g>
<!-- 9&#45;&gt;17 -->
<g id="edge36" class="edge"><title>9&#45;&gt;17</title>
<path fill="none" stroke="grey" stroke-width="2" d="M413.64,-1177.29C388.97,-1169.22 352.795,-1154.55 327.905,-1132 293.787,-1101.09 274.905,-1089.04 274.905,-1043 274.905,-1043 274.905,-1043 274.905,-825 274.905,-784.919 284.172,-739.525 291.422,-710.144"/>
<polygon fill="grey" stroke="grey" stroke-width="2" points="294.907,-710.638 293.98,-700.084 288.123,-708.912 294.907,-710.638"/>
</g>
<!-- 27 -->
<g id="node28" class="node"><title>27</title>
<path fill="none" stroke="#56d87b" stroke-width="2" d="M386.905,-844C386.905,-844 356.905,-844 356.905,-844 350.905,-844 344.905,-838 344.905,-832 344.905,-832 344.905,-820 344.905,-820 344.905,-814 350.905,-808 356.905,-808 356.905,-808 386.905,-808 386.905,-808 392.905,-808 398.905,-814 398.905,-820 398.905,-820 398.905,-832 398.905,-832 398.905,-838 392.905,-844 386.905,-844"/>
<text text-anchor="middle" x="371.905" y="-823" font-family="sans" font-size="10.00">refilter</text>
</g>
<!-- 9&#45;&gt;27 -->
<g id="edge47" class="edge"><title>9&#45;&gt;27</title>
<path fill="none" stroke="grey" stroke-width="2" d="M413.759,-1170.68C376.186,-1148.67 312.905,-1102.74 312.905,-1043 312.905,-1043 312.905,-1043 312.905,-969 312.905,-925.827 336.45,-880.533 353.792,-853.027"/>
<polygon fill="grey" stroke="grey" stroke-width="2" points="356.878,-854.701 359.393,-844.409 351.009,-850.887 356.878,-854.701"/>
</g>
<!-- 29 -->
<g id="node30" class="node"><title>29</title>
<path fill="none" stroke="#a7d856" stroke-width="2" d="M445.509,-916C445.509,-916 412.301,-916 412.301,-916 406.301,-916 400.301,-910 400.301,-904 400.301,-904 400.301,-892 400.301,-892 400.301,-886 406.301,-880 412.301,-880 412.301,-880 445.509,-880 445.509,-880 451.509,-880 457.509,-886 457.509,-892 457.509,-892 457.509,-904 457.509,-904 457.509,-910 451.509,-916 445.509,-916"/>
<text text-anchor="middle" x="428.905" y="-895" font-family="sans" font-size="10.00">diagnostic</text>
</g>
<!-- 9&#45;&gt;29 -->
<g id="edge51" class="edge"><title>9&#45;&gt;29</title>
<path fill="none" stroke="grey" stroke-width="2" d="M445.042,-1167.78C453.72,-1128.8 471.618,-1031.07 453.905,-952 451.891,-943.009 448.173,-933.747 444.209,-925.53"/>
<polygon fill="grey" stroke="grey" stroke-width="2" points="447.22,-923.732 439.53,-916.444 440.997,-926.937 447.22,-923.732"/>
</g>
<!-- 31 -->
<g id="node32" class="node"><title>31</title>
<path fill="none" stroke="#567bd8" stroke-width="2" d="M421.905,-1132C421.905,-1132 391.905,-1132 391.905,-1132 385.905,-1132 379.905,-1126 379.905,-1120 379.905,-1120 379.905,-1108 379.905,-1108 379.905,-1102 385.905,-1096 391.905,-1096 391.905,-1096 421.905,-1096 421.905,-1096 427.905,-1096 433.905,-1102 433.905,-1108 433.905,-1108 433.905,-1120 433.905,-1120 433.905,-1126 427.905,-1132 421.905,-1132"/>
<text text-anchor="middle" x="406.905" y="-1111" font-family="sans" font-size="10.00">filter</text>
</g>
<!-- 9&#45;&gt;31 -->
<g id="edge53" class="edge"><title>9&#45;&gt;31</title>
<path fill="none" stroke="grey" stroke-width="2" d="M432.501,-1167.7C428.63,-1159.73 423.953,-1150.1 419.662,-1141.26"/>
<polygon fill="grey" stroke="grey" stroke-width="2" points="422.73,-1139.57 415.213,-1132.1 416.434,-1142.63 422.73,-1139.57"/>
</g>
<!-- 10 -->
<g id="node11" class="node"><title>10</title>
<path fill="none" stroke="#ced856" stroke-width="2" d="M696.217,-252C696.217,-252 645.593,-252 645.593,-252 639.593,-252 633.593,-246 633.593,-240 633.593,-240 633.593,-228 633.593,-228 633.593,-222 639.593,-216 645.593,-216 645.593,-216 696.217,-216 696.217,-216 702.217,-216 708.217,-222 708.217,-228 708.217,-228 708.217,-240 708.217,-240 708.217,-246 702.217,-252 696.217,-252"/>
<text text-anchor="middle" x="670.905" y="-231" font-family="sans" font-size="10.00">combine_trees</text>
</g>
<!-- 10&#45;&gt;6 -->
<g id="edge12" class="edge"><title>10&#45;&gt;6</title>
<path fill="none" stroke="grey" stroke-width="2" d="M664.231,-215.697C661.19,-207.813 657.522,-198.304 654.144,-189.546"/>
<polygon fill="grey" stroke="grey" stroke-width="2" points="657.367,-188.175 650.502,-180.104 650.836,-190.694 657.367,-188.175"/>
</g>
<!-- 11 -->
<g id="node12" class="node"><title>11</title>
<path fill="none" stroke="#56b9d8" stroke-width="2" d="M689.39,-324C689.39,-324 652.42,-324 652.42,-324 646.42,-324 640.42,-318 640.42,-312 640.42,-312 640.42,-300 640.42,-300 640.42,-294 646.42,-288 652.42,-288 652.42,-288 689.39,-288 689.39,-288 695.39,-288 701.39,-294 701.39,-300 701.39,-300 701.39,-312 701.39,-312 701.39,-318 695.39,-324 689.39,-324"/>
<text text-anchor="middle" x="670.905" y="-303" font-family="sans" font-size="10.00">check_logs</text>
</g>
<!-- 11&#45;&gt;7 -->
<g id="edge13" class="edge"><title>11&#45;&gt;7</title>
<path fill="none" stroke="grey" stroke-width="2" d="M648.411,-287.697C636.95,-278.881 622.847,-268.032 610.421,-258.474"/>
<polygon fill="grey" stroke="grey" stroke-width="2" points="612.201,-255.427 602.141,-252.104 607.933,-260.976 612.201,-255.427"/>
</g>
<!-- 11&#45;&gt;10 -->
<g id="edge20" class="edge"><title>11&#45;&gt;10</title>
<path fill="none" stroke="grey" stroke-width="2" d="M670.905,-287.697C670.905,-279.983 670.905,-270.712 670.905,-262.112"/>
<polygon fill="grey" stroke="grey" stroke-width="2" points="674.405,-262.104 670.905,-252.104 667.405,-262.104 674.405,-262.104"/>
</g>
<!-- 12&#45;&gt;8 -->
<g id="edge14" class="edge"><title>12&#45;&gt;8</title>
<path fill="none" stroke="grey" stroke-width="2" d="M428.905,-655.993C428.905,-648.061 428.905,-638.915 428.905,-630.478"/>
<polygon fill="grey" stroke="grey" stroke-width="2" points="432.405,-630.315 428.905,-620.315 425.405,-630.315 432.405,-630.315"/>
</g>
<!-- 13&#45;&gt;8 -->
<g id="edge15" class="edge"><title>13&#45;&gt;8</title>
<path fill="none" stroke="grey" stroke-width="2" d="M514.839,-655.993C499.431,-646.491 481.198,-635.248 465.5,-625.567"/>
<polygon fill="grey" stroke="grey" stroke-width="2" points="466.94,-622.343 456.591,-620.073 463.265,-628.301 466.94,-622.343"/>
</g>
<!-- 14&#45;&gt;8 -->
<g id="edge16" class="edge"><title>14&#45;&gt;8</title>
<path fill="none" stroke="grey" stroke-width="2" d="M617.901,-658.953C614.862,-657.938 611.846,-656.947 608.905,-656 566.673,-642.401 518.43,-628.271 482.525,-618.024"/>
<polygon fill="grey" stroke="grey" stroke-width="2" points="483.317,-614.61 472.741,-615.24 481.401,-621.343 483.317,-614.61"/>
</g>
<!-- 15&#45;&gt;8 -->
<g id="edge17" class="edge"><title>15&#45;&gt;8</title>
<path fill="none" stroke="grey" stroke-width="2" d="M101.786,-658.524C104.855,-657.618 107.912,-656.767 110.905,-656 202.322,-632.568 311.269,-617.011 374.996,-609.12"/>
<polygon fill="grey" stroke="grey" stroke-width="2" points="375.706,-612.559 385.208,-607.873 374.857,-605.611 375.706,-612.559"/>
</g>
<!-- 16&#45;&gt;8 -->
<g id="edge18" class="edge"><title>16&#45;&gt;8</title>
<path fill="none" stroke="grey" stroke-width="2" d="M221.882,-658.866C224.927,-657.873 227.952,-656.911 230.905,-656 279.338,-641.065 335.168,-626.343 375.172,-616.22"/>
<polygon fill="grey" stroke="grey" stroke-width="2" points="376.144,-619.584 384.987,-613.748 374.435,-612.796 376.144,-619.584"/>
</g>
<!-- 17&#45;&gt;8 -->
<g id="edge19" class="edge"><title>17&#45;&gt;8</title>
<path fill="none" stroke="grey" stroke-width="2" d="M336.526,-655.993C353.244,-646.402 373.056,-635.037 390.038,-625.296"/>
<polygon fill="grey" stroke="grey" stroke-width="2" points="392.21,-628.085 399.143,-620.073 388.727,-622.013 392.21,-628.085"/>
</g>
<!-- 18 -->
<g id="node19" class="node"><title>18</title>
<path fill="none" stroke="#d8bc56" stroke-width="2" d="M697.557,-396C697.557,-396 644.253,-396 644.253,-396 638.253,-396 632.253,-390 632.253,-384 632.253,-384 632.253,-372 632.253,-372 632.253,-366 638.253,-360 644.253,-360 644.253,-360 697.557,-360 697.557,-360 703.557,-360 709.557,-366 709.557,-372 709.557,-372 709.557,-384 709.557,-384 709.557,-390 703.557,-396 697.557,-396"/>
<text text-anchor="middle" x="670.905" y="-375" font-family="sans" font-size="10.00">summarize_log</text>
</g>
<!-- 18&#45;&gt;11 -->
<g id="edge21" class="edge"><title>18&#45;&gt;11</title>
<path fill="none" stroke="grey" stroke-width="2" d="M670.905,-359.697C670.905,-351.983 670.905,-342.712 670.905,-334.112"/>
<polygon fill="grey" stroke="grey" stroke-width="2" points="674.405,-334.104 670.905,-324.104 667.405,-334.104 674.405,-334.104"/>
</g>
<!-- 19 -->
<g id="node20" class="node"><title>19</title>
<path fill="none" stroke="#d8bc56" stroke-width="2" d="M827.557,-396C827.557,-396 774.253,-396 774.253,-396 768.253,-396 762.253,-390 762.253,-384 762.253,-384 762.253,-372 762.253,-372 762.253,-366 768.253,-360 774.253,-360 774.253,-360 827.557,-360 827.557,-360 833.557,-360 839.557,-366 839.557,-372 839.557,-372 839.557,-384 839.557,-384 839.557,-390 833.557,-396 827.557,-396"/>
<text text-anchor="middle" x="800.905" y="-375" font-family="sans" font-size="10.00">summarize_log</text>
</g>
<!-- 19&#45;&gt;11 -->
<g id="edge22" class="edge"><title>19&#45;&gt;11</title>
<path fill="none" stroke="grey" stroke-width="2" d="M769.103,-359.876C751.404,-350.345 729.214,-338.397 710.409,-328.271"/>
<polygon fill="grey" stroke="grey" stroke-width="2" points="711.947,-325.125 701.483,-323.465 708.628,-331.288 711.947,-325.125"/>
</g>
<!-- 20 -->
<g id="node21" class="node"><title>20</title>
<path fill="none" stroke="#d8bc56" stroke-width="2" d="M975.557,-396C975.557,-396 922.253,-396 922.253,-396 916.253,-396 910.253,-390 910.253,-384 910.253,-384 910.253,-372 910.253,-372 910.253,-366 916.253,-360 922.253,-360 922.253,-360 975.557,-360 975.557,-360 981.557,-360 987.557,-366 987.557,-372 987.557,-372 987.557,-384 987.557,-384 987.557,-390 981.557,-396 975.557,-396"/>
<text text-anchor="middle" x="948.905" y="-375" font-family="sans" font-size="10.00">summarize_log</text>
</g>
<!-- 20&#45;&gt;11 -->
<g id="edge23" class="edge"><title>20&#45;&gt;11</title>
<path fill="none" stroke="grey" stroke-width="2" d="M910.25,-367.267C857.831,-354.068 764.642,-330.603 711.325,-317.178"/>
<polygon fill="grey" stroke="grey" stroke-width="2" points="712.086,-313.76 701.534,-314.712 710.377,-320.548 712.086,-313.76"/>
</g>
<!-- 21 -->
<g id="node22" class="node"><title>21</title>
<path fill="none" stroke="#d8bc56" stroke-width="2" d="M567.557,-396C567.557,-396 514.253,-396 514.253,-396 508.253,-396 502.253,-390 502.253,-384 502.253,-384 502.253,-372 502.253,-372 502.253,-366 508.253,-360 514.253,-360 514.253,-360 567.557,-360 567.557,-360 573.557,-360 579.557,-366 579.557,-372 579.557,-372 579.557,-384 579.557,-384 579.557,-390 573.557,-396 567.557,-396"/>
<text text-anchor="middle" x="540.905" y="-375" font-family="sans" font-size="10.00">summarize_log</text>
</g>
<!-- 21&#45;&gt;11 -->
<g id="edge24" class="edge"><title>21&#45;&gt;11</title>
<path fill="none" stroke="grey" stroke-width="2" d="M572.707,-359.876C590.406,-350.345 612.596,-338.397 631.401,-328.271"/>
<polygon fill="grey" stroke="grey" stroke-width="2" points="633.182,-331.288 640.327,-323.465 629.863,-325.125 633.182,-331.288"/>
</g>
<!-- 22 -->
<g id="node23" class="node"><title>22</title>
<path fill="none" stroke="#56d892" stroke-width="2" d="M386.905,-772C386.905,-772 356.905,-772 356.905,-772 350.905,-772 344.905,-766 344.905,-760 344.905,-760 344.905,-748 344.905,-748 344.905,-742 350.905,-736 356.905,-736 356.905,-736 386.905,-736 386.905,-736 392.905,-736 398.905,-742 398.905,-748 398.905,-748 398.905,-760 398.905,-760 398.905,-766 392.905,-772 386.905,-772"/>
<text text-anchor="middle" x="371.905" y="-751" font-family="sans" font-size="10.00">mask</text>
</g>
<!-- 22&#45;&gt;12 -->
<g id="edge25" class="edge"><title>22&#45;&gt;12</title>
<path fill="none" stroke="grey" stroke-width="2" d="M385.125,-735.837C391.484,-727.581 399.284,-717.455 406.53,-708.048"/>
<polygon fill="grey" stroke="grey" stroke-width="2" points="409.375,-710.09 412.705,-700.032 403.829,-705.819 409.375,-710.09"/>
</g>
<!-- 22&#45;&gt;13 -->
<g id="edge27" class="edge"><title>22&#45;&gt;13</title>
<path fill="none" stroke="grey" stroke-width="2" d="M399.173,-741.6C423.077,-731.606 458.67,-716.725 489.157,-703.979"/>
<polygon fill="grey" stroke="grey" stroke-width="2" points="490.559,-707.187 498.436,-700.1 487.859,-700.728 490.559,-707.187"/>
</g>
<!-- 22&#45;&gt;14 -->
<g id="edge29" class="edge"><title>22&#45;&gt;14</title>
<path fill="none" stroke="grey" stroke-width="2" d="M399.176,-747.977C441.803,-739.895 526.917,-722.833 608.095,-700.083"/>
<polygon fill="grey" stroke="grey" stroke-width="2" points="609.307,-703.378 617.972,-697.281 607.396,-696.643 609.307,-703.378"/>
</g>
<!-- 22&#45;&gt;15 -->
<g id="edge31" class="edge"><title>22&#45;&gt;15</title>
<path fill="none" stroke="grey" stroke-width="2" d="M344.564,-748.712C298.41,-741.202 202.03,-724.362 111.669,-700.039"/>
<polygon fill="grey" stroke="grey" stroke-width="2" points="112.387,-696.607 101.819,-697.35 110.544,-703.36 112.387,-696.607"/>
</g>
<!-- 22&#45;&gt;16 -->
<g id="edge33" class="edge"><title>22&#45;&gt;16</title>
<path fill="none" stroke="grey" stroke-width="2" d="M344.797,-743.02C315.853,-732.364 269.051,-715.133 231.289,-701.231"/>
<polygon fill="grey" stroke="grey" stroke-width="2" points="232.493,-697.945 221.9,-697.774 230.075,-704.514 232.493,-697.945"/>
</g>
<!-- 22&#45;&gt;17 -->
<g id="edge35" class="edge"><title>22&#45;&gt;17</title>
<path fill="none" stroke="grey" stroke-width="2" d="M355.206,-735.837C347.011,-727.414 336.922,-717.045 327.614,-707.479"/>
<polygon fill="grey" stroke="grey" stroke-width="2" points="329.851,-704.759 320.369,-700.032 324.834,-709.64 329.851,-704.759"/>
</g>
<!-- 23&#45;&gt;18 -->
<g id="edge37" class="edge"><title>23&#45;&gt;18</title>
<path fill="none" stroke="grey" stroke-width="2" d="M670.905,-431.993C670.905,-424.061 670.905,-414.915 670.905,-406.478"/>
<polygon fill="grey" stroke="grey" stroke-width="2" points="674.405,-406.315 670.905,-396.315 667.405,-406.315 674.405,-406.315"/>
</g>
<!-- 24&#45;&gt;19 -->
<g id="edge38" class="edge"><title>24&#45;&gt;19</title>
<path fill="none" stroke="grey" stroke-width="2" d="M825.969,-431.993C822.051,-423.708 817.506,-414.1 813.371,-405.357"/>
<polygon fill="grey" stroke="grey" stroke-width="2" points="816.534,-403.858 809.094,-396.315 810.206,-406.851 816.534,-403.858"/>
</g>
<!-- 25&#45;&gt;20 -->
<g id="edge39" class="edge"><title>25&#45;&gt;20</title>
<path fill="none" stroke="grey" stroke-width="2" d="M986.143,-431.993C980.136,-423.444 973.138,-413.485 966.84,-404.523"/>
<polygon fill="grey" stroke="grey" stroke-width="2" points="969.685,-402.484 961.072,-396.315 963.958,-406.509 969.685,-402.484"/>
</g>
<!-- 26&#45;&gt;21 -->
<g id="edge40" class="edge"><title>26&#45;&gt;21</title>
<path fill="none" stroke="grey" stroke-width="2" d="M515.841,-431.993C519.759,-423.708 524.304,-414.1 528.439,-405.357"/>
<polygon fill="grey" stroke="grey" stroke-width="2" points="531.604,-406.851 532.716,-396.315 525.276,-403.858 531.604,-406.851"/>
</g>
<!-- 27&#45;&gt;22 -->
<g id="edge41" class="edge"><title>27&#45;&gt;22</title>
<path fill="none" stroke="grey" stroke-width="2" d="M371.905,-807.697C371.905,-799.983 371.905,-790.712 371.905,-782.112"/>
<polygon fill="grey" stroke="grey" stroke-width="2" points="375.405,-782.104 371.905,-772.104 368.405,-782.104 375.405,-782.104"/>
</g>
<!-- 28 -->
<g id="node29" class="node"><title>28</title>
<path fill="none" stroke="#d85656" stroke-width="2" d="M432.652,-988C432.652,-988 353.158,-988 353.158,-988 347.158,-988 341.158,-982 341.158,-976 341.158,-976 341.158,-964 341.158,-964 341.158,-958 347.158,-952 353.158,-952 353.158,-952 432.652,-952 432.652,-952 438.652,-952 444.652,-958 444.652,-964 444.652,-964 444.652,-976 444.652,-976 444.652,-982 438.652,-988 432.652,-988"/>
<text text-anchor="middle" x="392.905" y="-967" font-family="sans" font-size="10.00">aggregate_alignments</text>
</g>
<!-- 28&#45;&gt;27 -->
<g id="edge46" class="edge"><title>28&#45;&gt;27</title>
<path fill="none" stroke="grey" stroke-width="2" d="M390.372,-951.871C386.793,-927.67 380.218,-883.211 375.956,-854.393"/>
<polygon fill="grey" stroke="grey" stroke-width="2" points="379.372,-853.57 374.447,-844.189 372.448,-854.594 379.372,-853.57"/>
</g>
<!-- 28&#45;&gt;29 -->
<g id="edge50" class="edge"><title>28&#45;&gt;29</title>
<path fill="none" stroke="grey" stroke-width="2" d="M401.804,-951.697C405.902,-943.728 410.854,-934.1 415.398,-925.264"/>
<polygon fill="grey" stroke="grey" stroke-width="2" points="418.647,-926.598 420.108,-916.104 412.422,-923.396 418.647,-926.598"/>
</g>
<!-- 29&#45;&gt;27 -->
<g id="edge48" class="edge"><title>29&#45;&gt;27</title>
<path fill="none" stroke="grey" stroke-width="2" d="M414.815,-879.697C407.982,-871.305 399.648,-861.07 392.149,-851.861"/>
<polygon fill="grey" stroke="grey" stroke-width="2" points="394.861,-849.649 385.833,-844.104 389.433,-854.069 394.861,-849.649"/>
</g>
<!-- 30 -->
<g id="node31" class="node"><title>30</title>
<path fill="none" stroke="#56d8b9" stroke-width="2" d="M430.824,-1060C430.824,-1060 358.986,-1060 358.986,-1060 352.986,-1060 346.986,-1054 346.986,-1048 346.986,-1048 346.986,-1036 346.986,-1036 346.986,-1030 352.986,-1024 358.986,-1024 358.986,-1024 430.824,-1024 430.824,-1024 436.824,-1024 442.824,-1030 442.824,-1036 442.824,-1036 442.824,-1048 442.824,-1048 442.824,-1054 436.824,-1060 430.824,-1060"/>
<text text-anchor="middle" x="394.905" y="-1039" font-family="sans" font-size="10.00">partition_sequences</text>
</g>
<!-- 30&#45;&gt;28 -->
<g id="edge49" class="edge"><title>30&#45;&gt;28</title>
<path fill="none" stroke="grey" stroke-width="2" d="M394.411,-1023.7C394.19,-1015.98 393.925,-1006.71 393.68,-998.112"/>
<polygon fill="grey" stroke="grey" stroke-width="2" points="397.178,-998 393.394,-988.104 390.181,-998.2 397.178,-998"/>
</g>
<!-- 31&#45;&gt;30 -->
<g id="edge52" class="edge"><title>31&#45;&gt;30</title>
<path fill="none" stroke="grey" stroke-width="2" d="M403.939,-1095.7C402.616,-1087.98 401.027,-1078.71 399.553,-1070.11"/>
<polygon fill="grey" stroke="grey" stroke-width="2" points="402.977,-1069.37 397.837,-1060.1 396.077,-1070.55 402.977,-1069.37"/>
</g>
</g>
</svg>
