<?xml version="1.0" encoding="UTF-8" standalone="no"?>
<!DOCTYPE svg PUBLIC "-//W3C//DTD SVG 1.1//EN"
 "http://www.w3.org/Graphics/SVG/1.1/DTD/svg11.dtd">
<!-- Generated by graphviz version 2.44.1 (20200629.0846)
 -->
<!-- Title: snakemake_dag Pages: 1 -->
<svg width="3031pt" height="1206pt"
 viewBox="0.00 0.00 3030.50 1206.00" xmlns="http://www.w3.org/2000/svg" xmlns:xlink="http://www.w3.org/1999/xlink">
<g id="graph0" class="graph" transform="scale(1 1) rotate(0) translate(4 1202)">
<title>snakemake_dag</title>
<polygon fill="white" stroke="transparent" points="-4,4 -4,-1202 3026.5,-1202 3026.5,4 -4,4"/>
<!-- 0 -->
<g id="node1" class="node">
<title>0</title>
<path fill="none" stroke="#d85656" stroke-width="2" d="M1704,-36C1704,-36 1674,-36 1674,-36 1668,-36 1662,-30 1662,-24 1662,-24 1662,-12 1662,-12 1662,-6 1668,0 1674,0 1674,0 1704,0 1704,0 1710,0 1716,-6 1716,-12 1716,-12 1716,-24 1716,-24 1716,-30 1710,-36 1704,-36"/>
<text text-anchor="middle" x="1689" y="-15.5" font-family="sans" font-size="10.00">all</text>
</g>
<!-- 1 -->
<g id="node2" class="node">
<title>1</title>
<path fill="none" stroke="#56d87b" stroke-width="2" d="M80,-396C80,-396 50,-396 50,-396 44,-396 38,-390 38,-384 38,-384 38,-372 38,-372 38,-366 44,-360 50,-360 50,-360 80,-360 80,-360 86,-360 92,-366 92,-372 92,-372 92,-384 92,-384 92,-390 86,-396 80,-396"/>
<text text-anchor="middle" x="65" y="-375.5" font-family="sans" font-size="10.00">refine</text>
</g>
<!-- 1&#45;&gt;0 -->
<g id="edge1" class="edge">
<title>1&#45;&gt;0</title>
<path fill="none" stroke="grey" stroke-width="2" d="M66.78,-359.97C69.4,-333.34 74,-280.21 74,-235 74,-235 74,-235 74,-161 74,-79.05 1410.84,-28.68 1651.96,-20.26"/>
<polygon fill="grey" stroke="grey" stroke-width="2" points="1652.11,-23.75 1661.98,-19.91 1651.87,-16.76 1652.11,-23.75"/>
</g>
<!-- 2 -->
<g id="node3" class="node">
<title>2</title>
<path fill="none" stroke="#56d87b" stroke-width="2" d="M2049,-396C2049,-396 2019,-396 2019,-396 2013,-396 2007,-390 2007,-384 2007,-384 2007,-372 2007,-372 2007,-366 2013,-360 2019,-360 2019,-360 2049,-360 2049,-360 2055,-360 2061,-366 2061,-372 2061,-372 2061,-384 2061,-384 2061,-390 2055,-396 2049,-396"/>
<text text-anchor="middle" x="2034" y="-375.5" font-family="sans" font-size="10.00">refine</text>
</g>
<!-- 2&#45;&gt;0 -->
<g id="edge2" class="edge">
<title>2&#45;&gt;0</title>
<path fill="none" stroke="grey" stroke-width="2" d="M2032.42,-359.97C2030.09,-333.33 2026,-280.19 2026,-235 2026,-235 2026,-235 2026,-161 2026,-31.97 1813.6,-18.31 1726.04,-18.17"/>
<polygon fill="grey" stroke="grey" stroke-width="2" points="1725.99,-14.67 1716.01,-18.21 1726.02,-21.67 1725.99,-14.67"/>
</g>
<!-- 3 -->
<g id="node4" class="node">
<title>3</title>
<path fill="none" stroke="#567bd8" stroke-width="2" d="M1286,-108C1286,-108 1218,-108 1218,-108 1212,-108 1206,-102 1206,-96 1206,-96 1206,-84 1206,-84 1206,-78 1212,-72 1218,-72 1218,-72 1286,-72 1286,-72 1292,-72 1298,-78 1298,-84 1298,-84 1298,-96 1298,-96 1298,-102 1292,-108 1286,-108"/>
<text text-anchor="middle" x="1252" y="-87.5" font-family="sans" font-size="10.00">summarize_trees</text>
</g>
<!-- 3&#45;&gt;0 -->
<g id="edge3" class="edge">
<title>3&#45;&gt;0</title>
<path fill="none" stroke="grey" stroke-width="2" d="M1298.35,-81.58C1385.49,-67.62 1572.1,-37.72 1651.74,-24.97"/>
<polygon fill="grey" stroke="grey" stroke-width="2" points="1652.48,-28.39 1661.8,-23.36 1651.37,-21.48 1652.48,-28.39"/>
</g>
<!-- 4 -->
<g id="node5" class="node">
<title>4</title>
<path fill="none" stroke="#567bd8" stroke-width="2" d="M2267,-108C2267,-108 2199,-108 2199,-108 2193,-108 2187,-102 2187,-96 2187,-96 2187,-84 2187,-84 2187,-78 2193,-72 2199,-72 2199,-72 2267,-72 2267,-72 2273,-72 2279,-78 2279,-84 2279,-84 2279,-96 2279,-96 2279,-102 2273,-108 2267,-108"/>
<text text-anchor="middle" x="2233" y="-87.5" font-family="sans" font-size="10.00">summarize_trees</text>
</g>
<!-- 4&#45;&gt;0 -->
<g id="edge4" class="edge">
<title>4&#45;&gt;0</title>
<path fill="none" stroke="grey" stroke-width="2" d="M2186.95,-74.06C2183.94,-73.31 2180.94,-72.61 2178,-72 2011.57,-37.59 1808.36,-24.65 1726.15,-20.59"/>
<polygon fill="grey" stroke="grey" stroke-width="2" points="1726.21,-17.09 1716.05,-20.11 1725.87,-24.08 1726.21,-17.09"/>
</g>
<!-- 5 -->
<g id="node6" class="node">
<title>5</title>
<path fill="none" stroke="#567bd8" stroke-width="2" d="M1723,-108C1723,-108 1655,-108 1655,-108 1649,-108 1643,-102 1643,-96 1643,-96 1643,-84 1643,-84 1643,-78 1649,-72 1655,-72 1655,-72 1723,-72 1723,-72 1729,-72 1735,-78 1735,-84 1735,-84 1735,-96 1735,-96 1735,-102 1729,-108 1723,-108"/>
<text text-anchor="middle" x="1689" y="-87.5" font-family="sans" font-size="10.00">summarize_trees</text>
</g>
<!-- 5&#45;&gt;0 -->
<g id="edge5" class="edge">
<title>5&#45;&gt;0</title>
<path fill="none" stroke="grey" stroke-width="2" d="M1689,-71.7C1689,-63.98 1689,-54.71 1689,-46.11"/>
<polygon fill="grey" stroke="grey" stroke-width="2" points="1692.5,-46.1 1689,-36.1 1685.5,-46.1 1692.5,-46.1"/>
</g>
<!-- 6 -->
<g id="node7" class="node">
<title>6</title>
<path fill="none" stroke="#56d0d8" stroke-width="2" d="M1088,-108C1088,-108 1008,-108 1008,-108 1002,-108 996,-102 996,-96 996,-96 996,-84 996,-84 996,-78 1002,-72 1008,-72 1008,-72 1088,-72 1088,-72 1094,-72 1100,-78 1100,-84 1100,-84 1100,-96 1100,-96 1100,-102 1094,-108 1088,-108"/>
<text text-anchor="middle" x="1048" y="-87.5" font-family="sans" font-size="10.00">analyze_trajectories</text>
</g>
<!-- 6&#45;&gt;0 -->
<g id="edge6" class="edge">
<title>6&#45;&gt;0</title>
<path fill="none" stroke="grey" stroke-width="2" d="M1100.05,-82.98C1128.66,-79.69 1164.78,-75.57 1197,-72 1366.74,-53.17 1569.53,-31.63 1651.7,-22.94"/>
<polygon fill="grey" stroke="grey" stroke-width="2" points="1652.22,-26.4 1661.79,-21.87 1651.48,-19.44 1652.22,-26.4"/>
</g>
<!-- 7 -->
<g id="node8" class="node">
<title>7</title>
<path fill="none" stroke="#56d0d8" stroke-width="2" d="M2157,-108C2157,-108 2077,-108 2077,-108 2071,-108 2065,-102 2065,-96 2065,-96 2065,-84 2065,-84 2065,-78 2071,-72 2077,-72 2077,-72 2157,-72 2157,-72 2163,-72 2169,-78 2169,-84 2169,-84 2169,-96 2169,-96 2169,-102 2163,-108 2157,-108"/>
<text text-anchor="middle" x="2117" y="-87.5" font-family="sans" font-size="10.00">analyze_trajectories</text>
</g>
<!-- 7&#45;&gt;0 -->
<g id="edge7" class="edge">
<title>7&#45;&gt;0</title>
<path fill="none" stroke="grey" stroke-width="2" d="M2064.91,-77C2056.6,-75.23 2048.08,-73.5 2040,-72 1926.35,-50.9 1790.82,-32.27 1726.48,-23.81"/>
<polygon fill="grey" stroke="grey" stroke-width="2" points="1726.78,-20.32 1716.41,-22.5 1725.87,-27.27 1726.78,-20.32"/>
</g>
<!-- 8 -->
<g id="node9" class="node">
<title>8</title>
<path fill="none" stroke="#56d0d8" stroke-width="2" d="M1845,-108C1845,-108 1765,-108 1765,-108 1759,-108 1753,-102 1753,-96 1753,-96 1753,-84 1753,-84 1753,-78 1759,-72 1765,-72 1765,-72 1845,-72 1845,-72 1851,-72 1857,-78 1857,-84 1857,-84 1857,-96 1857,-96 1857,-102 1851,-108 1845,-108"/>
<text text-anchor="middle" x="1805" y="-87.5" font-family="sans" font-size="10.00">analyze_trajectories</text>
</g>
<!-- 8&#45;&gt;0 -->
<g id="edge8" class="edge">
<title>8&#45;&gt;0</title>
<path fill="none" stroke="grey" stroke-width="2" d="M1776.62,-71.88C1761.12,-62.52 1741.75,-50.83 1725.17,-40.83"/>
<polygon fill="grey" stroke="grey" stroke-width="2" points="1726.66,-37.64 1716.29,-35.47 1723.04,-43.63 1726.66,-37.64"/>
</g>
<!-- 9 -->
<g id="node10" class="node">
<title>9</title>
<path fill="none" stroke="#56d8d0" stroke-width="2" d="M1400,-180C1400,-180 1312,-180 1312,-180 1306,-180 1300,-174 1300,-168 1300,-168 1300,-156 1300,-156 1300,-150 1306,-144 1312,-144 1312,-144 1400,-144 1400,-144 1406,-144 1412,-150 1412,-156 1412,-156 1412,-168 1412,-168 1412,-174 1406,-180 1400,-180"/>
<text text-anchor="middle" x="1356" y="-159.5" font-family="sans" font-size="10.00">summarize_comb_log</text>
</g>
<!-- 9&#45;&gt;0 -->
<g id="edge9" class="edge">
<title>9&#45;&gt;0</title>
<path fill="none" stroke="grey" stroke-width="2" d="M1396.17,-143.87C1461.35,-116.07 1589.22,-61.55 1652.18,-34.7"/>
<polygon fill="grey" stroke="grey" stroke-width="2" points="1653.88,-37.78 1661.71,-30.64 1651.14,-31.34 1653.88,-37.78"/>
</g>
<!-- 10 -->
<g id="node11" class="node">
<title>10</title>
<path fill="none" stroke="#56d8d0" stroke-width="2" d="M2401,-180C2401,-180 2313,-180 2313,-180 2307,-180 2301,-174 2301,-168 2301,-168 2301,-156 2301,-156 2301,-150 2307,-144 2313,-144 2313,-144 2401,-144 2401,-144 2407,-144 2413,-150 2413,-156 2413,-156 2413,-168 2413,-168 2413,-174 2407,-180 2401,-180"/>
<text text-anchor="middle" x="2357" y="-159.5" font-family="sans" font-size="10.00">summarize_comb_log</text>
</g>
<!-- 10&#45;&gt;0 -->
<g id="edge10" class="edge">
<title>10&#45;&gt;0</title>
<path fill="none" stroke="grey" stroke-width="2" d="M2349.12,-143.75C2338.52,-122.75 2317.51,-88.12 2288,-72 2190.59,-18.81 1841.82,-17.41 1726.39,-18.47"/>
<polygon fill="grey" stroke="grey" stroke-width="2" points="1726.24,-14.97 1716.28,-18.57 1726.31,-21.97 1726.24,-14.97"/>
</g>
<!-- 11 -->
<g id="node12" class="node">
<title>11</title>
<path fill="none" stroke="#56d8d0" stroke-width="2" d="M1622,-180C1622,-180 1534,-180 1534,-180 1528,-180 1522,-174 1522,-168 1522,-168 1522,-156 1522,-156 1522,-150 1528,-144 1534,-144 1534,-144 1622,-144 1622,-144 1628,-144 1634,-150 1634,-156 1634,-156 1634,-168 1634,-168 1634,-174 1628,-180 1622,-180"/>
<text text-anchor="middle" x="1578" y="-159.5" font-family="sans" font-size="10.00">summarize_comb_log</text>
</g>
<!-- 11&#45;&gt;0 -->
<g id="edge11" class="edge">
<title>11&#45;&gt;0</title>
<path fill="none" stroke="grey" stroke-width="2" d="M1587.18,-143.78C1597.44,-125.22 1615.11,-95.23 1634,-72 1642.24,-61.87 1652.27,-51.7 1661.5,-43.01"/>
<polygon fill="grey" stroke="grey" stroke-width="2" points="1664.03,-45.44 1669.01,-36.09 1659.28,-40.29 1664.03,-45.44"/>
</g>
<!-- 12 -->
<g id="node13" class="node">
<title>12</title>
<path fill="none" stroke="#8fd856" stroke-width="2" d="M42,-470.5C42,-470.5 12,-470.5 12,-470.5 6,-470.5 0,-464.5 0,-458.5 0,-458.5 0,-446.5 0,-446.5 0,-440.5 6,-434.5 12,-434.5 12,-434.5 42,-434.5 42,-434.5 48,-434.5 54,-440.5 54,-446.5 54,-446.5 54,-458.5 54,-458.5 54,-464.5 48,-470.5 42,-470.5"/>
<text text-anchor="middle" x="27" y="-450" font-family="sans" font-size="10.00">tree</text>
</g>
<!-- 12&#45;&gt;1 -->
<g id="edge12" class="edge">
<title>12&#45;&gt;1</title>
<path fill="none" stroke="grey" stroke-width="2" d="M36.01,-434.32C40.6,-425.56 46.27,-414.73 51.39,-404.97"/>
<polygon fill="grey" stroke="grey" stroke-width="2" points="54.52,-406.54 56.06,-396.06 48.32,-403.29 54.52,-406.54"/>
</g>
<!-- 13 -->
<g id="node14" class="node">
<title>13</title>
<path fill="none" stroke="#d86e56" stroke-width="2" d="M425.5,-545C425.5,-545 372.5,-545 372.5,-545 366.5,-545 360.5,-539 360.5,-533 360.5,-533 360.5,-521 360.5,-521 360.5,-515 366.5,-509 372.5,-509 372.5,-509 425.5,-509 425.5,-509 431.5,-509 437.5,-515 437.5,-521 437.5,-521 437.5,-533 437.5,-533 437.5,-539 431.5,-545 425.5,-545"/>
<text text-anchor="middle" x="399" y="-524.5" font-family="sans" font-size="10.00">adjust_names</text>
</g>
<!-- 13&#45;&gt;1 -->
<g id="edge13" class="edge">
<title>13&#45;&gt;1</title>
<path fill="none" stroke="grey" stroke-width="2" d="M360.24,-523.47C289.89,-518.17 144.87,-503.75 106,-473 85.24,-456.58 74.76,-427.53 69.63,-406.05"/>
<polygon fill="grey" stroke="grey" stroke-width="2" points="73.04,-405.25 67.52,-396.21 66.19,-406.72 73.04,-405.25"/>
</g>
<!-- 13&#45;&gt;6 -->
<g id="edge20" class="edge">
<title>13&#45;&gt;6</title>
<path fill="none" stroke="grey" stroke-width="2" d="M360.45,-523.28C295.81,-517.9 169.64,-503.69 139,-473 108.89,-442.84 120,-421.62 120,-379 120,-379 120,-379 120,-233 120,-145.2 777.52,-104.6 985.63,-93.95"/>
<polygon fill="grey" stroke="grey" stroke-width="2" points="985.97,-97.43 995.78,-93.43 985.62,-90.44 985.97,-97.43"/>
</g>
<!-- 13&#45;&gt;12 -->
<g id="edge28" class="edge">
<title>13&#45;&gt;12</title>
<path fill="none" stroke="grey" stroke-width="2" d="M360.47,-523.41C297.89,-518.4 170.81,-504.96 68,-473 66.59,-472.56 65.16,-472.08 63.74,-471.57"/>
<polygon fill="grey" stroke="grey" stroke-width="2" points="64.94,-468.28 54.36,-467.82 62.34,-474.78 64.94,-468.28"/>
</g>
<!-- 59 -->
<g id="node60" class="node">
<title>59</title>
<path fill="none" stroke="#a7d856" stroke-width="2" d="M1003.5,-473C1003.5,-473 868.5,-473 868.5,-473 862.5,-473 856.5,-467 856.5,-461 856.5,-461 856.5,-444 856.5,-444 856.5,-438 862.5,-432 868.5,-432 868.5,-432 1003.5,-432 1003.5,-432 1009.5,-432 1015.5,-438 1015.5,-444 1015.5,-444 1015.5,-461 1015.5,-461 1015.5,-467 1009.5,-473 1003.5,-473"/>
<text text-anchor="middle" x="936" y="-461" font-family="sans" font-size="10.00">beast</text>
<text text-anchor="middle" x="936" y="-450" font-family="sans" font-size="10.00">analysis_name: 201030_europe3</text>
<text text-anchor="middle" x="936" y="-439" font-family="sans" font-size="10.00">seed: 1</text>
</g>
<!-- 13&#45;&gt;59 -->
<g id="edge113" class="edge">
<title>13&#45;&gt;59</title>
<path fill="none" stroke="grey" stroke-width="2" d="M437.53,-522.72C513.7,-515.97 689.01,-499.06 846.62,-472.97"/>
<polygon fill="grey" stroke="grey" stroke-width="2" points="847.21,-476.42 856.5,-471.32 846.06,-469.52 847.21,-476.42"/>
</g>
<!-- 60 -->
<g id="node61" class="node">
<title>60</title>
<path fill="none" stroke="#a7d856" stroke-width="2" d="M472.5,-473C472.5,-473 337.5,-473 337.5,-473 331.5,-473 325.5,-467 325.5,-461 325.5,-461 325.5,-444 325.5,-444 325.5,-438 331.5,-432 337.5,-432 337.5,-432 472.5,-432 472.5,-432 478.5,-432 484.5,-438 484.5,-444 484.5,-444 484.5,-461 484.5,-461 484.5,-467 478.5,-473 472.5,-473"/>
<text text-anchor="middle" x="405" y="-461" font-family="sans" font-size="10.00">beast</text>
<text text-anchor="middle" x="405" y="-450" font-family="sans" font-size="10.00">analysis_name: 201030_europe3</text>
<text text-anchor="middle" x="405" y="-439" font-family="sans" font-size="10.00">seed: 2</text>
</g>
<!-- 13&#45;&gt;60 -->
<g id="edge114" class="edge">
<title>13&#45;&gt;60</title>
<path fill="none" stroke="grey" stroke-width="2" d="M400.42,-508.82C401.05,-501.2 401.81,-492 402.53,-483.32"/>
<polygon fill="grey" stroke="grey" stroke-width="2" points="406.04,-483.37 403.38,-473.12 399.06,-482.8 406.04,-483.37"/>
</g>
<!-- 61 -->
<g id="node62" class="node">
<title>61</title>
<path fill="none" stroke="#a7d856" stroke-width="2" d="M649.5,-473C649.5,-473 514.5,-473 514.5,-473 508.5,-473 502.5,-467 502.5,-461 502.5,-461 502.5,-444 502.5,-444 502.5,-438 508.5,-432 514.5,-432 514.5,-432 649.5,-432 649.5,-432 655.5,-432 661.5,-438 661.5,-444 661.5,-444 661.5,-461 661.5,-461 661.5,-467 655.5,-473 649.5,-473"/>
<text text-anchor="middle" x="582" y="-461" font-family="sans" font-size="10.00">beast</text>
<text text-anchor="middle" x="582" y="-450" font-family="sans" font-size="10.00">analysis_name: 201030_europe3</text>
<text text-anchor="middle" x="582" y="-439" font-family="sans" font-size="10.00">seed: 3</text>
</g>
<!-- 13&#45;&gt;61 -->
<g id="edge115" class="edge">
<title>13&#45;&gt;61</title>
<path fill="none" stroke="grey" stroke-width="2" d="M437.81,-510.62C462.69,-500.77 495.47,-487.78 523.48,-476.68"/>
<polygon fill="grey" stroke="grey" stroke-width="2" points="524.77,-479.94 532.78,-473 522.19,-473.43 524.77,-479.94"/>
</g>
<!-- 62 -->
<g id="node63" class="node">
<title>62</title>
<path fill="none" stroke="#a7d856" stroke-width="2" d="M295.5,-473C295.5,-473 160.5,-473 160.5,-473 154.5,-473 148.5,-467 148.5,-461 148.5,-461 148.5,-444 148.5,-444 148.5,-438 154.5,-432 160.5,-432 160.5,-432 295.5,-432 295.5,-432 301.5,-432 307.5,-438 307.5,-444 307.5,-444 307.5,-461 307.5,-461 307.5,-467 301.5,-473 295.5,-473"/>
<text text-anchor="middle" x="228" y="-461" font-family="sans" font-size="10.00">beast</text>
<text text-anchor="middle" x="228" y="-450" font-family="sans" font-size="10.00">analysis_name: 201030_europe3</text>
<text text-anchor="middle" x="228" y="-439" font-family="sans" font-size="10.00">seed: 4</text>
</g>
<!-- 13&#45;&gt;62 -->
<g id="edge116" class="edge">
<title>13&#45;&gt;62</title>
<path fill="none" stroke="grey" stroke-width="2" d="M360.2,-509.55C337.57,-499.95 308.64,-487.69 283.62,-477.08"/>
<polygon fill="grey" stroke="grey" stroke-width="2" points="284.81,-473.79 274.24,-473.11 282.08,-480.23 284.81,-473.79"/>
</g>
<!-- 63 -->
<g id="node64" class="node">
<title>63</title>
<path fill="none" stroke="#a7d856" stroke-width="2" d="M826.5,-473C826.5,-473 691.5,-473 691.5,-473 685.5,-473 679.5,-467 679.5,-461 679.5,-461 679.5,-444 679.5,-444 679.5,-438 685.5,-432 691.5,-432 691.5,-432 826.5,-432 826.5,-432 832.5,-432 838.5,-438 838.5,-444 838.5,-444 838.5,-461 838.5,-461 838.5,-467 832.5,-473 826.5,-473"/>
<text text-anchor="middle" x="759" y="-461" font-family="sans" font-size="10.00">beast</text>
<text text-anchor="middle" x="759" y="-450" font-family="sans" font-size="10.00">analysis_name: 201030_europe3</text>
<text text-anchor="middle" x="759" y="-439" font-family="sans" font-size="10.00">seed: 5</text>
</g>
<!-- 13&#45;&gt;63 -->
<g id="edge117" class="edge">
<title>13&#45;&gt;63</title>
<path fill="none" stroke="grey" stroke-width="2" d="M437.65,-518.73C488.37,-509.12 580.42,-491.46 669.45,-473.09"/>
<polygon fill="grey" stroke="grey" stroke-width="2" points="670.36,-476.48 679.44,-471.02 668.94,-469.62 670.36,-476.48"/>
</g>
<!-- 14 -->
<g id="node15" class="node">
<title>14</title>
<path fill="none" stroke="#8fd856" stroke-width="2" d="M2087,-470.5C2087,-470.5 2057,-470.5 2057,-470.5 2051,-470.5 2045,-464.5 2045,-458.5 2045,-458.5 2045,-446.5 2045,-446.5 2045,-440.5 2051,-434.5 2057,-434.5 2057,-434.5 2087,-434.5 2087,-434.5 2093,-434.5 2099,-440.5 2099,-446.5 2099,-446.5 2099,-458.5 2099,-458.5 2099,-464.5 2093,-470.5 2087,-470.5"/>
<text text-anchor="middle" x="2072" y="-450" font-family="sans" font-size="10.00">tree</text>
</g>
<!-- 14&#45;&gt;2 -->
<g id="edge14" class="edge">
<title>14&#45;&gt;2</title>
<path fill="none" stroke="grey" stroke-width="2" d="M2062.99,-434.32C2058.4,-425.56 2052.73,-414.73 2047.61,-404.97"/>
<polygon fill="grey" stroke="grey" stroke-width="2" points="2050.68,-403.29 2042.94,-396.06 2044.48,-406.54 2050.68,-403.29"/>
</g>
<!-- 15 -->
<g id="node16" class="node">
<title>15</title>
<path fill="none" stroke="#d86e56" stroke-width="2" d="M2054.5,-545C2054.5,-545 2001.5,-545 2001.5,-545 1995.5,-545 1989.5,-539 1989.5,-533 1989.5,-533 1989.5,-521 1989.5,-521 1989.5,-515 1995.5,-509 2001.5,-509 2001.5,-509 2054.5,-509 2054.5,-509 2060.5,-509 2066.5,-515 2066.5,-521 2066.5,-521 2066.5,-533 2066.5,-533 2066.5,-539 2060.5,-545 2054.5,-545"/>
<text text-anchor="middle" x="2028" y="-524.5" font-family="sans" font-size="10.00">adjust_names</text>
</g>
<!-- 15&#45;&gt;2 -->
<g id="edge15" class="edge">
<title>15&#45;&gt;2</title>
<path fill="none" stroke="grey" stroke-width="2" d="M2028.7,-508.85C2029.73,-483.62 2031.66,-436.26 2032.89,-406.24"/>
<polygon fill="grey" stroke="grey" stroke-width="2" points="2036.39,-406.18 2033.3,-396.04 2029.4,-405.89 2036.39,-406.18"/>
</g>
<!-- 15&#45;&gt;7 -->
<g id="edge22" class="edge">
<title>15&#45;&gt;7</title>
<path fill="none" stroke="grey" stroke-width="2" d="M2066.39,-508.78C2081.56,-500.13 2097.76,-488.2 2108,-473 2131.8,-437.64 2127,-421.62 2127,-379 2127,-379 2127,-379 2127,-233 2127,-192.9 2122.98,-146.58 2120.04,-118.04"/>
<polygon fill="grey" stroke="grey" stroke-width="2" points="2123.51,-117.6 2118.98,-108.02 2116.55,-118.34 2123.51,-117.6"/>
</g>
<!-- 15&#45;&gt;8 -->
<g id="edge24" class="edge">
<title>15&#45;&gt;8</title>
<path fill="none" stroke="grey" stroke-width="2" d="M2018.32,-508.97C2004.04,-482.19 1979,-428.23 1979,-379 1979,-379 1979,-379 1979,-233 1979,-172.93 1915.98,-133.73 1865.79,-112.04"/>
<polygon fill="grey" stroke="grey" stroke-width="2" points="1866.84,-108.68 1856.26,-108.06 1864.14,-115.14 1866.84,-108.68"/>
</g>
<!-- 15&#45;&gt;14 -->
<g id="edge31" class="edge">
<title>15&#45;&gt;14</title>
<path fill="none" stroke="grey" stroke-width="2" d="M2038.43,-508.82C2043.8,-499.97 2050.45,-489 2056.42,-479.17"/>
<polygon fill="grey" stroke="grey" stroke-width="2" points="2059.45,-480.92 2061.65,-470.56 2053.47,-477.29 2059.45,-480.92"/>
</g>
<!-- 64 -->
<g id="node65" class="node">
<title>64</title>
<path fill="none" stroke="#a7d856" stroke-width="2" d="M2302.5,-473C2302.5,-473 2167.5,-473 2167.5,-473 2161.5,-473 2155.5,-467 2155.5,-461 2155.5,-461 2155.5,-444 2155.5,-444 2155.5,-438 2161.5,-432 2167.5,-432 2167.5,-432 2302.5,-432 2302.5,-432 2308.5,-432 2314.5,-438 2314.5,-444 2314.5,-444 2314.5,-461 2314.5,-461 2314.5,-467 2308.5,-473 2302.5,-473"/>
<text text-anchor="middle" x="2235" y="-461" font-family="sans" font-size="10.00">beast</text>
<text text-anchor="middle" x="2235" y="-450" font-family="sans" font-size="10.00">analysis_name: 201030_europe3</text>
<text text-anchor="middle" x="2235" y="-439" font-family="sans" font-size="10.00">seed: 1</text>
</g>
<!-- 15&#45;&gt;64 -->
<g id="edge118" class="edge">
<title>15&#45;&gt;64</title>
<path fill="none" stroke="grey" stroke-width="2" d="M2066.94,-512.36C2095.72,-502.28 2135.58,-488.32 2169.27,-476.52"/>
<polygon fill="grey" stroke="grey" stroke-width="2" points="2170.77,-479.71 2179.05,-473.1 2168.45,-473.1 2170.77,-479.71"/>
</g>
<!-- 65 -->
<g id="node66" class="node">
<title>65</title>
<path fill="none" stroke="#a7d856" stroke-width="2" d="M2479.5,-473C2479.5,-473 2344.5,-473 2344.5,-473 2338.5,-473 2332.5,-467 2332.5,-461 2332.5,-461 2332.5,-444 2332.5,-444 2332.5,-438 2338.5,-432 2344.5,-432 2344.5,-432 2479.5,-432 2479.5,-432 2485.5,-432 2491.5,-438 2491.5,-444 2491.5,-444 2491.5,-461 2491.5,-461 2491.5,-467 2485.5,-473 2479.5,-473"/>
<text text-anchor="middle" x="2412" y="-461" font-family="sans" font-size="10.00">beast</text>
<text text-anchor="middle" x="2412" y="-450" font-family="sans" font-size="10.00">analysis_name: 201030_europe3</text>
<text text-anchor="middle" x="2412" y="-439" font-family="sans" font-size="10.00">seed: 2</text>
</g>
<!-- 15&#45;&gt;65 -->
<g id="edge119" class="edge">
<title>15&#45;&gt;65</title>
<path fill="none" stroke="grey" stroke-width="2" d="M2066.88,-519.56C2121.68,-510.37 2224.96,-492.63 2322.39,-473.29"/>
<polygon fill="grey" stroke="grey" stroke-width="2" points="2323.28,-476.68 2332.41,-471.29 2321.91,-469.81 2323.28,-476.68"/>
</g>
<!-- 66 -->
<g id="node67" class="node">
<title>66</title>
<path fill="none" stroke="#a7d856" stroke-width="2" d="M2656.5,-473C2656.5,-473 2521.5,-473 2521.5,-473 2515.5,-473 2509.5,-467 2509.5,-461 2509.5,-461 2509.5,-444 2509.5,-444 2509.5,-438 2515.5,-432 2521.5,-432 2521.5,-432 2656.5,-432 2656.5,-432 2662.5,-432 2668.5,-438 2668.5,-444 2668.5,-444 2668.5,-461 2668.5,-461 2668.5,-467 2662.5,-473 2656.5,-473"/>
<text text-anchor="middle" x="2589" y="-461" font-family="sans" font-size="10.00">beast</text>
<text text-anchor="middle" x="2589" y="-450" font-family="sans" font-size="10.00">analysis_name: 201030_europe3</text>
<text text-anchor="middle" x="2589" y="-439" font-family="sans" font-size="10.00">seed: 3</text>
</g>
<!-- 15&#45;&gt;66 -->
<g id="edge120" class="edge">
<title>15&#45;&gt;66</title>
<path fill="none" stroke="grey" stroke-width="2" d="M2066.51,-523.08C2145.79,-516.78 2333.12,-500.34 2499.53,-473.16"/>
<polygon fill="grey" stroke="grey" stroke-width="2" points="2500.15,-476.61 2509.45,-471.53 2499.01,-469.7 2500.15,-476.61"/>
</g>
<!-- 67 -->
<g id="node68" class="node">
<title>67</title>
<path fill="none" stroke="#a7d856" stroke-width="2" d="M2833.5,-473C2833.5,-473 2698.5,-473 2698.5,-473 2692.5,-473 2686.5,-467 2686.5,-461 2686.5,-461 2686.5,-444 2686.5,-444 2686.5,-438 2692.5,-432 2698.5,-432 2698.5,-432 2833.5,-432 2833.5,-432 2839.5,-432 2845.5,-438 2845.5,-444 2845.5,-444 2845.5,-461 2845.5,-461 2845.5,-467 2839.5,-473 2833.5,-473"/>
<text text-anchor="middle" x="2766" y="-461" font-family="sans" font-size="10.00">beast</text>
<text text-anchor="middle" x="2766" y="-450" font-family="sans" font-size="10.00">analysis_name: 201030_europe3</text>
<text text-anchor="middle" x="2766" y="-439" font-family="sans" font-size="10.00">seed: 4</text>
</g>
<!-- 15&#45;&gt;67 -->
<g id="edge121" class="edge">
<title>15&#45;&gt;67</title>
<path fill="none" stroke="grey" stroke-width="2" d="M2066.68,-524.69C2166.27,-520.93 2439.76,-508.12 2676.3,-473.16"/>
<polygon fill="grey" stroke="grey" stroke-width="2" points="2677.09,-476.58 2686.47,-471.63 2676.06,-469.65 2677.09,-476.58"/>
</g>
<!-- 68 -->
<g id="node69" class="node">
<title>68</title>
<path fill="none" stroke="#a7d856" stroke-width="2" d="M3010.5,-473C3010.5,-473 2875.5,-473 2875.5,-473 2869.5,-473 2863.5,-467 2863.5,-461 2863.5,-461 2863.5,-444 2863.5,-444 2863.5,-438 2869.5,-432 2875.5,-432 2875.5,-432 3010.5,-432 3010.5,-432 3016.5,-432 3022.5,-438 3022.5,-444 3022.5,-444 3022.5,-461 3022.5,-461 3022.5,-467 3016.5,-473 3010.5,-473"/>
<text text-anchor="middle" x="2943" y="-461" font-family="sans" font-size="10.00">beast</text>
<text text-anchor="middle" x="2943" y="-450" font-family="sans" font-size="10.00">analysis_name: 201030_europe3</text>
<text text-anchor="middle" x="2943" y="-439" font-family="sans" font-size="10.00">seed: 5</text>
</g>
<!-- 15&#45;&gt;68 -->
<g id="edge122" class="edge">
<title>15&#45;&gt;68</title>
<path fill="none" stroke="grey" stroke-width="2" d="M2066.55,-525.64C2183.64,-524.08 2545.49,-516 2853.46,-473.11"/>
<polygon fill="grey" stroke="grey" stroke-width="2" points="2854.06,-476.56 2863.48,-471.7 2853.08,-469.63 2854.06,-476.56"/>
</g>
<!-- 69 -->
<g id="node70" class="node">
<title>69</title>
<path fill="none" stroke="#a7d856" stroke-width="2" d="M1751.5,-473C1751.5,-473 1606.5,-473 1606.5,-473 1600.5,-473 1594.5,-467 1594.5,-461 1594.5,-461 1594.5,-444 1594.5,-444 1594.5,-438 1600.5,-432 1606.5,-432 1606.5,-432 1751.5,-432 1751.5,-432 1757.5,-432 1763.5,-438 1763.5,-444 1763.5,-444 1763.5,-461 1763.5,-461 1763.5,-467 1757.5,-473 1751.5,-473"/>
<text text-anchor="middle" x="1679" y="-461" font-family="sans" font-size="10.00">beast</text>
<text text-anchor="middle" x="1679" y="-450" font-family="sans" font-size="10.00">analysis_name: 201113_europe3v2</text>
<text text-anchor="middle" x="1679" y="-439" font-family="sans" font-size="10.00">seed: 1</text>
</g>
<!-- 15&#45;&gt;69 -->
<g id="edge123" class="edge">
<title>15&#45;&gt;69</title>
<path fill="none" stroke="grey" stroke-width="2" d="M1989.32,-517.96C1937.62,-507.22 1844.3,-487.84 1773.45,-473.12"/>
<polygon fill="grey" stroke="grey" stroke-width="2" points="1774.11,-469.68 1763.61,-471.08 1772.69,-476.54 1774.11,-469.68"/>
</g>
<!-- 70 -->
<g id="node71" class="node">
<title>70</title>
<path fill="none" stroke="#a7d856" stroke-width="2" d="M1377.5,-473C1377.5,-473 1232.5,-473 1232.5,-473 1226.5,-473 1220.5,-467 1220.5,-461 1220.5,-461 1220.5,-444 1220.5,-444 1220.5,-438 1226.5,-432 1232.5,-432 1232.5,-432 1377.5,-432 1377.5,-432 1383.5,-432 1389.5,-438 1389.5,-444 1389.5,-444 1389.5,-461 1389.5,-461 1389.5,-467 1383.5,-473 1377.5,-473"/>
<text text-anchor="middle" x="1305" y="-461" font-family="sans" font-size="10.00">beast</text>
<text text-anchor="middle" x="1305" y="-450" font-family="sans" font-size="10.00">analysis_name: 201113_europe3v2</text>
<text text-anchor="middle" x="1305" y="-439" font-family="sans" font-size="10.00">seed: 2</text>
</g>
<!-- 15&#45;&gt;70 -->
<g id="edge124" class="edge">
<title>15&#45;&gt;70</title>
<path fill="none" stroke="grey" stroke-width="2" d="M1989.16,-524.36C1891.72,-519.89 1628.9,-505.69 1399.91,-473.03"/>
<polygon fill="grey" stroke="grey" stroke-width="2" points="1400.12,-469.53 1389.72,-471.56 1399.12,-476.46 1400.12,-469.53"/>
</g>
<!-- 71 -->
<g id="node72" class="node">
<title>71</title>
<path fill="none" stroke="#a7d856" stroke-width="2" d="M1190.5,-473C1190.5,-473 1045.5,-473 1045.5,-473 1039.5,-473 1033.5,-467 1033.5,-461 1033.5,-461 1033.5,-444 1033.5,-444 1033.5,-438 1039.5,-432 1045.5,-432 1045.5,-432 1190.5,-432 1190.5,-432 1196.5,-432 1202.5,-438 1202.5,-444 1202.5,-444 1202.5,-461 1202.5,-461 1202.5,-467 1196.5,-473 1190.5,-473"/>
<text text-anchor="middle" x="1118" y="-461" font-family="sans" font-size="10.00">beast</text>
<text text-anchor="middle" x="1118" y="-450" font-family="sans" font-size="10.00">analysis_name: 201113_europe3v2</text>
<text text-anchor="middle" x="1118" y="-439" font-family="sans" font-size="10.00">seed: 3</text>
</g>
<!-- 15&#45;&gt;71 -->
<g id="edge125" class="edge">
<title>15&#45;&gt;71</title>
<path fill="none" stroke="grey" stroke-width="2" d="M1989.11,-525.43C1872.67,-523.32 1516.62,-513.85 1212.89,-473.16"/>
<polygon fill="grey" stroke="grey" stroke-width="2" points="1212.94,-469.63 1202.56,-471.76 1212,-476.57 1212.94,-469.63"/>
</g>
<!-- 72 -->
<g id="node73" class="node">
<title>72</title>
<path fill="none" stroke="#a7d856" stroke-width="2" d="M1564.5,-473C1564.5,-473 1419.5,-473 1419.5,-473 1413.5,-473 1407.5,-467 1407.5,-461 1407.5,-461 1407.5,-444 1407.5,-444 1407.5,-438 1413.5,-432 1419.5,-432 1419.5,-432 1564.5,-432 1564.5,-432 1570.5,-432 1576.5,-438 1576.5,-444 1576.5,-444 1576.5,-461 1576.5,-461 1576.5,-467 1570.5,-473 1564.5,-473"/>
<text text-anchor="middle" x="1492" y="-461" font-family="sans" font-size="10.00">beast</text>
<text text-anchor="middle" x="1492" y="-450" font-family="sans" font-size="10.00">analysis_name: 201113_europe3v2</text>
<text text-anchor="middle" x="1492" y="-439" font-family="sans" font-size="10.00">seed: 4</text>
</g>
<!-- 15&#45;&gt;72 -->
<g id="edge126" class="edge">
<title>15&#45;&gt;72</title>
<path fill="none" stroke="grey" stroke-width="2" d="M1989.42,-522.49C1914.08,-515.39 1741.96,-498.01 1586.93,-473.08"/>
<polygon fill="grey" stroke="grey" stroke-width="2" points="1587.17,-469.57 1576.74,-471.43 1586.05,-476.48 1587.17,-469.57"/>
</g>
<!-- 73 -->
<g id="node74" class="node">
<title>73</title>
<path fill="none" stroke="#a7d856" stroke-width="2" d="M1938.5,-473C1938.5,-473 1793.5,-473 1793.5,-473 1787.5,-473 1781.5,-467 1781.5,-461 1781.5,-461 1781.5,-444 1781.5,-444 1781.5,-438 1787.5,-432 1793.5,-432 1793.5,-432 1938.5,-432 1938.5,-432 1944.5,-432 1950.5,-438 1950.5,-444 1950.5,-444 1950.5,-461 1950.5,-461 1950.5,-467 1944.5,-473 1938.5,-473"/>
<text text-anchor="middle" x="1866" y="-461" font-family="sans" font-size="10.00">beast</text>
<text text-anchor="middle" x="1866" y="-450" font-family="sans" font-size="10.00">analysis_name: 201113_europe3v2</text>
<text text-anchor="middle" x="1866" y="-439" font-family="sans" font-size="10.00">seed: 5</text>
</g>
<!-- 15&#45;&gt;73 -->
<g id="edge127" class="edge">
<title>15&#45;&gt;73</title>
<path fill="none" stroke="grey" stroke-width="2" d="M1989.61,-508.82C1968.56,-499.4 1942.14,-487.57 1919.13,-477.28"/>
<polygon fill="grey" stroke="grey" stroke-width="2" points="1920.4,-474.01 1909.84,-473.12 1917.54,-480.4 1920.4,-474.01"/>
</g>
<!-- 16 -->
<g id="node17" class="node">
<title>16</title>
<path fill="none" stroke="#56d892" stroke-width="2" d="M1085.5,-180C1085.5,-180 1010.5,-180 1010.5,-180 1004.5,-180 998.5,-174 998.5,-168 998.5,-168 998.5,-156 998.5,-156 998.5,-150 1004.5,-144 1010.5,-144 1010.5,-144 1085.5,-144 1085.5,-144 1091.5,-144 1097.5,-150 1097.5,-156 1097.5,-156 1097.5,-168 1097.5,-168 1097.5,-174 1091.5,-180 1085.5,-180"/>
<text text-anchor="middle" x="1048" y="-159.5" font-family="sans" font-size="10.00">trajectory_mapping</text>
</g>
<!-- 16&#45;&gt;3 -->
<g id="edge16" class="edge">
<title>16&#45;&gt;3</title>
<path fill="none" stroke="grey" stroke-width="2" d="M1097.64,-143.97C1127.44,-133.74 1165.42,-120.71 1196.25,-110.13"/>
<polygon fill="grey" stroke="grey" stroke-width="2" points="1197.66,-113.35 1205.98,-106.79 1195.39,-106.72 1197.66,-113.35"/>
</g>
<!-- 16&#45;&gt;6 -->
<g id="edge19" class="edge">
<title>16&#45;&gt;6</title>
<path fill="none" stroke="grey" stroke-width="2" d="M1048,-143.7C1048,-135.98 1048,-126.71 1048,-118.11"/>
<polygon fill="grey" stroke="grey" stroke-width="2" points="1051.5,-118.1 1048,-108.1 1044.5,-118.1 1051.5,-118.1"/>
</g>
<!-- 17 -->
<g id="node18" class="node">
<title>17</title>
<path fill="none" stroke="#56d892" stroke-width="2" d="M2270.5,-180C2270.5,-180 2195.5,-180 2195.5,-180 2189.5,-180 2183.5,-174 2183.5,-168 2183.5,-168 2183.5,-156 2183.5,-156 2183.5,-150 2189.5,-144 2195.5,-144 2195.5,-144 2270.5,-144 2270.5,-144 2276.5,-144 2282.5,-150 2282.5,-156 2282.5,-156 2282.5,-168 2282.5,-168 2282.5,-174 2276.5,-180 2270.5,-180"/>
<text text-anchor="middle" x="2233" y="-159.5" font-family="sans" font-size="10.00">trajectory_mapping</text>
</g>
<!-- 17&#45;&gt;4 -->
<g id="edge17" class="edge">
<title>17&#45;&gt;4</title>
<path fill="none" stroke="grey" stroke-width="2" d="M2233,-143.7C2233,-135.98 2233,-126.71 2233,-118.11"/>
<polygon fill="grey" stroke="grey" stroke-width="2" points="2236.5,-118.1 2233,-108.1 2229.5,-118.1 2236.5,-118.1"/>
</g>
<!-- 17&#45;&gt;7 -->
<g id="edge21" class="edge">
<title>17&#45;&gt;7</title>
<path fill="none" stroke="grey" stroke-width="2" d="M2204.62,-143.88C2189.46,-134.72 2170.59,-123.34 2154.26,-113.48"/>
<polygon fill="grey" stroke="grey" stroke-width="2" points="2155.86,-110.36 2145.49,-108.19 2152.24,-116.35 2155.86,-110.36"/>
</g>
<!-- 18 -->
<g id="node19" class="node">
<title>18</title>
<path fill="none" stroke="#56d892" stroke-width="2" d="M1739.5,-180C1739.5,-180 1664.5,-180 1664.5,-180 1658.5,-180 1652.5,-174 1652.5,-168 1652.5,-168 1652.5,-156 1652.5,-156 1652.5,-150 1658.5,-144 1664.5,-144 1664.5,-144 1739.5,-144 1739.5,-144 1745.5,-144 1751.5,-150 1751.5,-156 1751.5,-156 1751.5,-168 1751.5,-168 1751.5,-174 1745.5,-180 1739.5,-180"/>
<text text-anchor="middle" x="1702" y="-159.5" font-family="sans" font-size="10.00">trajectory_mapping</text>
</g>
<!-- 18&#45;&gt;5 -->
<g id="edge18" class="edge">
<title>18&#45;&gt;5</title>
<path fill="none" stroke="grey" stroke-width="2" d="M1698.79,-143.7C1697.35,-135.98 1695.63,-126.71 1694.04,-118.11"/>
<polygon fill="grey" stroke="grey" stroke-width="2" points="1697.44,-117.3 1692.18,-108.1 1690.56,-118.58 1697.44,-117.3"/>
</g>
<!-- 18&#45;&gt;8 -->
<g id="edge23" class="edge">
<title>18&#45;&gt;8</title>
<path fill="none" stroke="grey" stroke-width="2" d="M1727.2,-143.88C1740.41,-134.89 1756.79,-123.76 1771.11,-114.03"/>
<polygon fill="grey" stroke="grey" stroke-width="2" points="1773.4,-116.71 1779.71,-108.19 1769.47,-110.92 1773.4,-116.71"/>
</g>
<!-- 19 -->
<g id="node20" class="node">
<title>19</title>
<path fill="none" stroke="#68d856" stroke-width="2" d="M1074.5,-252C1074.5,-252 1021.5,-252 1021.5,-252 1015.5,-252 1009.5,-246 1009.5,-240 1009.5,-240 1009.5,-228 1009.5,-228 1009.5,-222 1015.5,-216 1021.5,-216 1021.5,-216 1074.5,-216 1074.5,-216 1080.5,-216 1086.5,-222 1086.5,-228 1086.5,-228 1086.5,-240 1086.5,-240 1086.5,-246 1080.5,-252 1074.5,-252"/>
<text text-anchor="middle" x="1048" y="-231.5" font-family="sans" font-size="10.00">combine_logs</text>
</g>
<!-- 19&#45;&gt;9 -->
<g id="edge25" class="edge">
<title>19&#45;&gt;9</title>
<path fill="none" stroke="grey" stroke-width="2" d="M1086.7,-224.21C1137.66,-212.62 1228.05,-192.08 1289.94,-178.01"/>
<polygon fill="grey" stroke="grey" stroke-width="2" points="1291.02,-181.36 1300,-175.73 1289.47,-174.53 1291.02,-181.36"/>
</g>
<!-- 19&#45;&gt;16 -->
<g id="edge34" class="edge">
<title>19&#45;&gt;16</title>
<path fill="none" stroke="grey" stroke-width="2" d="M1048,-215.7C1048,-207.98 1048,-198.71 1048,-190.11"/>
<polygon fill="grey" stroke="grey" stroke-width="2" points="1051.5,-190.1 1048,-180.1 1044.5,-190.1 1051.5,-190.1"/>
</g>
<!-- 20 -->
<g id="node21" class="node">
<title>20</title>
<path fill="none" stroke="#68d856" stroke-width="2" d="M2383.5,-252C2383.5,-252 2330.5,-252 2330.5,-252 2324.5,-252 2318.5,-246 2318.5,-240 2318.5,-240 2318.5,-228 2318.5,-228 2318.5,-222 2324.5,-216 2330.5,-216 2330.5,-216 2383.5,-216 2383.5,-216 2389.5,-216 2395.5,-222 2395.5,-228 2395.5,-228 2395.5,-240 2395.5,-240 2395.5,-246 2389.5,-252 2383.5,-252"/>
<text text-anchor="middle" x="2357" y="-231.5" font-family="sans" font-size="10.00">combine_logs</text>
</g>
<!-- 20&#45;&gt;10 -->
<g id="edge26" class="edge">
<title>20&#45;&gt;10</title>
<path fill="none" stroke="grey" stroke-width="2" d="M2357,-215.7C2357,-207.98 2357,-198.71 2357,-190.11"/>
<polygon fill="grey" stroke="grey" stroke-width="2" points="2360.5,-190.1 2357,-180.1 2353.5,-190.1 2360.5,-190.1"/>
</g>
<!-- 20&#45;&gt;17 -->
<g id="edge36" class="edge">
<title>20&#45;&gt;17</title>
<path fill="none" stroke="grey" stroke-width="2" d="M2326.67,-215.88C2310.3,-206.64 2289.92,-195.13 2272.35,-185.21"/>
<polygon fill="grey" stroke="grey" stroke-width="2" points="2273.88,-182.06 2263.45,-180.19 2270.44,-188.15 2273.88,-182.06"/>
</g>
<!-- 21 -->
<g id="node22" class="node">
<title>21</title>
<path fill="none" stroke="#68d856" stroke-width="2" d="M1611.5,-252C1611.5,-252 1558.5,-252 1558.5,-252 1552.5,-252 1546.5,-246 1546.5,-240 1546.5,-240 1546.5,-228 1546.5,-228 1546.5,-222 1552.5,-216 1558.5,-216 1558.5,-216 1611.5,-216 1611.5,-216 1617.5,-216 1623.5,-222 1623.5,-228 1623.5,-228 1623.5,-240 1623.5,-240 1623.5,-246 1617.5,-252 1611.5,-252"/>
<text text-anchor="middle" x="1585" y="-231.5" font-family="sans" font-size="10.00">combine_logs</text>
</g>
<!-- 21&#45;&gt;11 -->
<g id="edge27" class="edge">
<title>21&#45;&gt;11</title>
<path fill="none" stroke="grey" stroke-width="2" d="M1583.27,-215.7C1582.5,-207.98 1581.57,-198.71 1580.71,-190.11"/>
<polygon fill="grey" stroke="grey" stroke-width="2" points="1584.19,-189.71 1579.71,-180.1 1577.22,-190.4 1584.19,-189.71"/>
</g>
<!-- 21&#45;&gt;18 -->
<g id="edge38" class="edge">
<title>21&#45;&gt;18</title>
<path fill="none" stroke="grey" stroke-width="2" d="M1613.62,-215.88C1628.92,-206.72 1647.94,-195.34 1664.42,-185.48"/>
<polygon fill="grey" stroke="grey" stroke-width="2" points="1666.48,-188.33 1673.27,-180.19 1662.89,-182.32 1666.48,-188.33"/>
</g>
<!-- 22 -->
<g id="node23" class="node">
<title>22</title>
<path fill="none" stroke="#59d856" stroke-width="2" d="M779.5,-617C779.5,-617 708.5,-617 708.5,-617 702.5,-617 696.5,-611 696.5,-605 696.5,-605 696.5,-593 696.5,-593 696.5,-587 702.5,-581 708.5,-581 708.5,-581 779.5,-581 779.5,-581 785.5,-581 791.5,-587 791.5,-593 791.5,-593 791.5,-605 791.5,-605 791.5,-611 785.5,-617 779.5,-617"/>
<text text-anchor="middle" x="744" y="-596.5" font-family="sans" font-size="10.00">combine_samples</text>
</g>
<!-- 22&#45;&gt;13 -->
<g id="edge29" class="edge">
<title>22&#45;&gt;13</title>
<path fill="none" stroke="grey" stroke-width="2" d="M696.39,-588.34C630.94,-575.06 513.8,-551.29 447.76,-537.89"/>
<polygon fill="grey" stroke="grey" stroke-width="2" points="448.11,-534.39 437.61,-535.83 446.71,-541.25 448.11,-534.39"/>
</g>
<!-- 23 -->
<g id="node24" class="node">
<title>23</title>
<path fill="none" stroke="#d87d56" stroke-width="2" d="M1177,-1198C1177,-1198 1147,-1198 1147,-1198 1141,-1198 1135,-1192 1135,-1186 1135,-1186 1135,-1174 1135,-1174 1135,-1168 1141,-1162 1147,-1162 1147,-1162 1177,-1162 1177,-1162 1183,-1162 1189,-1168 1189,-1174 1189,-1174 1189,-1186 1189,-1186 1189,-1192 1183,-1198 1177,-1198"/>
<text text-anchor="middle" x="1162" y="-1177.5" font-family="sans" font-size="10.00">load</text>
</g>
<!-- 23&#45;&gt;13 -->
<g id="edge30" class="edge">
<title>23&#45;&gt;13</title>
<path fill="none" stroke="grey" stroke-width="2" d="M1134.72,-1179C1053.33,-1178.46 805.55,-1172.8 607,-1126 499.91,-1100.76 376,-1147.02 376,-1037 376,-1037 376,-1037 376,-672.5 376,-631.1 385.32,-583.84 392.1,-554.97"/>
<polygon fill="grey" stroke="grey" stroke-width="2" points="395.51,-555.75 394.46,-545.21 388.7,-554.11 395.51,-555.75"/>
</g>
<!-- 23&#45;&gt;15 -->
<g id="edge33" class="edge">
<title>23&#45;&gt;15</title>
<path fill="none" stroke="grey" stroke-width="2" d="M1189.22,-1179.23C1277.07,-1179.42 1560.54,-1175.86 1788,-1126 1901.57,-1101.1 2034,-1153.27 2034,-1037 2034,-1037 2034,-1037 2034,-672.5 2034,-631.76 2031.59,-584.61 2029.82,-555.54"/>
<polygon fill="grey" stroke="grey" stroke-width="2" points="2033.3,-555.1 2029.19,-545.34 2026.32,-555.54 2033.3,-555.1"/>
</g>
<!-- 31 -->
<g id="node32" class="node">
<title>31</title>
<path fill="none" stroke="#56d8a9" stroke-width="2" d="M788,-694C788,-694 700,-694 700,-694 694,-694 688,-688 688,-682 688,-682 688,-665 688,-665 688,-659 694,-653 700,-653 700,-653 788,-653 788,-653 794,-653 800,-659 800,-665 800,-665 800,-682 800,-682 800,-688 794,-694 788,-694"/>
<text text-anchor="middle" x="744" y="-682" font-family="sans" font-size="10.00">rsubsample</text>
<text text-anchor="middle" x="744" y="-671" font-family="sans" font-size="10.00">build_name: europe3a</text>
<text text-anchor="middle" x="744" y="-660" font-family="sans" font-size="10.00">subsample: France</text>
</g>
<!-- 23&#45;&gt;31 -->
<g id="edge74" class="edge">
<title>23&#45;&gt;31</title>
<path fill="none" stroke="grey" stroke-width="2" d="M1134.9,-1174.06C1052.91,-1158.34 813,-1106.42 813,-1037 813,-1037 813,-1037 813,-819 813,-774.91 786.52,-729.99 766.37,-702.19"/>
<polygon fill="grey" stroke="grey" stroke-width="2" points="769.14,-700.05 760.35,-694.13 763.53,-704.24 769.14,-700.05"/>
</g>
<!-- 32 -->
<g id="node33" class="node">
<title>32</title>
<path fill="none" stroke="#56d8a9" stroke-width="2" d="M918,-694C918,-694 830,-694 830,-694 824,-694 818,-688 818,-682 818,-682 818,-665 818,-665 818,-659 824,-653 830,-653 830,-653 918,-653 918,-653 924,-653 930,-659 930,-665 930,-665 930,-682 930,-682 930,-688 924,-694 918,-694"/>
<text text-anchor="middle" x="874" y="-682" font-family="sans" font-size="10.00">rsubsample</text>
<text text-anchor="middle" x="874" y="-671" font-family="sans" font-size="10.00">build_name: europe3a</text>
<text text-anchor="middle" x="874" y="-660" font-family="sans" font-size="10.00">subsample: Germany</text>
</g>
<!-- 23&#45;&gt;32 -->
<g id="edge76" class="edge">
<title>23&#45;&gt;32</title>
<path fill="none" stroke="grey" stroke-width="2" d="M1134.82,-1175.41C1073.35,-1165.62 929,-1132.45 929,-1037 929,-1037 929,-1037 929,-819 929,-776.56 908.02,-731.41 891.97,-703.1"/>
<polygon fill="grey" stroke="grey" stroke-width="2" points="894.82,-701.04 886.76,-694.17 888.78,-704.57 894.82,-701.04"/>
</g>
<!-- 33 -->
<g id="node34" class="node">
<title>33</title>
<path fill="none" stroke="#56d8a9" stroke-width="2" d="M1048,-694C1048,-694 960,-694 960,-694 954,-694 948,-688 948,-682 948,-682 948,-665 948,-665 948,-659 954,-653 960,-653 960,-653 1048,-653 1048,-653 1054,-653 1060,-659 1060,-665 1060,-665 1060,-682 1060,-682 1060,-688 1054,-694 1048,-694"/>
<text text-anchor="middle" x="1004" y="-682" font-family="sans" font-size="10.00">rsubsample</text>
<text text-anchor="middle" x="1004" y="-671" font-family="sans" font-size="10.00">build_name: europe3a</text>
<text text-anchor="middle" x="1004" y="-660" font-family="sans" font-size="10.00">subsample: Hubei</text>
</g>
<!-- 23&#45;&gt;33 -->
<g id="edge78" class="edge">
<title>23&#45;&gt;33</title>
<path fill="none" stroke="grey" stroke-width="2" d="M1134.67,-1167.86C1091.66,-1148.31 1013,-1103.47 1013,-1037 1013,-1037 1013,-1037 1013,-819 1013,-779.33 1009.58,-733.65 1006.96,-704.45"/>
<polygon fill="grey" stroke="grey" stroke-width="2" points="1010.41,-703.74 1006,-694.11 1003.43,-704.39 1010.41,-703.74"/>
</g>
<!-- 34 -->
<g id="node35" class="node">
<title>34</title>
<path fill="none" stroke="#56d8a9" stroke-width="2" d="M1178,-694C1178,-694 1090,-694 1090,-694 1084,-694 1078,-688 1078,-682 1078,-682 1078,-665 1078,-665 1078,-659 1084,-653 1090,-653 1090,-653 1178,-653 1178,-653 1184,-653 1190,-659 1190,-665 1190,-665 1190,-682 1190,-682 1190,-688 1184,-694 1178,-694"/>
<text text-anchor="middle" x="1134" y="-682" font-family="sans" font-size="10.00">rsubsample</text>
<text text-anchor="middle" x="1134" y="-671" font-family="sans" font-size="10.00">build_name: europe3a</text>
<text text-anchor="middle" x="1134" y="-660" font-family="sans" font-size="10.00">subsample: Italy</text>
</g>
<!-- 23&#45;&gt;34 -->
<g id="edge80" class="edge">
<title>23&#45;&gt;34</title>
<path fill="none" stroke="grey" stroke-width="2" d="M1145.51,-1161.77C1123.16,-1136.53 1086,-1087.05 1086,-1037 1086,-1037 1086,-1037 1086,-819 1086,-777.2 1104.31,-731.91 1118.32,-703.38"/>
<polygon fill="grey" stroke="grey" stroke-width="2" points="1121.48,-704.89 1122.87,-694.38 1115.23,-701.73 1121.48,-704.89"/>
</g>
<!-- 35 -->
<g id="node36" class="node">
<title>35</title>
<path fill="none" stroke="#56d8a9" stroke-width="2" d="M527.5,-694C527.5,-694 416.5,-694 416.5,-694 410.5,-694 404.5,-688 404.5,-682 404.5,-682 404.5,-665 404.5,-665 404.5,-659 410.5,-653 416.5,-653 416.5,-653 527.5,-653 527.5,-653 533.5,-653 539.5,-659 539.5,-665 539.5,-665 539.5,-682 539.5,-682 539.5,-688 533.5,-694 527.5,-694"/>
<text text-anchor="middle" x="472" y="-682" font-family="sans" font-size="10.00">rsubsample</text>
<text text-anchor="middle" x="472" y="-671" font-family="sans" font-size="10.00">build_name: europe3a</text>
<text text-anchor="middle" x="472" y="-660" font-family="sans" font-size="10.00">subsample: OtherEuropean</text>
</g>
<!-- 23&#45;&gt;35 -->
<g id="edge82" class="edge">
<title>23&#45;&gt;35</title>
<path fill="none" stroke="grey" stroke-width="2" d="M1134.63,-1178.39C1018.21,-1175.09 570,-1154.72 570,-1037 570,-1037 570,-1037 570,-819 570,-771.34 533.04,-727.72 504.51,-701.15"/>
<polygon fill="grey" stroke="grey" stroke-width="2" points="506.5,-698.23 496.73,-694.12 501.8,-703.42 506.5,-698.23"/>
</g>
<!-- 36 -->
<g id="node37" class="node">
<title>36</title>
<path fill="none" stroke="#56d8a9" stroke-width="2" d="M658,-694C658,-694 570,-694 570,-694 564,-694 558,-688 558,-682 558,-682 558,-665 558,-665 558,-659 564,-653 570,-653 570,-653 658,-653 658,-653 664,-653 670,-659 670,-665 670,-665 670,-682 670,-682 670,-688 664,-694 658,-694"/>
<text text-anchor="middle" x="614" y="-682" font-family="sans" font-size="10.00">rsubsample</text>
<text text-anchor="middle" x="614" y="-671" font-family="sans" font-size="10.00">build_name: europe3a</text>
<text text-anchor="middle" x="614" y="-660" font-family="sans" font-size="10.00">subsample: Spain</text>
</g>
<!-- 23&#45;&gt;36 -->
<g id="edge84" class="edge">
<title>23&#45;&gt;36</title>
<path fill="none" stroke="grey" stroke-width="2" d="M1134.65,-1177.25C1029.9,-1169.82 660,-1136.52 660,-1037 660,-1037 660,-1037 660,-819 660,-777.37 642.45,-732.04 629.03,-703.46"/>
<polygon fill="grey" stroke="grey" stroke-width="2" points="632.17,-701.92 624.67,-694.44 625.87,-704.97 632.17,-701.92"/>
</g>
<!-- 37 -->
<g id="node38" class="node">
<title>37</title>
<path fill="none" stroke="#56d8a9" stroke-width="2" d="M1592,-694C1592,-694 1504,-694 1504,-694 1498,-694 1492,-688 1492,-682 1492,-682 1492,-665 1492,-665 1492,-659 1498,-653 1504,-653 1504,-653 1592,-653 1592,-653 1598,-653 1604,-659 1604,-665 1604,-665 1604,-682 1604,-682 1604,-688 1598,-694 1592,-694"/>
<text text-anchor="middle" x="1548" y="-682" font-family="sans" font-size="10.00">rsubsample</text>
<text text-anchor="middle" x="1548" y="-671" font-family="sans" font-size="10.00">build_name: europe3b</text>
<text text-anchor="middle" x="1548" y="-660" font-family="sans" font-size="10.00">subsample: France</text>
</g>
<!-- 23&#45;&gt;37 -->
<g id="edge86" class="edge">
<title>23&#45;&gt;37</title>
<path fill="none" stroke="grey" stroke-width="2" d="M1189.01,-1179.58C1267.82,-1179.73 1492,-1168.6 1492,-1037 1492,-1037 1492,-1037 1492,-819 1492,-776.46 1513.37,-731.34 1529.7,-703.06"/>
<polygon fill="grey" stroke="grey" stroke-width="2" points="1532.9,-704.52 1535.01,-694.14 1526.89,-700.94 1532.9,-704.52"/>
</g>
<!-- 38 -->
<g id="node39" class="node">
<title>38</title>
<path fill="none" stroke="#56d8a9" stroke-width="2" d="M1722,-694C1722,-694 1634,-694 1634,-694 1628,-694 1622,-688 1622,-682 1622,-682 1622,-665 1622,-665 1622,-659 1628,-653 1634,-653 1634,-653 1722,-653 1722,-653 1728,-653 1734,-659 1734,-665 1734,-665 1734,-682 1734,-682 1734,-688 1728,-694 1722,-694"/>
<text text-anchor="middle" x="1678" y="-682" font-family="sans" font-size="10.00">rsubsample</text>
<text text-anchor="middle" x="1678" y="-671" font-family="sans" font-size="10.00">build_name: europe3b</text>
<text text-anchor="middle" x="1678" y="-660" font-family="sans" font-size="10.00">subsample: Germany</text>
</g>
<!-- 23&#45;&gt;38 -->
<g id="edge88" class="edge">
<title>23&#45;&gt;38</title>
<path fill="none" stroke="grey" stroke-width="2" d="M1189.39,-1176.95C1256.17,-1171.53 1425.39,-1155.24 1473,-1126 1514.96,-1100.23 1539,-1086.25 1539,-1037 1539,-1037 1539,-1037 1539,-819 1539,-765.17 1589.73,-723.64 1629.89,-699.2"/>
<polygon fill="grey" stroke="grey" stroke-width="2" points="1631.71,-702.19 1638.54,-694.1 1628.15,-696.16 1631.71,-702.19"/>
</g>
<!-- 39 -->
<g id="node40" class="node">
<title>39</title>
<path fill="none" stroke="#56d8a9" stroke-width="2" d="M1864,-694C1864,-694 1764,-694 1764,-694 1758,-694 1752,-688 1752,-682 1752,-682 1752,-665 1752,-665 1752,-659 1758,-653 1764,-653 1764,-653 1864,-653 1864,-653 1870,-653 1876,-659 1876,-665 1876,-665 1876,-682 1876,-682 1876,-688 1870,-694 1864,-694"/>
<text text-anchor="middle" x="1814" y="-682" font-family="sans" font-size="10.00">rsubsample</text>
<text text-anchor="middle" x="1814" y="-671" font-family="sans" font-size="10.00">build_name: europe3b</text>
<text text-anchor="middle" x="1814" y="-660" font-family="sans" font-size="10.00">subsample: Hubei&#45;China</text>
</g>
<!-- 23&#45;&gt;39 -->
<g id="edge90" class="edge">
<title>23&#45;&gt;39</title>
<path fill="none" stroke="grey" stroke-width="2" d="M1189.22,-1177.71C1298.03,-1171.81 1696,-1143 1696,-1037 1696,-1037 1696,-1037 1696,-819 1696,-768.39 1739.96,-725.73 1774.22,-700.17"/>
<polygon fill="grey" stroke="grey" stroke-width="2" points="1776.64,-702.74 1782.69,-694.04 1772.53,-697.07 1776.64,-702.74"/>
</g>
<!-- 40 -->
<g id="node41" class="node">
<title>40</title>
<path fill="none" stroke="#56d8a9" stroke-width="2" d="M1994,-694C1994,-694 1906,-694 1906,-694 1900,-694 1894,-688 1894,-682 1894,-682 1894,-665 1894,-665 1894,-659 1900,-653 1906,-653 1906,-653 1994,-653 1994,-653 2000,-653 2006,-659 2006,-665 2006,-665 2006,-682 2006,-682 2006,-688 2000,-694 1994,-694"/>
<text text-anchor="middle" x="1950" y="-682" font-family="sans" font-size="10.00">rsubsample</text>
<text text-anchor="middle" x="1950" y="-671" font-family="sans" font-size="10.00">build_name: europe3b</text>
<text text-anchor="middle" x="1950" y="-660" font-family="sans" font-size="10.00">subsample: Italy</text>
</g>
<!-- 23&#45;&gt;40 -->
<g id="edge92" class="edge">
<title>23&#45;&gt;40</title>
<path fill="none" stroke="grey" stroke-width="2" d="M1189.08,-1179.23C1315.55,-1179.57 1842,-1172.83 1842,-1037 1842,-1037 1842,-1037 1842,-819 1842,-769.98 1882.37,-726.89 1913.75,-700.8"/>
<polygon fill="grey" stroke="grey" stroke-width="2" points="1916.32,-703.22 1921.91,-694.22 1911.92,-697.77 1916.32,-703.22"/>
</g>
<!-- 41 -->
<g id="node42" class="node">
<title>41</title>
<path fill="none" stroke="#56d8a9" stroke-width="2" d="M1331.5,-694C1331.5,-694 1220.5,-694 1220.5,-694 1214.5,-694 1208.5,-688 1208.5,-682 1208.5,-682 1208.5,-665 1208.5,-665 1208.5,-659 1214.5,-653 1220.5,-653 1220.5,-653 1331.5,-653 1331.5,-653 1337.5,-653 1343.5,-659 1343.5,-665 1343.5,-665 1343.5,-682 1343.5,-682 1343.5,-688 1337.5,-694 1331.5,-694"/>
<text text-anchor="middle" x="1276" y="-682" font-family="sans" font-size="10.00">rsubsample</text>
<text text-anchor="middle" x="1276" y="-671" font-family="sans" font-size="10.00">build_name: europe3b</text>
<text text-anchor="middle" x="1276" y="-660" font-family="sans" font-size="10.00">subsample: OtherEuropean</text>
</g>
<!-- 23&#45;&gt;41 -->
<g id="edge94" class="edge">
<title>23&#45;&gt;41</title>
<path fill="none" stroke="grey" stroke-width="2" d="M1189.37,-1170.16C1236.97,-1152.86 1330,-1109.75 1330,-1037 1330,-1037 1330,-1037 1330,-819 1330,-776.65 1309.4,-731.49 1293.64,-703.14"/>
<polygon fill="grey" stroke="grey" stroke-width="2" points="1296.53,-701.14 1288.52,-694.21 1290.46,-704.62 1296.53,-701.14"/>
</g>
<!-- 42 -->
<g id="node43" class="node">
<title>42</title>
<path fill="none" stroke="#56d8a9" stroke-width="2" d="M1462,-694C1462,-694 1374,-694 1374,-694 1368,-694 1362,-688 1362,-682 1362,-682 1362,-665 1362,-665 1362,-659 1368,-653 1374,-653 1374,-653 1462,-653 1462,-653 1468,-653 1474,-659 1474,-665 1474,-665 1474,-682 1474,-682 1474,-688 1468,-694 1462,-694"/>
<text text-anchor="middle" x="1418" y="-682" font-family="sans" font-size="10.00">rsubsample</text>
<text text-anchor="middle" x="1418" y="-671" font-family="sans" font-size="10.00">build_name: europe3b</text>
<text text-anchor="middle" x="1418" y="-660" font-family="sans" font-size="10.00">subsample: Spain</text>
</g>
<!-- 23&#45;&gt;42 -->
<g id="edge96" class="edge">
<title>23&#45;&gt;42</title>
<path fill="none" stroke="grey" stroke-width="2" d="M1189.34,-1174.77C1248.89,-1163.83 1385,-1128.8 1385,-1037 1385,-1037 1385,-1037 1385,-819 1385,-778.26 1397.62,-732.64 1407.26,-703.76"/>
<polygon fill="grey" stroke="grey" stroke-width="2" points="1410.57,-704.87 1410.51,-694.28 1403.95,-702.6 1410.57,-704.87"/>
</g>
<!-- 74 -->
<g id="node75" class="node">
<title>74</title>
<path fill="none" stroke="#566bd8" stroke-width="2" d="M1200,-838C1200,-838 1170,-838 1170,-838 1164,-838 1158,-832 1158,-826 1158,-826 1158,-814 1158,-814 1158,-808 1164,-802 1170,-802 1170,-802 1200,-802 1200,-802 1206,-802 1212,-808 1212,-814 1212,-814 1212,-826 1212,-826 1212,-832 1206,-838 1200,-838"/>
<text text-anchor="middle" x="1185" y="-817.5" font-family="sans" font-size="10.00">refilter</text>
</g>
<!-- 23&#45;&gt;74 -->
<g id="edge129" class="edge">
<title>23&#45;&gt;74</title>
<path fill="none" stroke="grey" stroke-width="2" d="M1154.31,-1161.91C1143.21,-1135.62 1124,-1083.45 1124,-1037 1124,-1037 1124,-1037 1124,-963 1124,-922.36 1127.72,-910.79 1145,-874 1149.56,-864.3 1156.08,-854.65 1162.54,-846.3"/>
<polygon fill="grey" stroke="grey" stroke-width="2" points="1165.35,-848.4 1168.91,-838.42 1159.9,-844 1165.35,-848.4"/>
</g>
<!-- 76 -->
<g id="node77" class="node">
<title>76</title>
<path fill="none" stroke="#56a9d8" stroke-width="2" d="M1203.5,-910C1203.5,-910 1166.5,-910 1166.5,-910 1160.5,-910 1154.5,-904 1154.5,-898 1154.5,-898 1154.5,-886 1154.5,-886 1154.5,-880 1160.5,-874 1166.5,-874 1166.5,-874 1203.5,-874 1203.5,-874 1209.5,-874 1215.5,-880 1215.5,-886 1215.5,-886 1215.5,-898 1215.5,-898 1215.5,-904 1209.5,-910 1203.5,-910"/>
<text text-anchor="middle" x="1185" y="-889.5" font-family="sans" font-size="10.00">diagnostic</text>
</g>
<!-- 23&#45;&gt;76 -->
<g id="edge133" class="edge">
<title>23&#45;&gt;76</title>
<path fill="none" stroke="grey" stroke-width="2" d="M1163.37,-1161.97C1167.2,-1114.29 1178.07,-979.18 1182.78,-920.63"/>
<polygon fill="grey" stroke="grey" stroke-width="2" points="1186.3,-920.55 1183.61,-910.31 1179.32,-919.99 1186.3,-920.55"/>
</g>
<!-- 78 -->
<g id="node79" class="node">
<title>78</title>
<path fill="none" stroke="#d89556" stroke-width="2" d="M1245,-1126C1245,-1126 1215,-1126 1215,-1126 1209,-1126 1203,-1120 1203,-1114 1203,-1114 1203,-1102 1203,-1102 1203,-1096 1209,-1090 1215,-1090 1215,-1090 1245,-1090 1245,-1090 1251,-1090 1257,-1096 1257,-1102 1257,-1102 1257,-1114 1257,-1114 1257,-1120 1251,-1126 1245,-1126"/>
<text text-anchor="middle" x="1230" y="-1105.5" font-family="sans" font-size="10.00">filter</text>
</g>
<!-- 23&#45;&gt;78 -->
<g id="edge135" class="edge">
<title>23&#45;&gt;78</title>
<path fill="none" stroke="grey" stroke-width="2" d="M1178.81,-1161.7C1187.13,-1153.14 1197.31,-1142.66 1206.39,-1133.3"/>
<polygon fill="grey" stroke="grey" stroke-width="2" points="1208.93,-1135.72 1213.38,-1126.1 1203.91,-1130.84 1208.93,-1135.72"/>
</g>
<!-- 24 -->
<g id="node25" class="node">
<title>24</title>
<path fill="none" stroke="#59d856" stroke-width="2" d="M1713.5,-617C1713.5,-617 1642.5,-617 1642.5,-617 1636.5,-617 1630.5,-611 1630.5,-605 1630.5,-605 1630.5,-593 1630.5,-593 1630.5,-587 1636.5,-581 1642.5,-581 1642.5,-581 1713.5,-581 1713.5,-581 1719.5,-581 1725.5,-587 1725.5,-593 1725.5,-593 1725.5,-605 1725.5,-605 1725.5,-611 1719.5,-617 1713.5,-617"/>
<text text-anchor="middle" x="1678" y="-596.5" font-family="sans" font-size="10.00">combine_samples</text>
</g>
<!-- 24&#45;&gt;15 -->
<g id="edge32" class="edge">
<title>24&#45;&gt;15</title>
<path fill="none" stroke="grey" stroke-width="2" d="M1725.57,-588.49C1792.15,-575.17 1912.47,-551.11 1979.53,-537.69"/>
<polygon fill="grey" stroke="grey" stroke-width="2" points="1980.3,-541.11 1989.42,-535.72 1978.93,-534.24 1980.3,-541.11"/>
</g>
<!-- 25 -->
<g id="node26" class="node">
<title>25</title>
<path fill="none" stroke="#d8bc56" stroke-width="2" d="M833,-252C833,-252 777,-252 777,-252 771,-252 765,-246 765,-240 765,-240 765,-228 765,-228 765,-222 771,-216 777,-216 777,-216 833,-216 833,-216 839,-216 845,-222 845,-228 845,-228 845,-240 845,-240 845,-246 839,-252 833,-252"/>
<text text-anchor="middle" x="805" y="-231.5" font-family="sans" font-size="10.00">combine_trees</text>
</g>
<!-- 25&#45;&gt;16 -->
<g id="edge35" class="edge">
<title>25&#45;&gt;16</title>
<path fill="none" stroke="grey" stroke-width="2" d="M845.13,-221.44C884.1,-210.21 943.75,-193.03 988.3,-180.2"/>
<polygon fill="grey" stroke="grey" stroke-width="2" points="989.49,-183.5 998.13,-177.36 987.56,-176.77 989.49,-183.5"/>
</g>
<!-- 26 -->
<g id="node27" class="node">
<title>26</title>
<path fill="none" stroke="#d8bc56" stroke-width="2" d="M2274,-252C2274,-252 2218,-252 2218,-252 2212,-252 2206,-246 2206,-240 2206,-240 2206,-228 2206,-228 2206,-222 2212,-216 2218,-216 2218,-216 2274,-216 2274,-216 2280,-216 2286,-222 2286,-228 2286,-228 2286,-240 2286,-240 2286,-246 2280,-252 2274,-252"/>
<text text-anchor="middle" x="2246" y="-231.5" font-family="sans" font-size="10.00">combine_trees</text>
</g>
<!-- 26&#45;&gt;17 -->
<g id="edge37" class="edge">
<title>26&#45;&gt;17</title>
<path fill="none" stroke="grey" stroke-width="2" d="M2242.79,-215.7C2241.35,-207.98 2239.63,-198.71 2238.04,-190.11"/>
<polygon fill="grey" stroke="grey" stroke-width="2" points="2241.44,-189.3 2236.18,-180.1 2234.56,-190.58 2241.44,-189.3"/>
</g>
<!-- 27 -->
<g id="node28" class="node">
<title>27</title>
<path fill="none" stroke="#d8bc56" stroke-width="2" d="M1723,-252C1723,-252 1667,-252 1667,-252 1661,-252 1655,-246 1655,-240 1655,-240 1655,-228 1655,-228 1655,-222 1661,-216 1667,-216 1667,-216 1723,-216 1723,-216 1729,-216 1735,-222 1735,-228 1735,-228 1735,-240 1735,-240 1735,-246 1729,-252 1723,-252"/>
<text text-anchor="middle" x="1695" y="-231.5" font-family="sans" font-size="10.00">combine_trees</text>
</g>
<!-- 27&#45;&gt;18 -->
<g id="edge39" class="edge">
<title>27&#45;&gt;18</title>
<path fill="none" stroke="grey" stroke-width="2" d="M1696.73,-215.7C1697.5,-207.98 1698.43,-198.71 1699.29,-190.11"/>
<polygon fill="grey" stroke="grey" stroke-width="2" points="1702.78,-190.4 1700.29,-180.1 1695.81,-189.71 1702.78,-190.4"/>
</g>
<!-- 28 -->
<g id="node29" class="node">
<title>28</title>
<path fill="none" stroke="#d8cb56" stroke-width="2" d="M794.5,-324C794.5,-324 723.5,-324 723.5,-324 717.5,-324 711.5,-318 711.5,-312 711.5,-312 711.5,-300 711.5,-300 711.5,-294 717.5,-288 723.5,-288 723.5,-288 794.5,-288 794.5,-288 800.5,-288 806.5,-294 806.5,-300 806.5,-300 806.5,-312 806.5,-312 806.5,-318 800.5,-324 794.5,-324"/>
<text text-anchor="middle" x="759" y="-303.5" font-family="sans" font-size="10.00">chains_diagnostic</text>
</g>
<!-- 28&#45;&gt;19 -->
<g id="edge40" class="edge">
<title>28&#45;&gt;19</title>
<path fill="none" stroke="grey" stroke-width="2" d="M806.72,-293.44C860.04,-280.53 945.89,-259.73 999.51,-246.74"/>
<polygon fill="grey" stroke="grey" stroke-width="2" points="1000.57,-250.09 1009.46,-244.33 998.92,-243.29 1000.57,-250.09"/>
</g>
<!-- 28&#45;&gt;25 -->
<g id="edge55" class="edge">
<title>28&#45;&gt;25</title>
<path fill="none" stroke="grey" stroke-width="2" d="M770.37,-287.7C775.72,-279.56 782.2,-269.69 788.11,-260.7"/>
<polygon fill="grey" stroke="grey" stroke-width="2" points="791.19,-262.38 793.76,-252.1 785.34,-258.54 791.19,-262.38"/>
</g>
<!-- 29 -->
<g id="node30" class="node">
<title>29</title>
<path fill="none" stroke="#d8cb56" stroke-width="2" d="M2447.5,-324C2447.5,-324 2376.5,-324 2376.5,-324 2370.5,-324 2364.5,-318 2364.5,-312 2364.5,-312 2364.5,-300 2364.5,-300 2364.5,-294 2370.5,-288 2376.5,-288 2376.5,-288 2447.5,-288 2447.5,-288 2453.5,-288 2459.5,-294 2459.5,-300 2459.5,-300 2459.5,-312 2459.5,-312 2459.5,-318 2453.5,-324 2447.5,-324"/>
<text text-anchor="middle" x="2412" y="-303.5" font-family="sans" font-size="10.00">chains_diagnostic</text>
</g>
<!-- 29&#45;&gt;20 -->
<g id="edge41" class="edge">
<title>29&#45;&gt;20</title>
<path fill="none" stroke="grey" stroke-width="2" d="M2398.4,-287.7C2391.88,-279.39 2383.93,-269.28 2376.75,-260.14"/>
<polygon fill="grey" stroke="grey" stroke-width="2" points="2379.37,-257.81 2370.44,-252.1 2373.87,-262.13 2379.37,-257.81"/>
</g>
<!-- 29&#45;&gt;26 -->
<g id="edge56" class="edge">
<title>29&#45;&gt;26</title>
<path fill="none" stroke="grey" stroke-width="2" d="M2371.39,-287.88C2348.51,-278.23 2319.76,-266.1 2295.56,-255.9"/>
<polygon fill="grey" stroke="grey" stroke-width="2" points="2296.76,-252.61 2286.19,-251.95 2294.04,-259.06 2296.76,-252.61"/>
</g>
<!-- 30 -->
<g id="node31" class="node">
<title>30</title>
<path fill="none" stroke="#d8cb56" stroke-width="2" d="M1620.5,-324C1620.5,-324 1549.5,-324 1549.5,-324 1543.5,-324 1537.5,-318 1537.5,-312 1537.5,-312 1537.5,-300 1537.5,-300 1537.5,-294 1543.5,-288 1549.5,-288 1549.5,-288 1620.5,-288 1620.5,-288 1626.5,-288 1632.5,-294 1632.5,-300 1632.5,-300 1632.5,-312 1632.5,-312 1632.5,-318 1626.5,-324 1620.5,-324"/>
<text text-anchor="middle" x="1585" y="-303.5" font-family="sans" font-size="10.00">chains_diagnostic</text>
</g>
<!-- 30&#45;&gt;21 -->
<g id="edge42" class="edge">
<title>30&#45;&gt;21</title>
<path fill="none" stroke="grey" stroke-width="2" d="M1585,-287.7C1585,-279.98 1585,-270.71 1585,-262.11"/>
<polygon fill="grey" stroke="grey" stroke-width="2" points="1588.5,-262.1 1585,-252.1 1581.5,-262.1 1588.5,-262.1"/>
</g>
<!-- 30&#45;&gt;27 -->
<g id="edge57" class="edge">
<title>30&#45;&gt;27</title>
<path fill="none" stroke="grey" stroke-width="2" d="M1611.91,-287.88C1626.16,-278.81 1643.85,-267.55 1659.24,-257.76"/>
<polygon fill="grey" stroke="grey" stroke-width="2" points="1661.43,-260.51 1667.99,-252.19 1657.67,-254.61 1661.43,-260.51"/>
</g>
<!-- 31&#45;&gt;22 -->
<g id="edge43" class="edge">
<title>31&#45;&gt;22</title>
<path fill="none" stroke="grey" stroke-width="2" d="M744,-652.69C744,-644.91 744,-635.84 744,-627.45"/>
<polygon fill="grey" stroke="grey" stroke-width="2" points="747.5,-627.32 744,-617.32 740.5,-627.32 747.5,-627.32"/>
</g>
<!-- 32&#45;&gt;22 -->
<g id="edge44" class="edge">
<title>32&#45;&gt;22</title>
<path fill="none" stroke="grey" stroke-width="2" d="M838.82,-652.88C821.79,-643.38 801.27,-631.94 783.68,-622.13"/>
<polygon fill="grey" stroke="grey" stroke-width="2" points="785.22,-618.98 774.78,-617.17 781.81,-625.09 785.22,-618.98"/>
</g>
<!-- 33&#45;&gt;22 -->
<g id="edge45" class="edge">
<title>33&#45;&gt;22</title>
<path fill="none" stroke="grey" stroke-width="2" d="M947.66,-655.5C944.73,-654.65 941.83,-653.81 939,-653 893.02,-639.86 840.71,-625.68 801.86,-615.3"/>
<polygon fill="grey" stroke="grey" stroke-width="2" points="802.34,-611.81 791.78,-612.61 800.54,-618.57 802.34,-611.81"/>
</g>
<!-- 34&#45;&gt;22 -->
<g id="edge46" class="edge">
<title>34&#45;&gt;22</title>
<path fill="none" stroke="grey" stroke-width="2" d="M1077.75,-655.14C1074.8,-654.38 1071.87,-653.66 1069,-653 976.46,-631.67 867.18,-615.7 801.84,-607.12"/>
<polygon fill="grey" stroke="grey" stroke-width="2" points="802.11,-603.63 791.74,-605.81 801.21,-610.57 802.11,-603.63"/>
</g>
<!-- 35&#45;&gt;22 -->
<g id="edge47" class="edge">
<title>35&#45;&gt;22</title>
<path fill="none" stroke="grey" stroke-width="2" d="M539.59,-654.49C584.84,-642.42 643.75,-626.72 686.7,-615.27"/>
<polygon fill="grey" stroke="grey" stroke-width="2" points="687.67,-618.64 696.43,-612.68 685.86,-611.87 687.67,-618.64"/>
</g>
<!-- 36&#45;&gt;22 -->
<g id="edge48" class="edge">
<title>36&#45;&gt;22</title>
<path fill="none" stroke="grey" stroke-width="2" d="M649.18,-652.88C666.21,-643.38 686.73,-631.94 704.32,-622.13"/>
<polygon fill="grey" stroke="grey" stroke-width="2" points="706.19,-625.09 713.22,-617.17 702.78,-618.98 706.19,-625.09"/>
</g>
<!-- 37&#45;&gt;24 -->
<g id="edge49" class="edge">
<title>37&#45;&gt;24</title>
<path fill="none" stroke="grey" stroke-width="2" d="M1583.18,-652.88C1600.21,-643.38 1620.73,-631.94 1638.32,-622.13"/>
<polygon fill="grey" stroke="grey" stroke-width="2" points="1640.19,-625.09 1647.22,-617.17 1636.78,-618.98 1640.19,-625.09"/>
</g>
<!-- 38&#45;&gt;24 -->
<g id="edge50" class="edge">
<title>38&#45;&gt;24</title>
<path fill="none" stroke="grey" stroke-width="2" d="M1678,-652.69C1678,-644.91 1678,-635.84 1678,-627.45"/>
<polygon fill="grey" stroke="grey" stroke-width="2" points="1681.5,-627.32 1678,-617.32 1674.5,-627.32 1681.5,-627.32"/>
</g>
<!-- 39&#45;&gt;24 -->
<g id="edge51" class="edge">
<title>39&#45;&gt;24</title>
<path fill="none" stroke="grey" stroke-width="2" d="M1777.2,-652.88C1759.3,-643.34 1737.71,-631.83 1719.26,-621.99"/>
<polygon fill="grey" stroke="grey" stroke-width="2" points="1720.67,-618.78 1710.2,-617.17 1717.38,-624.96 1720.67,-618.78"/>
</g>
<!-- 40&#45;&gt;24 -->
<g id="edge52" class="edge">
<title>40&#45;&gt;24</title>
<path fill="none" stroke="grey" stroke-width="2" d="M1893.67,-655.45C1890.74,-654.61 1887.84,-653.79 1885,-653 1834.81,-639.05 1777.4,-624.46 1735.79,-614.13"/>
<polygon fill="grey" stroke="grey" stroke-width="2" points="1736.38,-610.67 1725.83,-611.66 1734.7,-617.46 1736.38,-610.67"/>
</g>
<!-- 41&#45;&gt;24 -->
<g id="edge53" class="edge">
<title>41&#45;&gt;24</title>
<path fill="none" stroke="grey" stroke-width="2" d="M1343.53,-655.05C1346.73,-654.33 1349.89,-653.65 1353,-653 1445.98,-633.68 1555.13,-617.12 1620.32,-607.87"/>
<polygon fill="grey" stroke="grey" stroke-width="2" points="1620.99,-611.31 1630.4,-606.45 1620.01,-604.38 1620.99,-611.31"/>
</g>
<!-- 42&#45;&gt;24 -->
<g id="edge54" class="edge">
<title>42&#45;&gt;24</title>
<path fill="none" stroke="grey" stroke-width="2" d="M1474.34,-655.5C1477.27,-654.65 1480.17,-653.81 1483,-653 1528.98,-639.86 1581.29,-625.68 1620.14,-615.3"/>
<polygon fill="grey" stroke="grey" stroke-width="2" points="1621.46,-618.57 1630.22,-612.61 1619.66,-611.81 1621.46,-618.57"/>
</g>
<!-- 43 -->
<g id="node44" class="node">
<title>43</title>
<path fill="none" stroke="#d8a456" stroke-width="2" d="M927.5,-396C927.5,-396 868.5,-396 868.5,-396 862.5,-396 856.5,-390 856.5,-384 856.5,-384 856.5,-372 856.5,-372 856.5,-366 862.5,-360 868.5,-360 868.5,-360 927.5,-360 927.5,-360 933.5,-360 939.5,-366 939.5,-372 939.5,-372 939.5,-384 939.5,-384 939.5,-390 933.5,-396 927.5,-396"/>
<text text-anchor="middle" x="898" y="-375.5" font-family="sans" font-size="10.00">summarize_log</text>
</g>
<!-- 43&#45;&gt;28 -->
<g id="edge58" class="edge">
<title>43&#45;&gt;28</title>
<path fill="none" stroke="grey" stroke-width="2" d="M864,-359.88C845.4,-350.51 822.17,-338.81 802.29,-328.8"/>
<polygon fill="grey" stroke="grey" stroke-width="2" points="803.64,-325.56 793.13,-324.19 800.49,-331.81 803.64,-325.56"/>
</g>
<!-- 44 -->
<g id="node45" class="node">
<title>44</title>
<path fill="none" stroke="#d8a456" stroke-width="2" d="M491.5,-396C491.5,-396 432.5,-396 432.5,-396 426.5,-396 420.5,-390 420.5,-384 420.5,-384 420.5,-372 420.5,-372 420.5,-366 426.5,-360 432.5,-360 432.5,-360 491.5,-360 491.5,-360 497.5,-360 503.5,-366 503.5,-372 503.5,-372 503.5,-384 503.5,-384 503.5,-390 497.5,-396 491.5,-396"/>
<text text-anchor="middle" x="462" y="-375.5" font-family="sans" font-size="10.00">summarize_log</text>
</g>
<!-- 44&#45;&gt;28 -->
<g id="edge59" class="edge">
<title>44&#45;&gt;28</title>
<path fill="none" stroke="grey" stroke-width="2" d="M503.61,-367.19C555.22,-355.03 643.48,-334.23 701.53,-320.55"/>
<polygon fill="grey" stroke="grey" stroke-width="2" points="702.36,-323.95 711.29,-318.25 700.75,-317.13 702.36,-323.95"/>
</g>
<!-- 45 -->
<g id="node46" class="node">
<title>45</title>
<path fill="none" stroke="#d8a456" stroke-width="2" d="M649.5,-396C649.5,-396 590.5,-396 590.5,-396 584.5,-396 578.5,-390 578.5,-384 578.5,-384 578.5,-372 578.5,-372 578.5,-366 584.5,-360 590.5,-360 590.5,-360 649.5,-360 649.5,-360 655.5,-360 661.5,-366 661.5,-372 661.5,-372 661.5,-384 661.5,-384 661.5,-390 655.5,-396 649.5,-396"/>
<text text-anchor="middle" x="620" y="-375.5" font-family="sans" font-size="10.00">summarize_log</text>
</g>
<!-- 45&#45;&gt;28 -->
<g id="edge60" class="edge">
<title>45&#45;&gt;28</title>
<path fill="none" stroke="grey" stroke-width="2" d="M654,-359.88C672.6,-350.51 695.83,-338.81 715.71,-328.8"/>
<polygon fill="grey" stroke="grey" stroke-width="2" points="717.51,-331.81 724.87,-324.19 714.36,-325.56 717.51,-331.81"/>
</g>
<!-- 46 -->
<g id="node47" class="node">
<title>46</title>
<path fill="none" stroke="#d8a456" stroke-width="2" d="M295.5,-396C295.5,-396 236.5,-396 236.5,-396 230.5,-396 224.5,-390 224.5,-384 224.5,-384 224.5,-372 224.5,-372 224.5,-366 230.5,-360 236.5,-360 236.5,-360 295.5,-360 295.5,-360 301.5,-360 307.5,-366 307.5,-372 307.5,-372 307.5,-384 307.5,-384 307.5,-390 301.5,-396 295.5,-396"/>
<text text-anchor="middle" x="266" y="-375.5" font-family="sans" font-size="10.00">summarize_log</text>
</g>
<!-- 46&#45;&gt;28 -->
<g id="edge61" class="edge">
<title>46&#45;&gt;28</title>
<path fill="none" stroke="grey" stroke-width="2" d="M307.61,-371.09C395.59,-358.6 600.64,-329.49 701.25,-315.2"/>
<polygon fill="grey" stroke="grey" stroke-width="2" points="701.82,-318.65 711.23,-313.78 700.84,-311.72 701.82,-318.65"/>
</g>
<!-- 47 -->
<g id="node48" class="node">
<title>47</title>
<path fill="none" stroke="#d8a456" stroke-width="2" d="M788.5,-396C788.5,-396 729.5,-396 729.5,-396 723.5,-396 717.5,-390 717.5,-384 717.5,-384 717.5,-372 717.5,-372 717.5,-366 723.5,-360 729.5,-360 729.5,-360 788.5,-360 788.5,-360 794.5,-360 800.5,-366 800.5,-372 800.5,-372 800.5,-384 800.5,-384 800.5,-390 794.5,-396 788.5,-396"/>
<text text-anchor="middle" x="759" y="-375.5" font-family="sans" font-size="10.00">summarize_log</text>
</g>
<!-- 47&#45;&gt;28 -->
<g id="edge62" class="edge">
<title>47&#45;&gt;28</title>
<path fill="none" stroke="grey" stroke-width="2" d="M759,-359.7C759,-351.98 759,-342.71 759,-334.11"/>
<polygon fill="grey" stroke="grey" stroke-width="2" points="762.5,-334.1 759,-324.1 755.5,-334.1 762.5,-334.1"/>
</g>
<!-- 48 -->
<g id="node49" class="node">
<title>48</title>
<path fill="none" stroke="#d8a456" stroke-width="2" d="M2302.5,-396C2302.5,-396 2243.5,-396 2243.5,-396 2237.5,-396 2231.5,-390 2231.5,-384 2231.5,-384 2231.5,-372 2231.5,-372 2231.5,-366 2237.5,-360 2243.5,-360 2243.5,-360 2302.5,-360 2302.5,-360 2308.5,-360 2314.5,-366 2314.5,-372 2314.5,-372 2314.5,-384 2314.5,-384 2314.5,-390 2308.5,-396 2302.5,-396"/>
<text text-anchor="middle" x="2273" y="-375.5" font-family="sans" font-size="10.00">summarize_log</text>
</g>
<!-- 48&#45;&gt;29 -->
<g id="edge63" class="edge">
<title>48&#45;&gt;29</title>
<path fill="none" stroke="grey" stroke-width="2" d="M2307,-359.88C2325.6,-350.51 2348.83,-338.81 2368.71,-328.8"/>
<polygon fill="grey" stroke="grey" stroke-width="2" points="2370.51,-331.81 2377.87,-324.19 2367.36,-325.56 2370.51,-331.81"/>
</g>
<!-- 49 -->
<g id="node50" class="node">
<title>49</title>
<path fill="none" stroke="#d8a456" stroke-width="2" d="M2441.5,-396C2441.5,-396 2382.5,-396 2382.5,-396 2376.5,-396 2370.5,-390 2370.5,-384 2370.5,-384 2370.5,-372 2370.5,-372 2370.5,-366 2376.5,-360 2382.5,-360 2382.5,-360 2441.5,-360 2441.5,-360 2447.5,-360 2453.5,-366 2453.5,-372 2453.5,-372 2453.5,-384 2453.5,-384 2453.5,-390 2447.5,-396 2441.5,-396"/>
<text text-anchor="middle" x="2412" y="-375.5" font-family="sans" font-size="10.00">summarize_log</text>
</g>
<!-- 49&#45;&gt;29 -->
<g id="edge64" class="edge">
<title>49&#45;&gt;29</title>
<path fill="none" stroke="grey" stroke-width="2" d="M2412,-359.7C2412,-351.98 2412,-342.71 2412,-334.11"/>
<polygon fill="grey" stroke="grey" stroke-width="2" points="2415.5,-334.1 2412,-324.1 2408.5,-334.1 2415.5,-334.1"/>
</g>
<!-- 50 -->
<g id="node51" class="node">
<title>50</title>
<path fill="none" stroke="#d8a456" stroke-width="2" d="M2580.5,-396C2580.5,-396 2521.5,-396 2521.5,-396 2515.5,-396 2509.5,-390 2509.5,-384 2509.5,-384 2509.5,-372 2509.5,-372 2509.5,-366 2515.5,-360 2521.5,-360 2521.5,-360 2580.5,-360 2580.5,-360 2586.5,-360 2592.5,-366 2592.5,-372 2592.5,-372 2592.5,-384 2592.5,-384 2592.5,-390 2586.5,-396 2580.5,-396"/>
<text text-anchor="middle" x="2551" y="-375.5" font-family="sans" font-size="10.00">summarize_log</text>
</g>
<!-- 50&#45;&gt;29 -->
<g id="edge65" class="edge">
<title>50&#45;&gt;29</title>
<path fill="none" stroke="grey" stroke-width="2" d="M2517,-359.88C2498.4,-350.51 2475.17,-338.81 2455.29,-328.8"/>
<polygon fill="grey" stroke="grey" stroke-width="2" points="2456.64,-325.56 2446.13,-324.19 2453.49,-331.81 2456.64,-325.56"/>
</g>
<!-- 51 -->
<g id="node52" class="node">
<title>51</title>
<path fill="none" stroke="#d8a456" stroke-width="2" d="M2738.5,-396C2738.5,-396 2679.5,-396 2679.5,-396 2673.5,-396 2667.5,-390 2667.5,-384 2667.5,-384 2667.5,-372 2667.5,-372 2667.5,-366 2673.5,-360 2679.5,-360 2679.5,-360 2738.5,-360 2738.5,-360 2744.5,-360 2750.5,-366 2750.5,-372 2750.5,-372 2750.5,-384 2750.5,-384 2750.5,-390 2744.5,-396 2738.5,-396"/>
<text text-anchor="middle" x="2709" y="-375.5" font-family="sans" font-size="10.00">summarize_log</text>
</g>
<!-- 51&#45;&gt;29 -->
<g id="edge66" class="edge">
<title>51&#45;&gt;29</title>
<path fill="none" stroke="grey" stroke-width="2" d="M2667.39,-367.19C2615.78,-355.03 2527.52,-334.23 2469.47,-320.55"/>
<polygon fill="grey" stroke="grey" stroke-width="2" points="2470.25,-317.13 2459.71,-318.25 2468.64,-323.95 2470.25,-317.13"/>
</g>
<!-- 52 -->
<g id="node53" class="node">
<title>52</title>
<path fill="none" stroke="#d8a456" stroke-width="2" d="M2905.5,-396C2905.5,-396 2846.5,-396 2846.5,-396 2840.5,-396 2834.5,-390 2834.5,-384 2834.5,-384 2834.5,-372 2834.5,-372 2834.5,-366 2840.5,-360 2846.5,-360 2846.5,-360 2905.5,-360 2905.5,-360 2911.5,-360 2917.5,-366 2917.5,-372 2917.5,-372 2917.5,-384 2917.5,-384 2917.5,-390 2911.5,-396 2905.5,-396"/>
<text text-anchor="middle" x="2876" y="-375.5" font-family="sans" font-size="10.00">summarize_log</text>
</g>
<!-- 52&#45;&gt;29 -->
<g id="edge67" class="edge">
<title>52&#45;&gt;29</title>
<path fill="none" stroke="grey" stroke-width="2" d="M2834.41,-370.73C2751.36,-358.2 2564.78,-330.05 2469.85,-315.73"/>
<polygon fill="grey" stroke="grey" stroke-width="2" points="2470.26,-312.25 2459.85,-314.22 2469.21,-319.17 2470.26,-312.25"/>
</g>
<!-- 53 -->
<g id="node54" class="node">
<title>53</title>
<path fill="none" stroke="#d8a456" stroke-width="2" d="M1665.5,-396C1665.5,-396 1606.5,-396 1606.5,-396 1600.5,-396 1594.5,-390 1594.5,-384 1594.5,-384 1594.5,-372 1594.5,-372 1594.5,-366 1600.5,-360 1606.5,-360 1606.5,-360 1665.5,-360 1665.5,-360 1671.5,-360 1677.5,-366 1677.5,-372 1677.5,-372 1677.5,-384 1677.5,-384 1677.5,-390 1671.5,-396 1665.5,-396"/>
<text text-anchor="middle" x="1636" y="-375.5" font-family="sans" font-size="10.00">summarize_log</text>
</g>
<!-- 53&#45;&gt;30 -->
<g id="edge68" class="edge">
<title>53&#45;&gt;30</title>
<path fill="none" stroke="grey" stroke-width="2" d="M1623.39,-359.7C1617.4,-351.47 1610.12,-341.48 1603.52,-332.42"/>
<polygon fill="grey" stroke="grey" stroke-width="2" points="1606.18,-330.13 1597.46,-324.1 1600.52,-334.25 1606.18,-330.13"/>
</g>
<!-- 54 -->
<g id="node55" class="node">
<title>54</title>
<path fill="none" stroke="#d8a456" stroke-width="2" d="M1377.5,-396C1377.5,-396 1318.5,-396 1318.5,-396 1312.5,-396 1306.5,-390 1306.5,-384 1306.5,-384 1306.5,-372 1306.5,-372 1306.5,-366 1312.5,-360 1318.5,-360 1318.5,-360 1377.5,-360 1377.5,-360 1383.5,-360 1389.5,-366 1389.5,-372 1389.5,-372 1389.5,-384 1389.5,-384 1389.5,-390 1383.5,-396 1377.5,-396"/>
<text text-anchor="middle" x="1348" y="-375.5" font-family="sans" font-size="10.00">summarize_log</text>
</g>
<!-- 54&#45;&gt;30 -->
<g id="edge69" class="edge">
<title>54&#45;&gt;30</title>
<path fill="none" stroke="grey" stroke-width="2" d="M1389.55,-364.73C1427.86,-353.41 1485.06,-336.52 1527.69,-323.93"/>
<polygon fill="grey" stroke="grey" stroke-width="2" points="1528.78,-327.26 1537.37,-321.07 1526.79,-320.54 1528.78,-327.26"/>
</g>
<!-- 55 -->
<g id="node56" class="node">
<title>55</title>
<path fill="none" stroke="#d8a456" stroke-width="2" d="M1233.5,-396C1233.5,-396 1174.5,-396 1174.5,-396 1168.5,-396 1162.5,-390 1162.5,-384 1162.5,-384 1162.5,-372 1162.5,-372 1162.5,-366 1168.5,-360 1174.5,-360 1174.5,-360 1233.5,-360 1233.5,-360 1239.5,-360 1245.5,-366 1245.5,-372 1245.5,-372 1245.5,-384 1245.5,-384 1245.5,-390 1239.5,-396 1233.5,-396"/>
<text text-anchor="middle" x="1204" y="-375.5" font-family="sans" font-size="10.00">summarize_log</text>
</g>
<!-- 55&#45;&gt;30 -->
<g id="edge70" class="edge">
<title>55&#45;&gt;30</title>
<path fill="none" stroke="grey" stroke-width="2" d="M1245.86,-369.31C1314.22,-356.75 1449.93,-331.82 1527.35,-317.59"/>
<polygon fill="grey" stroke="grey" stroke-width="2" points="1528.21,-320.99 1537.41,-315.74 1526.94,-314.11 1528.21,-320.99"/>
</g>
<!-- 56 -->
<g id="node57" class="node">
<title>56</title>
<path fill="none" stroke="#d8a456" stroke-width="2" d="M1542.5,-396C1542.5,-396 1483.5,-396 1483.5,-396 1477.5,-396 1471.5,-390 1471.5,-384 1471.5,-384 1471.5,-372 1471.5,-372 1471.5,-366 1477.5,-360 1483.5,-360 1483.5,-360 1542.5,-360 1542.5,-360 1548.5,-360 1554.5,-366 1554.5,-372 1554.5,-372 1554.5,-384 1554.5,-384 1554.5,-390 1548.5,-396 1542.5,-396"/>
<text text-anchor="middle" x="1513" y="-375.5" font-family="sans" font-size="10.00">summarize_log</text>
</g>
<!-- 56&#45;&gt;30 -->
<g id="edge71" class="edge">
<title>56&#45;&gt;30</title>
<path fill="none" stroke="grey" stroke-width="2" d="M1530.8,-359.7C1539.6,-351.14 1550.38,-340.66 1560,-331.3"/>
<polygon fill="grey" stroke="grey" stroke-width="2" points="1562.68,-333.58 1567.41,-324.1 1557.8,-328.57 1562.68,-333.58"/>
</g>
<!-- 57 -->
<g id="node58" class="node">
<title>57</title>
<path fill="none" stroke="#d8a456" stroke-width="2" d="M1831.5,-396C1831.5,-396 1772.5,-396 1772.5,-396 1766.5,-396 1760.5,-390 1760.5,-384 1760.5,-384 1760.5,-372 1760.5,-372 1760.5,-366 1766.5,-360 1772.5,-360 1772.5,-360 1831.5,-360 1831.5,-360 1837.5,-360 1843.5,-366 1843.5,-372 1843.5,-372 1843.5,-384 1843.5,-384 1843.5,-390 1837.5,-396 1831.5,-396"/>
<text text-anchor="middle" x="1802" y="-375.5" font-family="sans" font-size="10.00">summarize_log</text>
</g>
<!-- 57&#45;&gt;30 -->
<g id="edge72" class="edge">
<title>57&#45;&gt;30</title>
<path fill="none" stroke="grey" stroke-width="2" d="M1760.42,-363.59C1726.98,-352.8 1679.63,-337.52 1642.55,-325.56"/>
<polygon fill="grey" stroke="grey" stroke-width="2" points="1643.46,-322.18 1632.87,-322.44 1641.31,-328.84 1643.46,-322.18"/>
</g>
<!-- 58 -->
<g id="node59" class="node">
<title>58</title>
<path fill="none" stroke="#ced856" stroke-width="2" d="M1200,-766C1200,-766 1170,-766 1170,-766 1164,-766 1158,-760 1158,-754 1158,-754 1158,-742 1158,-742 1158,-736 1164,-730 1170,-730 1170,-730 1200,-730 1200,-730 1206,-730 1212,-736 1212,-742 1212,-742 1212,-754 1212,-754 1212,-760 1206,-766 1200,-766"/>
<text text-anchor="middle" x="1185" y="-745.5" font-family="sans" font-size="10.00">mask</text>
</g>
<!-- 58&#45;&gt;31 -->
<g id="edge73" class="edge">
<title>58&#45;&gt;31</title>
<path fill="none" stroke="grey" stroke-width="2" d="M1157.85,-744.6C1097.14,-738.92 945.75,-723.09 810.37,-694.14"/>
<polygon fill="grey" stroke="grey" stroke-width="2" points="810.75,-690.64 800.23,-691.94 809.26,-697.48 810.75,-690.64"/>
</g>
<!-- 58&#45;&gt;32 -->
<g id="edge75" class="edge">
<title>58&#45;&gt;32</title>
<path fill="none" stroke="grey" stroke-width="2" d="M1157.9,-741.89C1114.09,-733.48 1024.85,-715.69 940.07,-694.19"/>
<polygon fill="grey" stroke="grey" stroke-width="2" points="940.85,-690.77 930.29,-691.69 939.11,-697.56 940.85,-690.77"/>
</g>
<!-- 58&#45;&gt;33 -->
<g id="edge77" class="edge">
<title>58&#45;&gt;33</title>
<path fill="none" stroke="grey" stroke-width="2" d="M1157.9,-736.15C1132.68,-726.04 1094.25,-710.65 1062.11,-697.78"/>
<polygon fill="grey" stroke="grey" stroke-width="2" points="1063.38,-694.51 1052.79,-694.04 1060.77,-701.01 1063.38,-694.51"/>
</g>
<!-- 58&#45;&gt;34 -->
<g id="edge79" class="edge">
<title>58&#45;&gt;34</title>
<path fill="none" stroke="grey" stroke-width="2" d="M1172.91,-729.82C1167.14,-721.61 1160.08,-711.58 1153.57,-702.33"/>
<polygon fill="grey" stroke="grey" stroke-width="2" points="1156.42,-700.28 1147.8,-694.12 1150.69,-704.31 1156.42,-700.28"/>
</g>
<!-- 58&#45;&gt;35 -->
<g id="edge81" class="edge">
<title>58&#45;&gt;35</title>
<path fill="none" stroke="grey" stroke-width="2" d="M1157.84,-746.34C1070.71,-743.87 790.4,-733.33 549.87,-693.99"/>
<polygon fill="grey" stroke="grey" stroke-width="2" points="550.33,-690.52 539.89,-692.34 549.19,-697.43 550.33,-690.52"/>
</g>
<!-- 58&#45;&gt;36 -->
<g id="edge83" class="edge">
<title>58&#45;&gt;36</title>
<path fill="none" stroke="grey" stroke-width="2" d="M1157.85,-745.94C1082.99,-742.65 867.33,-730.64 680.22,-694.05"/>
<polygon fill="grey" stroke="grey" stroke-width="2" points="680.7,-690.58 670.21,-692.06 679.33,-697.44 680.7,-690.58"/>
</g>
<!-- 58&#45;&gt;37 -->
<g id="edge85" class="edge">
<title>58&#45;&gt;37</title>
<path fill="none" stroke="grey" stroke-width="2" d="M1212.33,-743.22C1263.47,-735.91 1377.18,-718.58 1481.95,-694.12"/>
<polygon fill="grey" stroke="grey" stroke-width="2" points="1482.81,-697.52 1491.74,-691.81 1481.2,-690.7 1482.81,-697.52"/>
</g>
<!-- 58&#45;&gt;38 -->
<g id="edge87" class="edge">
<title>58&#45;&gt;38</title>
<path fill="none" stroke="grey" stroke-width="2" d="M1212.3,-745.22C1279.03,-740.53 1455.72,-726.08 1611.55,-694.13"/>
<polygon fill="grey" stroke="grey" stroke-width="2" points="1612.7,-697.46 1621.78,-692 1611.28,-690.61 1612.7,-697.46"/>
</g>
<!-- 58&#45;&gt;39 -->
<g id="edge89" class="edge">
<title>58&#45;&gt;39</title>
<path fill="none" stroke="grey" stroke-width="2" d="M1212.23,-746.08C1292.25,-743.05 1533.58,-731.36 1741.91,-694.04"/>
<polygon fill="grey" stroke="grey" stroke-width="2" points="1742.59,-697.47 1751.8,-692.24 1741.34,-690.58 1742.59,-697.47"/>
</g>
<!-- 58&#45;&gt;40 -->
<g id="edge91" class="edge">
<title>58&#45;&gt;40</title>
<path fill="none" stroke="grey" stroke-width="2" d="M1212.3,-747.04C1305.32,-746.74 1618.38,-742.1 1883.61,-694.04"/>
<polygon fill="grey" stroke="grey" stroke-width="2" points="1884.61,-697.42 1893.81,-692.17 1883.34,-690.53 1884.61,-697.42"/>
</g>
<!-- 58&#45;&gt;41 -->
<g id="edge93" class="edge">
<title>58&#45;&gt;41</title>
<path fill="none" stroke="grey" stroke-width="2" d="M1206.57,-729.82C1217.6,-721.03 1231.27,-710.14 1243.55,-700.36"/>
<polygon fill="grey" stroke="grey" stroke-width="2" points="1245.73,-703.09 1251.37,-694.12 1241.37,-697.61 1245.73,-703.09"/>
</g>
<!-- 58&#45;&gt;42 -->
<g id="edge95" class="edge">
<title>58&#45;&gt;42</title>
<path fill="none" stroke="grey" stroke-width="2" d="M1212.18,-738.54C1246.25,-727.94 1305.79,-709.41 1352.1,-695.01"/>
<polygon fill="grey" stroke="grey" stroke-width="2" points="1353.26,-698.31 1361.76,-692 1351.18,-691.63 1353.26,-698.31"/>
</g>
<!-- 59&#45;&gt;43 -->
<g id="edge97" class="edge">
<title>59&#45;&gt;43</title>
<path fill="none" stroke="grey" stroke-width="2" d="M925.62,-431.69C921.36,-423.56 916.36,-414.03 911.8,-405.33"/>
<polygon fill="grey" stroke="grey" stroke-width="2" points="914.82,-403.55 907.08,-396.32 908.62,-406.8 914.82,-403.55"/>
</g>
<!-- 60&#45;&gt;44 -->
<g id="edge98" class="edge">
<title>60&#45;&gt;44</title>
<path fill="none" stroke="grey" stroke-width="2" d="M420.58,-431.69C427.24,-423.21 435.1,-413.22 442.17,-404.23"/>
<polygon fill="grey" stroke="grey" stroke-width="2" points="444.95,-406.34 448.38,-396.32 439.45,-402.02 444.95,-406.34"/>
</g>
<!-- 61&#45;&gt;45 -->
<g id="edge99" class="edge">
<title>61&#45;&gt;45</title>
<path fill="none" stroke="grey" stroke-width="2" d="M592.38,-431.69C596.64,-423.56 601.64,-414.03 606.2,-405.33"/>
<polygon fill="grey" stroke="grey" stroke-width="2" points="609.38,-406.8 610.92,-396.32 603.18,-403.55 609.38,-406.8"/>
</g>
<!-- 62&#45;&gt;46 -->
<g id="edge100" class="edge">
<title>62&#45;&gt;46</title>
<path fill="none" stroke="grey" stroke-width="2" d="M238.38,-431.69C242.64,-423.56 247.64,-414.03 252.2,-405.33"/>
<polygon fill="grey" stroke="grey" stroke-width="2" points="255.38,-406.8 256.92,-396.32 249.18,-403.55 255.38,-406.8"/>
</g>
<!-- 63&#45;&gt;47 -->
<g id="edge101" class="edge">
<title>63&#45;&gt;47</title>
<path fill="none" stroke="grey" stroke-width="2" d="M759,-431.69C759,-423.91 759,-414.84 759,-406.45"/>
<polygon fill="grey" stroke="grey" stroke-width="2" points="762.5,-406.32 759,-396.32 755.5,-406.32 762.5,-406.32"/>
</g>
<!-- 64&#45;&gt;48 -->
<g id="edge102" class="edge">
<title>64&#45;&gt;48</title>
<path fill="none" stroke="grey" stroke-width="2" d="M2245.38,-431.69C2249.64,-423.56 2254.64,-414.03 2259.2,-405.33"/>
<polygon fill="grey" stroke="grey" stroke-width="2" points="2262.38,-406.8 2263.92,-396.32 2256.18,-403.55 2262.38,-406.8"/>
</g>
<!-- 65&#45;&gt;49 -->
<g id="edge103" class="edge">
<title>65&#45;&gt;49</title>
<path fill="none" stroke="grey" stroke-width="2" d="M2412,-431.69C2412,-423.91 2412,-414.84 2412,-406.45"/>
<polygon fill="grey" stroke="grey" stroke-width="2" points="2415.5,-406.32 2412,-396.32 2408.5,-406.32 2415.5,-406.32"/>
</g>
<!-- 66&#45;&gt;50 -->
<g id="edge104" class="edge">
<title>66&#45;&gt;50</title>
<path fill="none" stroke="grey" stroke-width="2" d="M2578.62,-431.69C2574.36,-423.56 2569.36,-414.03 2564.8,-405.33"/>
<polygon fill="grey" stroke="grey" stroke-width="2" points="2567.82,-403.55 2560.08,-396.32 2561.62,-406.8 2567.82,-403.55"/>
</g>
<!-- 67&#45;&gt;51 -->
<g id="edge105" class="edge">
<title>67&#45;&gt;51</title>
<path fill="none" stroke="grey" stroke-width="2" d="M2750.42,-431.69C2743.76,-423.21 2735.9,-413.22 2728.83,-404.23"/>
<polygon fill="grey" stroke="grey" stroke-width="2" points="2731.55,-402.02 2722.62,-396.32 2726.05,-406.34 2731.55,-402.02"/>
</g>
<!-- 68&#45;&gt;52 -->
<g id="edge106" class="edge">
<title>68&#45;&gt;52</title>
<path fill="none" stroke="grey" stroke-width="2" d="M2924.69,-431.69C2916.7,-423.04 2907.25,-412.81 2898.8,-403.68"/>
<polygon fill="grey" stroke="grey" stroke-width="2" points="2901.36,-401.29 2892.01,-396.32 2896.22,-406.04 2901.36,-401.29"/>
</g>
<!-- 69&#45;&gt;53 -->
<g id="edge107" class="edge">
<title>69&#45;&gt;53</title>
<path fill="none" stroke="grey" stroke-width="2" d="M1667.25,-431.69C1662.38,-423.47 1656.66,-413.83 1651.45,-405.05"/>
<polygon fill="grey" stroke="grey" stroke-width="2" points="1654.38,-403.14 1646.27,-396.32 1648.36,-406.71 1654.38,-403.14"/>
</g>
<!-- 70&#45;&gt;54 -->
<g id="edge108" class="edge">
<title>70&#45;&gt;54</title>
<path fill="none" stroke="grey" stroke-width="2" d="M1316.75,-431.69C1321.62,-423.47 1327.34,-413.83 1332.55,-405.05"/>
<polygon fill="grey" stroke="grey" stroke-width="2" points="1335.64,-406.71 1337.73,-396.32 1329.62,-403.14 1335.64,-406.71"/>
</g>
<!-- 71&#45;&gt;55 -->
<g id="edge109" class="edge">
<title>71&#45;&gt;55</title>
<path fill="none" stroke="grey" stroke-width="2" d="M1141.5,-431.69C1152.14,-422.72 1164.81,-412.04 1175.95,-402.65"/>
<polygon fill="grey" stroke="grey" stroke-width="2" points="1178.35,-405.2 1183.74,-396.08 1173.84,-399.85 1178.35,-405.2"/>
</g>
<!-- 72&#45;&gt;56 -->
<g id="edge110" class="edge">
<title>72&#45;&gt;56</title>
<path fill="none" stroke="grey" stroke-width="2" d="M1497.74,-431.69C1500.02,-423.82 1502.68,-414.64 1505.13,-406.17"/>
<polygon fill="grey" stroke="grey" stroke-width="2" points="1508.56,-406.9 1507.98,-396.32 1501.84,-404.95 1508.56,-406.9"/>
</g>
<!-- 73&#45;&gt;57 -->
<g id="edge111" class="edge">
<title>73&#45;&gt;57</title>
<path fill="none" stroke="grey" stroke-width="2" d="M1848.51,-431.69C1840.95,-423.13 1832.03,-413.02 1824.03,-403.95"/>
<polygon fill="grey" stroke="grey" stroke-width="2" points="1826.53,-401.5 1817.29,-396.32 1821.28,-406.13 1826.53,-401.5"/>
</g>
<!-- 74&#45;&gt;58 -->
<g id="edge112" class="edge">
<title>74&#45;&gt;58</title>
<path fill="none" stroke="grey" stroke-width="2" d="M1185,-801.7C1185,-793.98 1185,-784.71 1185,-776.11"/>
<polygon fill="grey" stroke="grey" stroke-width="2" points="1188.5,-776.1 1185,-766.1 1181.5,-776.1 1188.5,-776.1"/>
</g>
<!-- 75 -->
<g id="node76" class="node">
<title>75</title>
<path fill="none" stroke="#56d86b" stroke-width="2" d="M1290,-982C1290,-982 1202,-982 1202,-982 1196,-982 1190,-976 1190,-970 1190,-970 1190,-958 1190,-958 1190,-952 1196,-946 1202,-946 1202,-946 1290,-946 1290,-946 1296,-946 1302,-952 1302,-958 1302,-958 1302,-970 1302,-970 1302,-976 1296,-982 1290,-982"/>
<text text-anchor="middle" x="1246" y="-961.5" font-family="sans" font-size="10.00">aggregate_alignments</text>
</g>
<!-- 75&#45;&gt;74 -->
<g id="edge128" class="edge">
<title>75&#45;&gt;74</title>
<path fill="none" stroke="grey" stroke-width="2" d="M1243.81,-945.94C1240.99,-927.51 1235.08,-897.63 1224,-874 1219.42,-864.22 1212.9,-854.44 1206.51,-845.99"/>
<polygon fill="grey" stroke="grey" stroke-width="2" points="1209.17,-843.72 1200.23,-838.04 1203.68,-848.06 1209.17,-843.72"/>
</g>
<!-- 75&#45;&gt;76 -->
<g id="edge132" class="edge">
<title>75&#45;&gt;76</title>
<path fill="none" stroke="grey" stroke-width="2" d="M1230.92,-945.7C1223.61,-937.3 1214.69,-927.07 1206.66,-917.86"/>
<polygon fill="grey" stroke="grey" stroke-width="2" points="1209.11,-915.34 1199.91,-910.1 1203.84,-919.94 1209.11,-915.34"/>
</g>
<!-- 76&#45;&gt;74 -->
<g id="edge130" class="edge">
<title>76&#45;&gt;74</title>
<path fill="none" stroke="grey" stroke-width="2" d="M1185,-873.7C1185,-865.98 1185,-856.71 1185,-848.11"/>
<polygon fill="grey" stroke="grey" stroke-width="2" points="1188.5,-848.1 1185,-838.1 1181.5,-848.1 1188.5,-848.1"/>
</g>
<!-- 77 -->
<g id="node78" class="node">
<title>77</title>
<path fill="none" stroke="#5692d8" stroke-width="2" d="M1284,-1054C1284,-1054 1204,-1054 1204,-1054 1198,-1054 1192,-1048 1192,-1042 1192,-1042 1192,-1030 1192,-1030 1192,-1024 1198,-1018 1204,-1018 1204,-1018 1284,-1018 1284,-1018 1290,-1018 1296,-1024 1296,-1030 1296,-1030 1296,-1042 1296,-1042 1296,-1048 1290,-1054 1284,-1054"/>
<text text-anchor="middle" x="1244" y="-1033.5" font-family="sans" font-size="10.00">partition_sequences</text>
</g>
<!-- 77&#45;&gt;75 -->
<g id="edge131" class="edge">
<title>77&#45;&gt;75</title>
<path fill="none" stroke="grey" stroke-width="2" d="M1244.49,-1017.7C1244.71,-1009.98 1244.98,-1000.71 1245.23,-992.11"/>
<polygon fill="grey" stroke="grey" stroke-width="2" points="1248.72,-992.2 1245.51,-982.1 1241.73,-992 1248.72,-992.2"/>
</g>
<!-- 78&#45;&gt;77 -->
<g id="edge134" class="edge">
<title>78&#45;&gt;77</title>
<path fill="none" stroke="grey" stroke-width="2" d="M1233.46,-1089.7C1235,-1081.98 1236.86,-1072.71 1238.58,-1064.11"/>
<polygon fill="grey" stroke="grey" stroke-width="2" points="1242.05,-1064.6 1240.58,-1054.1 1235.19,-1063.22 1242.05,-1064.6"/>
</g>
</g>
</svg>
