<?xml version="1.0" encoding="UTF-8" standalone="no"?>
<!DOCTYPE svg PUBLIC "-//W3C//DTD SVG 1.1//EN"
 "http://www.w3.org/Graphics/SVG/1.1/DTD/svg11.dtd">
<!-- Generated by graphviz version 2.44.1 (20200629.0846)
 -->
<!-- Title: snakemake_dag Pages: 1 -->
<svg width="826pt" height="1134pt"
 viewBox="0.00 0.00 826.00 1134.00" xmlns="http://www.w3.org/2000/svg" xmlns:xlink="http://www.w3.org/1999/xlink">
<g id="graph0" class="graph" transform="scale(1 1) rotate(0) translate(4 1130)">
<title>snakemake_dag</title>
<polygon fill="white" stroke="transparent" points="-4,4 -4,-1130 822,-1130 822,4 -4,4"/>
<!-- 0 -->
<g id="node1" class="node">
<title>0</title>
<path fill="none" stroke="#d88556" stroke-width="2" d="M439,-36C439,-36 409,-36 409,-36 403,-36 397,-30 397,-24 397,-24 397,-12 397,-12 397,-6 403,0 409,0 409,0 439,0 439,0 445,0 451,-6 451,-12 451,-12 451,-24 451,-24 451,-30 445,-36 439,-36"/>
<text text-anchor="middle" x="424" y="-15.5" font-family="sans" font-size="10.00">all</text>
</g>
<!-- 1 -->
<g id="node2" class="node">
<title>1</title>
<path fill="none" stroke="#5682d8" stroke-width="2" d="M346,-324C346,-324 316,-324 316,-324 310,-324 304,-318 304,-312 304,-312 304,-300 304,-300 304,-294 310,-288 316,-288 316,-288 346,-288 346,-288 352,-288 358,-294 358,-300 358,-300 358,-312 358,-312 358,-318 352,-324 346,-324"/>
<text text-anchor="middle" x="331" y="-303.5" font-family="sans" font-size="10.00">refine</text>
</g>
<!-- 1&#45;&gt;0 -->
<g id="edge1" class="edge">
<title>1&#45;&gt;0</title>
<path fill="none" stroke="grey" stroke-width="2" d="M327.79,-287.79C321.13,-247.17 309.6,-143.34 350,-72 358.64,-56.74 373.7,-44.75 387.98,-36.07"/>
<polygon fill="grey" stroke="grey" stroke-width="2" points="389.76,-39.08 396.71,-31.08 386.29,-33 389.76,-39.08"/>
</g>
<!-- 2 -->
<g id="node3" class="node">
<title>2</title>
<path fill="none" stroke="#a7d856" stroke-width="2" d="M587,-108C587,-108 519,-108 519,-108 513,-108 507,-102 507,-96 507,-96 507,-84 507,-84 507,-78 513,-72 519,-72 519,-72 587,-72 587,-72 593,-72 599,-78 599,-84 599,-84 599,-96 599,-96 599,-102 593,-108 587,-108"/>
<text text-anchor="middle" x="553" y="-87.5" font-family="sans" font-size="10.00">summarize_trees</text>
</g>
<!-- 2&#45;&gt;0 -->
<g id="edge2" class="edge">
<title>2&#45;&gt;0</title>
<path fill="none" stroke="grey" stroke-width="2" d="M521.44,-71.88C502.9,-61.81 479.39,-49.05 460.1,-38.59"/>
<polygon fill="grey" stroke="grey" stroke-width="2" points="461.76,-35.51 451.3,-33.81 458.42,-41.66 461.76,-35.51"/>
</g>
<!-- 3 -->
<g id="node4" class="node">
<title>3</title>
<path fill="none" stroke="#8fd856" stroke-width="2" d="M477,-108C477,-108 371,-108 371,-108 365,-108 359,-102 359,-96 359,-96 359,-84 359,-84 359,-78 365,-72 371,-72 371,-72 477,-72 477,-72 483,-72 489,-78 489,-84 489,-84 489,-96 489,-96 489,-102 483,-108 477,-108"/>
<text text-anchor="middle" x="424" y="-87.5" font-family="sans" font-size="10.00">summarize_combined_log</text>
</g>
<!-- 3&#45;&gt;0 -->
<g id="edge3" class="edge">
<title>3&#45;&gt;0</title>
<path fill="none" stroke="grey" stroke-width="2" d="M424,-71.7C424,-63.98 424,-54.71 424,-46.11"/>
<polygon fill="grey" stroke="grey" stroke-width="2" points="427.5,-46.1 424,-36.1 420.5,-46.1 427.5,-46.1"/>
</g>
<!-- 4 -->
<g id="node5" class="node">
<title>4</title>
<path fill="none" stroke="#56d863" stroke-width="2" d="M401,-398.5C401,-398.5 371,-398.5 371,-398.5 365,-398.5 359,-392.5 359,-386.5 359,-386.5 359,-374.5 359,-374.5 359,-368.5 365,-362.5 371,-362.5 371,-362.5 401,-362.5 401,-362.5 407,-362.5 413,-368.5 413,-374.5 413,-374.5 413,-386.5 413,-386.5 413,-392.5 407,-398.5 401,-398.5"/>
<text text-anchor="middle" x="386" y="-378" font-family="sans" font-size="10.00">tree</text>
</g>
<!-- 4&#45;&gt;1 -->
<g id="edge4" class="edge">
<title>4&#45;&gt;1</title>
<path fill="none" stroke="grey" stroke-width="2" d="M372.97,-362.32C366.12,-353.29 357.59,-342.05 350.02,-332.07"/>
<polygon fill="grey" stroke="grey" stroke-width="2" points="352.77,-329.91 343.94,-324.06 347.2,-334.14 352.77,-329.91"/>
</g>
<!-- 5 -->
<g id="node6" class="node">
<title>5</title>
<path fill="none" stroke="#56d8d0" stroke-width="2" d="M456.5,-545C456.5,-545 385.5,-545 385.5,-545 379.5,-545 373.5,-539 373.5,-533 373.5,-533 373.5,-521 373.5,-521 373.5,-515 379.5,-509 385.5,-509 385.5,-509 456.5,-509 456.5,-509 462.5,-509 468.5,-515 468.5,-521 468.5,-521 468.5,-533 468.5,-533 468.5,-539 462.5,-545 456.5,-545"/>
<text text-anchor="middle" x="421" y="-524.5" font-family="sans" font-size="10.00">combine_samples</text>
</g>
<!-- 5&#45;&gt;1 -->
<g id="edge5" class="edge">
<title>5&#45;&gt;1</title>
<path fill="none" stroke="grey" stroke-width="2" d="M408.77,-508.66C392.86,-485.3 365.3,-441.91 350,-401 341.87,-379.26 336.96,-353.32 334.17,-334.2"/>
<polygon fill="grey" stroke="grey" stroke-width="2" points="337.61,-333.53 332.8,-324.09 330.68,-334.47 337.61,-333.53"/>
</g>
<!-- 9 -->
<g id="node10" class="node">
<title>9</title>
<path fill="none" stroke="#61d856" stroke-width="2" d="M540.5,-473C540.5,-473 481.5,-473 481.5,-473 475.5,-473 469.5,-467 469.5,-461 469.5,-461 469.5,-449 469.5,-449 469.5,-443 475.5,-437 481.5,-437 481.5,-437 540.5,-437 540.5,-437 546.5,-437 552.5,-443 552.5,-449 552.5,-449 552.5,-461 552.5,-461 552.5,-467 546.5,-473 540.5,-473"/>
<text text-anchor="middle" x="511" y="-452.5" font-family="sans" font-size="10.00">replace_names</text>
</g>
<!-- 5&#45;&gt;9 -->
<g id="edge18" class="edge">
<title>5&#45;&gt;9</title>
<path fill="none" stroke="grey" stroke-width="2" d="M443.25,-508.7C454.58,-499.88 468.53,-489.03 480.82,-479.47"/>
<polygon fill="grey" stroke="grey" stroke-width="2" points="483.26,-482.01 489.01,-473.1 478.97,-476.48 483.26,-482.01"/>
</g>
<!-- 6 -->
<g id="node7" class="node">
<title>6</title>
<path fill="none" stroke="#d6d856" stroke-width="2" stroke-dasharray="5,2" d="M428,-1126C428,-1126 398,-1126 398,-1126 392,-1126 386,-1120 386,-1114 386,-1114 386,-1102 386,-1102 386,-1096 392,-1090 398,-1090 398,-1090 428,-1090 428,-1090 434,-1090 440,-1096 440,-1102 440,-1102 440,-1114 440,-1114 440,-1120 434,-1126 428,-1126"/>
<text text-anchor="middle" x="413" y="-1105.5" font-family="sans" font-size="10.00">load</text>
</g>
<!-- 6&#45;&gt;1 -->
<g id="edge6" class="edge">
<title>6&#45;&gt;1</title>
<path fill="none" stroke="grey" stroke-width="2" d="M385.9,-1103.68C294.02,-1091.68 0,-1046.89 0,-965 0,-965 0,-965 0,-454 0,-326.64 207.21,-308.79 293.74,-306.89"/>
<polygon fill="grey" stroke="grey" stroke-width="2" points="293.97,-310.39 303.91,-306.73 293.86,-303.39 293.97,-310.39"/>
</g>
<!-- 6&#45;&gt;9 -->
<g id="edge19" class="edge">
<title>6&#45;&gt;9</title>
<path fill="none" stroke="grey" stroke-width="2" d="M440.2,-1103.49C531.01,-1091.03 818,-1045.28 818,-965 818,-965 818,-965 818,-600.5 818,-489.01 650.21,-463.39 562.72,-457.61"/>
<polygon fill="grey" stroke="grey" stroke-width="2" points="562.91,-454.12 552.72,-457.01 562.5,-461.1 562.91,-454.12"/>
</g>
<!-- 10 -->
<g id="node11" class="node">
<title>10</title>
<path fill="none" stroke="#56d8a2" stroke-width="2" d="M274,-622C274,-622 190,-622 190,-622 184,-622 178,-616 178,-610 178,-610 178,-593 178,-593 178,-587 184,-581 190,-581 190,-581 274,-581 274,-581 280,-581 286,-587 286,-593 286,-593 286,-610 286,-610 286,-616 280,-622 274,-622"/>
<text text-anchor="middle" x="232" y="-610" font-family="sans" font-size="10.00">subsample</text>
<text text-anchor="middle" x="232" y="-599" font-family="sans" font-size="10.00">build_name: eEurope</text>
<text text-anchor="middle" x="232" y="-588" font-family="sans" font-size="10.00">subsample: hubei</text>
</g>
<!-- 6&#45;&gt;10 -->
<g id="edge21" class="edge">
<title>6&#45;&gt;10</title>
<path fill="none" stroke="grey" stroke-width="2" d="M385.81,-1098.85C336.88,-1082.31 239,-1039.86 239,-965 239,-965 239,-965 239,-747 239,-707.36 236.34,-661.67 234.3,-632.46"/>
<polygon fill="grey" stroke="grey" stroke-width="2" points="237.76,-631.84 233.55,-622.12 230.78,-632.34 237.76,-631.84"/>
</g>
<!-- 11 -->
<g id="node12" class="node">
<title>11</title>
<path fill="none" stroke="#56d8a2" stroke-width="2" d="M400,-622C400,-622 316,-622 316,-622 310,-622 304,-616 304,-610 304,-610 304,-593 304,-593 304,-587 310,-581 316,-581 316,-581 400,-581 400,-581 406,-581 412,-587 412,-593 412,-593 412,-610 412,-610 412,-616 406,-622 400,-622"/>
<text text-anchor="middle" x="358" y="-610" font-family="sans" font-size="10.00">subsample</text>
<text text-anchor="middle" x="358" y="-599" font-family="sans" font-size="10.00">build_name: eEurope</text>
<text text-anchor="middle" x="358" y="-588" font-family="sans" font-size="10.00">subsample: italy</text>
</g>
<!-- 6&#45;&gt;11 -->
<g id="edge23" class="edge">
<title>6&#45;&gt;11</title>
<path fill="none" stroke="grey" stroke-width="2" d="M385.92,-1091.6C349.98,-1068.91 291,-1022.85 291,-965 291,-965 291,-965 291,-747 291,-703.33 316.49,-658.56 336.03,-630.65"/>
<polygon fill="grey" stroke="grey" stroke-width="2" points="339.11,-632.37 342.12,-622.21 333.43,-628.27 339.11,-632.37"/>
</g>
<!-- 12 -->
<g id="node13" class="node">
<title>12</title>
<path fill="none" stroke="#56d8a2" stroke-width="2" d="M526,-622C526,-622 442,-622 442,-622 436,-622 430,-616 430,-610 430,-610 430,-593 430,-593 430,-587 436,-581 442,-581 442,-581 526,-581 526,-581 532,-581 538,-587 538,-593 538,-593 538,-610 538,-610 538,-616 532,-622 526,-622"/>
<text text-anchor="middle" x="484" y="-610" font-family="sans" font-size="10.00">subsample</text>
<text text-anchor="middle" x="484" y="-599" font-family="sans" font-size="10.00">build_name: eEurope</text>
<text text-anchor="middle" x="484" y="-588" font-family="sans" font-size="10.00">subsample: germany</text>
</g>
<!-- 6&#45;&gt;12 -->
<g id="edge25" class="edge">
<title>6&#45;&gt;12</title>
<path fill="none" stroke="grey" stroke-width="2" d="M440.08,-1091.6C476.02,-1068.91 535,-1022.85 535,-965 535,-965 535,-965 535,-747 535,-704.93 515.54,-659.7 500.66,-631.27"/>
<polygon fill="grey" stroke="grey" stroke-width="2" points="503.65,-629.44 495.83,-622.3 497.49,-632.76 503.65,-629.44"/>
</g>
<!-- 13 -->
<g id="node14" class="node">
<title>13</title>
<path fill="none" stroke="#56d8a2" stroke-width="2" d="M652,-622C652,-622 568,-622 568,-622 562,-622 556,-616 556,-610 556,-610 556,-593 556,-593 556,-587 562,-581 568,-581 568,-581 652,-581 652,-581 658,-581 664,-587 664,-593 664,-593 664,-610 664,-610 664,-616 658,-622 652,-622"/>
<text text-anchor="middle" x="610" y="-610" font-family="sans" font-size="10.00">subsample</text>
<text text-anchor="middle" x="610" y="-599" font-family="sans" font-size="10.00">build_name: eEurope</text>
<text text-anchor="middle" x="610" y="-588" font-family="sans" font-size="10.00">subsample: france</text>
</g>
<!-- 6&#45;&gt;13 -->
<g id="edge27" class="edge">
<title>6&#45;&gt;13</title>
<path fill="none" stroke="grey" stroke-width="2" d="M440.37,-1098.16C487.97,-1080.86 581,-1037.75 581,-965 581,-965 581,-965 581,-747 581,-706.66 592,-661.21 600.45,-632.24"/>
<polygon fill="grey" stroke="grey" stroke-width="2" points="603.89,-632.93 603.42,-622.35 597.19,-630.92 603.89,-632.93"/>
</g>
<!-- 14 -->
<g id="node15" class="node">
<title>14</title>
<path fill="none" stroke="#56d8a2" stroke-width="2" d="M778,-622C778,-622 694,-622 694,-622 688,-622 682,-616 682,-610 682,-610 682,-593 682,-593 682,-587 688,-581 694,-581 694,-581 778,-581 778,-581 784,-581 790,-587 790,-593 790,-593 790,-610 790,-610 790,-616 784,-622 778,-622"/>
<text text-anchor="middle" x="736" y="-610" font-family="sans" font-size="10.00">subsample</text>
<text text-anchor="middle" x="736" y="-599" font-family="sans" font-size="10.00">build_name: eEurope</text>
<text text-anchor="middle" x="736" y="-588" font-family="sans" font-size="10.00">subsample: spain</text>
</g>
<!-- 6&#45;&gt;14 -->
<g id="edge29" class="edge">
<title>6&#45;&gt;14</title>
<path fill="none" stroke="grey" stroke-width="2" d="M440.01,-1105.73C510.02,-1100.85 692,-1077.37 692,-965 692,-965 692,-965 692,-747 692,-705.48 708.83,-660.04 721.67,-631.42"/>
<polygon fill="grey" stroke="grey" stroke-width="2" points="725,-632.57 726.02,-622.03 718.64,-629.64 725,-632.57"/>
</g>
<!-- 15 -->
<g id="node16" class="node">
<title>15</title>
<path fill="none" stroke="#56d8a2" stroke-width="2" d="M147.5,-622C147.5,-622 40.5,-622 40.5,-622 34.5,-622 28.5,-616 28.5,-610 28.5,-610 28.5,-593 28.5,-593 28.5,-587 34.5,-581 40.5,-581 40.5,-581 147.5,-581 147.5,-581 153.5,-581 159.5,-587 159.5,-593 159.5,-593 159.5,-610 159.5,-610 159.5,-616 153.5,-622 147.5,-622"/>
<text text-anchor="middle" x="94" y="-610" font-family="sans" font-size="10.00">subsample</text>
<text text-anchor="middle" x="94" y="-599" font-family="sans" font-size="10.00">build_name: eEurope</text>
<text text-anchor="middle" x="94" y="-588" font-family="sans" font-size="10.00">subsample: othereuropean</text>
</g>
<!-- 6&#45;&gt;15 -->
<g id="edge31" class="edge">
<title>6&#45;&gt;15</title>
<path fill="none" stroke="grey" stroke-width="2" d="M385.54,-1105.12C317.57,-1098.82 147,-1072.32 147,-965 147,-965 147,-965 147,-747 147,-704.75 126.78,-659.56 111.32,-631.19"/>
<polygon fill="grey" stroke="grey" stroke-width="2" points="114.24,-629.24 106.29,-622.24 108.14,-632.67 114.24,-629.24"/>
</g>
<!-- 20 -->
<g id="node21" class="node">
<title>20</title>
<path fill="none" stroke="#56c9d8" stroke-width="2" d="M451,-766C451,-766 421,-766 421,-766 415,-766 409,-760 409,-754 409,-754 409,-742 409,-742 409,-736 415,-730 421,-730 421,-730 451,-730 451,-730 457,-730 463,-736 463,-742 463,-742 463,-754 463,-754 463,-760 457,-766 451,-766"/>
<text text-anchor="middle" x="436" y="-745.5" font-family="sans" font-size="10.00">refilter</text>
</g>
<!-- 6&#45;&gt;20 -->
<g id="edge38" class="edge">
<title>6&#45;&gt;20</title>
<path fill="none" stroke="grey" stroke-width="2" d="M431.64,-1089.69C456.39,-1064.72 497,-1015.98 497,-965 497,-965 497,-965 497,-891 497,-847.61 472.66,-802.37 454.73,-774.94"/>
<polygon fill="grey" stroke="grey" stroke-width="2" points="457.43,-772.68 448.94,-766.34 451.62,-776.59 457.43,-772.68"/>
</g>
<!-- 24 -->
<g id="node25" class="node">
<title>24</title>
<path fill="none" stroke="#56b1d8" stroke-width="2" d="M395.5,-838C395.5,-838 358.5,-838 358.5,-838 352.5,-838 346.5,-832 346.5,-826 346.5,-826 346.5,-814 346.5,-814 346.5,-808 352.5,-802 358.5,-802 358.5,-802 395.5,-802 395.5,-802 401.5,-802 407.5,-808 407.5,-814 407.5,-814 407.5,-826 407.5,-826 407.5,-832 401.5,-838 395.5,-838"/>
<text text-anchor="middle" x="377" y="-817.5" font-family="sans" font-size="10.00">diagnostic</text>
</g>
<!-- 6&#45;&gt;24 -->
<g id="edge44" class="edge">
<title>6&#45;&gt;24</title>
<path fill="none" stroke="grey" stroke-width="2" d="M399.44,-1089.57C392.11,-1079.56 383.29,-1066.52 377,-1054 361.8,-1023.73 358.56,-1015.23 352,-982 342.7,-934.88 336.1,-920.54 348,-874 350.38,-864.7 354.76,-855.27 359.42,-847"/>
<polygon fill="grey" stroke="grey" stroke-width="2" points="362.54,-848.59 364.69,-838.22 356.54,-844.99 362.54,-848.59"/>
</g>
<!-- 26 -->
<g id="node27" class="node">
<title>26</title>
<path fill="none" stroke="#d86e56" stroke-width="2" d="M428,-1054C428,-1054 398,-1054 398,-1054 392,-1054 386,-1048 386,-1042 386,-1042 386,-1030 386,-1030 386,-1024 392,-1018 398,-1018 398,-1018 428,-1018 428,-1018 434,-1018 440,-1024 440,-1030 440,-1030 440,-1042 440,-1042 440,-1048 434,-1054 428,-1054"/>
<text text-anchor="middle" x="413" y="-1033.5" font-family="sans" font-size="10.00">filter</text>
</g>
<!-- 6&#45;&gt;26 -->
<g id="edge46" class="edge">
<title>6&#45;&gt;26</title>
<path fill="none" stroke="grey" stroke-width="2" d="M413,-1089.7C413,-1081.98 413,-1072.71 413,-1064.11"/>
<polygon fill="grey" stroke="grey" stroke-width="2" points="416.5,-1064.1 413,-1054.1 409.5,-1064.1 416.5,-1064.1"/>
</g>
<!-- 7 -->
<g id="node8" class="node">
<title>7</title>
<path fill="none" stroke="#566bd8" stroke-width="2" d="M573,-180C573,-180 517,-180 517,-180 511,-180 505,-174 505,-168 505,-168 505,-156 505,-156 505,-150 511,-144 517,-144 517,-144 573,-144 573,-144 579,-144 585,-150 585,-156 585,-156 585,-168 585,-168 585,-174 579,-180 573,-180"/>
<text text-anchor="middle" x="545" y="-159.5" font-family="sans" font-size="10.00">combine_trees</text>
</g>
<!-- 7&#45;&gt;2 -->
<g id="edge7" class="edge">
<title>7&#45;&gt;2</title>
<path fill="none" stroke="grey" stroke-width="2" d="M546.98,-143.7C547.86,-135.98 548.92,-126.71 549.9,-118.11"/>
<polygon fill="grey" stroke="grey" stroke-width="2" points="553.39,-118.44 551.05,-108.1 546.43,-117.64 553.39,-118.44"/>
</g>
<!-- 8 -->
<g id="node9" class="node">
<title>8</title>
<path fill="none" stroke="#569ad8" stroke-width="2" d="M458.5,-180C458.5,-180 405.5,-180 405.5,-180 399.5,-180 393.5,-174 393.5,-168 393.5,-168 393.5,-156 393.5,-156 393.5,-150 399.5,-144 405.5,-144 405.5,-144 458.5,-144 458.5,-144 464.5,-144 470.5,-150 470.5,-156 470.5,-156 470.5,-168 470.5,-168 470.5,-174 464.5,-180 458.5,-180"/>
<text text-anchor="middle" x="432" y="-159.5" font-family="sans" font-size="10.00">combine_logs</text>
</g>
<!-- 8&#45;&gt;3 -->
<g id="edge8" class="edge">
<title>8&#45;&gt;3</title>
<path fill="none" stroke="grey" stroke-width="2" d="M430.02,-143.7C429.14,-135.98 428.08,-126.71 427.1,-118.11"/>
<polygon fill="grey" stroke="grey" stroke-width="2" points="430.57,-117.64 425.95,-108.1 423.61,-118.44 430.57,-117.64"/>
</g>
<!-- 9&#45;&gt;4 -->
<g id="edge9" class="edge">
<title>9&#45;&gt;4</title>
<path fill="none" stroke="grey" stroke-width="2" d="M481.38,-436.82C463.63,-426.53 440.95,-413.37 422.15,-402.47"/>
<polygon fill="grey" stroke="grey" stroke-width="2" points="423.68,-399.31 413.27,-397.32 420.17,-405.36 423.68,-399.31"/>
</g>
<!-- 21 -->
<g id="node22" class="node">
<title>21</title>
<path fill="none" stroke="#d8b456" stroke-width="2" d="M578.5,-401C578.5,-401 443.5,-401 443.5,-401 437.5,-401 431.5,-395 431.5,-389 431.5,-389 431.5,-372 431.5,-372 431.5,-366 437.5,-360 443.5,-360 443.5,-360 578.5,-360 578.5,-360 584.5,-360 590.5,-366 590.5,-372 590.5,-372 590.5,-389 590.5,-389 590.5,-395 584.5,-401 578.5,-401"/>
<text text-anchor="middle" x="511" y="-389" font-family="sans" font-size="10.00">beast</text>
<text text-anchor="middle" x="511" y="-378" font-family="sans" font-size="10.00">analysis_name: 200914_europe1</text>
<text text-anchor="middle" x="511" y="-367" font-family="sans" font-size="10.00">seed: 1</text>
</g>
<!-- 9&#45;&gt;21 -->
<g id="edge40" class="edge">
<title>9&#45;&gt;21</title>
<path fill="none" stroke="grey" stroke-width="2" d="M511,-436.82C511,-429.2 511,-420 511,-411.32"/>
<polygon fill="grey" stroke="grey" stroke-width="2" points="514.5,-411.12 511,-401.12 507.5,-411.12 514.5,-411.12"/>
</g>
<!-- 22 -->
<g id="node23" class="node">
<title>22</title>
<path fill="none" stroke="#d8b456" stroke-width="2" d="M755.5,-401C755.5,-401 620.5,-401 620.5,-401 614.5,-401 608.5,-395 608.5,-389 608.5,-389 608.5,-372 608.5,-372 608.5,-366 614.5,-360 620.5,-360 620.5,-360 755.5,-360 755.5,-360 761.5,-360 767.5,-366 767.5,-372 767.5,-372 767.5,-389 767.5,-389 767.5,-395 761.5,-401 755.5,-401"/>
<text text-anchor="middle" x="688" y="-389" font-family="sans" font-size="10.00">beast</text>
<text text-anchor="middle" x="688" y="-378" font-family="sans" font-size="10.00">analysis_name: 200914_europe1</text>
<text text-anchor="middle" x="688" y="-367" font-family="sans" font-size="10.00">seed: 2</text>
</g>
<!-- 9&#45;&gt;22 -->
<g id="edge41" class="edge">
<title>9&#45;&gt;22</title>
<path fill="none" stroke="grey" stroke-width="2" d="M552.95,-436.82C576.15,-427.31 605.33,-415.36 630.62,-405"/>
<polygon fill="grey" stroke="grey" stroke-width="2" points="632.17,-408.15 640.1,-401.12 629.52,-401.67 632.17,-408.15"/>
</g>
<!-- 10&#45;&gt;5 -->
<g id="edge10" class="edge">
<title>10&#45;&gt;5</title>
<path fill="none" stroke="grey" stroke-width="2" d="M283.15,-580.88C309.14,-570.91 340.73,-558.79 367.1,-548.67"/>
<polygon fill="grey" stroke="grey" stroke-width="2" points="368.48,-551.9 376.56,-545.05 365.97,-545.36 368.48,-551.9"/>
</g>
<!-- 11&#45;&gt;5 -->
<g id="edge11" class="edge">
<title>11&#45;&gt;5</title>
<path fill="none" stroke="grey" stroke-width="2" d="M375.22,-580.69C382.65,-572.13 391.44,-562.02 399.32,-552.95"/>
<polygon fill="grey" stroke="grey" stroke-width="2" points="402.03,-555.16 405.95,-545.32 396.75,-550.57 402.03,-555.16"/>
</g>
<!-- 12&#45;&gt;5 -->
<g id="edge12" class="edge">
<title>12&#45;&gt;5</title>
<path fill="none" stroke="grey" stroke-width="2" d="M466.78,-580.69C459.35,-572.13 450.56,-562.02 442.68,-552.95"/>
<polygon fill="grey" stroke="grey" stroke-width="2" points="445.25,-550.57 436.05,-545.32 439.97,-555.16 445.25,-550.57"/>
</g>
<!-- 13&#45;&gt;5 -->
<g id="edge13" class="edge">
<title>13&#45;&gt;5</title>
<path fill="none" stroke="grey" stroke-width="2" d="M558.85,-580.88C532.86,-570.91 501.27,-558.79 474.9,-548.67"/>
<polygon fill="grey" stroke="grey" stroke-width="2" points="476.03,-545.36 465.44,-545.05 473.52,-551.9 476.03,-545.36"/>
</g>
<!-- 14&#45;&gt;5 -->
<g id="edge14" class="edge">
<title>14&#45;&gt;5</title>
<path fill="none" stroke="grey" stroke-width="2" d="M681.8,-583.37C678.83,-582.54 675.88,-581.75 673,-581 606.87,-563.85 529.9,-548.29 478.59,-538.53"/>
<polygon fill="grey" stroke="grey" stroke-width="2" points="479.16,-535.08 468.68,-536.66 477.86,-541.96 479.16,-535.08"/>
</g>
<!-- 15&#45;&gt;5 -->
<g id="edge15" class="edge">
<title>15&#45;&gt;5</title>
<path fill="none" stroke="grey" stroke-width="2" d="M159.81,-583.2C162.91,-582.45 165.99,-581.71 169,-581 235.51,-565.37 312.41,-549.51 363.59,-539.27"/>
<polygon fill="grey" stroke="grey" stroke-width="2" points="364.36,-542.69 373.48,-537.3 362.99,-535.82 364.36,-542.69"/>
</g>
<!-- 16 -->
<g id="node17" class="node">
<title>16</title>
<path fill="none" stroke="#d8c356" stroke-width="2" d="M551,-252C551,-252 509,-252 509,-252 503,-252 497,-246 497,-240 497,-240 497,-228 497,-228 497,-222 503,-216 509,-216 509,-216 551,-216 551,-216 557,-216 563,-222 563,-228 563,-228 563,-240 563,-240 563,-246 557,-252 551,-252"/>
<text text-anchor="middle" x="530" y="-231.5" font-family="sans" font-size="10.00">check_logs</text>
</g>
<!-- 16&#45;&gt;7 -->
<g id="edge16" class="edge">
<title>16&#45;&gt;7</title>
<path fill="none" stroke="grey" stroke-width="2" d="M533.71,-215.7C535.36,-207.98 537.35,-198.71 539.19,-190.11"/>
<polygon fill="grey" stroke="grey" stroke-width="2" points="542.66,-190.62 541.33,-180.1 535.82,-189.15 542.66,-190.62"/>
</g>
<!-- 16&#45;&gt;8 -->
<g id="edge17" class="edge">
<title>16&#45;&gt;8</title>
<path fill="none" stroke="grey" stroke-width="2" d="M506.03,-215.88C493.45,-206.89 477.87,-195.76 464.25,-186.03"/>
<polygon fill="grey" stroke="grey" stroke-width="2" points="466.24,-183.15 456.07,-180.19 462.17,-188.85 466.24,-183.15"/>
</g>
<!-- 17 -->
<g id="node18" class="node">
<title>17</title>
<path fill="none" stroke="#56d892" stroke-width="2" d="M451,-694C451,-694 421,-694 421,-694 415,-694 409,-688 409,-682 409,-682 409,-670 409,-670 409,-664 415,-658 421,-658 421,-658 451,-658 451,-658 457,-658 463,-664 463,-670 463,-670 463,-682 463,-682 463,-688 457,-694 451,-694"/>
<text text-anchor="middle" x="436" y="-673.5" font-family="sans" font-size="10.00">mask</text>
</g>
<!-- 17&#45;&gt;10 -->
<g id="edge20" class="edge">
<title>17&#45;&gt;10</title>
<path fill="none" stroke="grey" stroke-width="2" d="M408.91,-665.37C380.13,-655.15 333.63,-638.62 295.52,-625.08"/>
<polygon fill="grey" stroke="grey" stroke-width="2" points="296.63,-621.75 286.03,-621.7 294.28,-628.35 296.63,-621.75"/>
</g>
<!-- 17&#45;&gt;11 -->
<g id="edge22" class="edge">
<title>17&#45;&gt;11</title>
<path fill="none" stroke="grey" stroke-width="2" d="M417.52,-657.82C408.32,-649.28 397.01,-638.76 386.72,-629.2"/>
<polygon fill="grey" stroke="grey" stroke-width="2" points="388.82,-626.36 379.11,-622.12 384.05,-631.49 388.82,-626.36"/>
</g>
<!-- 17&#45;&gt;12 -->
<g id="edge24" class="edge">
<title>17&#45;&gt;12</title>
<path fill="none" stroke="grey" stroke-width="2" d="M447.38,-657.82C452.75,-649.7 459.31,-639.79 465.39,-630.61"/>
<polygon fill="grey" stroke="grey" stroke-width="2" points="468.41,-632.39 471.01,-622.12 462.57,-628.53 468.41,-632.39"/>
</g>
<!-- 17&#45;&gt;13 -->
<g id="edge26" class="edge">
<title>17&#45;&gt;13</title>
<path fill="none" stroke="grey" stroke-width="2" d="M463.19,-663.67C487.25,-653.65 523.15,-638.69 553.42,-626.08"/>
<polygon fill="grey" stroke="grey" stroke-width="2" points="555.14,-629.15 563.03,-622.07 552.45,-622.69 555.14,-629.15"/>
</g>
<!-- 17&#45;&gt;14 -->
<g id="edge28" class="edge">
<title>17&#45;&gt;14</title>
<path fill="none" stroke="grey" stroke-width="2" d="M463.18,-669.66C505.69,-661.15 590.65,-643.51 671.9,-622.2"/>
<polygon fill="grey" stroke="grey" stroke-width="2" points="673.01,-625.53 681.78,-619.58 671.22,-618.76 673.01,-625.53"/>
</g>
<!-- 17&#45;&gt;15 -->
<g id="edge30" class="edge">
<title>17&#45;&gt;15</title>
<path fill="none" stroke="grey" stroke-width="2" d="M408.98,-670.18C362.31,-661.73 263.36,-643.31 169.72,-622.1"/>
<polygon fill="grey" stroke="grey" stroke-width="2" points="170.32,-618.65 159.8,-619.84 168.77,-625.47 170.32,-618.65"/>
</g>
<!-- 18 -->
<g id="node19" class="node">
<title>18</title>
<path fill="none" stroke="#56d87b" stroke-width="2" d="M553.5,-324C553.5,-324 494.5,-324 494.5,-324 488.5,-324 482.5,-318 482.5,-312 482.5,-312 482.5,-300 482.5,-300 482.5,-294 488.5,-288 494.5,-288 494.5,-288 553.5,-288 553.5,-288 559.5,-288 565.5,-294 565.5,-300 565.5,-300 565.5,-312 565.5,-312 565.5,-318 559.5,-324 553.5,-324"/>
<text text-anchor="middle" x="524" y="-303.5" font-family="sans" font-size="10.00">summarize_log</text>
</g>
<!-- 18&#45;&gt;16 -->
<g id="edge32" class="edge">
<title>18&#45;&gt;16</title>
<path fill="none" stroke="grey" stroke-width="2" d="M525.48,-287.7C526.14,-279.98 526.94,-270.71 527.68,-262.11"/>
<polygon fill="grey" stroke="grey" stroke-width="2" points="531.17,-262.37 528.53,-252.1 524.19,-261.77 531.17,-262.37"/>
</g>
<!-- 19 -->
<g id="node20" class="node">
<title>19</title>
<path fill="none" stroke="#56d87b" stroke-width="2" d="M692.5,-324C692.5,-324 633.5,-324 633.5,-324 627.5,-324 621.5,-318 621.5,-312 621.5,-312 621.5,-300 621.5,-300 621.5,-294 627.5,-288 633.5,-288 633.5,-288 692.5,-288 692.5,-288 698.5,-288 704.5,-294 704.5,-300 704.5,-300 704.5,-312 704.5,-312 704.5,-318 698.5,-324 692.5,-324"/>
<text text-anchor="middle" x="663" y="-303.5" font-family="sans" font-size="10.00">summarize_log</text>
</g>
<!-- 19&#45;&gt;16 -->
<g id="edge33" class="edge">
<title>19&#45;&gt;16</title>
<path fill="none" stroke="grey" stroke-width="2" d="M630.46,-287.88C612.75,-278.55 590.65,-266.92 571.68,-256.94"/>
<polygon fill="grey" stroke="grey" stroke-width="2" points="573.14,-253.75 562.66,-252.19 569.88,-259.94 573.14,-253.75"/>
</g>
<!-- 20&#45;&gt;17 -->
<g id="edge34" class="edge">
<title>20&#45;&gt;17</title>
<path fill="none" stroke="grey" stroke-width="2" d="M436,-729.7C436,-721.98 436,-712.71 436,-704.11"/>
<polygon fill="grey" stroke="grey" stroke-width="2" points="439.5,-704.1 436,-694.1 432.5,-704.1 439.5,-704.1"/>
</g>
<!-- 21&#45;&gt;18 -->
<g id="edge35" class="edge">
<title>21&#45;&gt;18</title>
<path fill="none" stroke="grey" stroke-width="2" d="M514.55,-359.69C515.96,-351.82 517.61,-342.64 519.13,-334.17"/>
<polygon fill="grey" stroke="grey" stroke-width="2" points="522.57,-334.78 520.89,-324.32 515.68,-333.54 522.57,-334.78"/>
</g>
<!-- 22&#45;&gt;19 -->
<g id="edge36" class="edge">
<title>22&#45;&gt;19</title>
<path fill="none" stroke="grey" stroke-width="2" d="M681.17,-359.69C678.43,-351.73 675.22,-342.44 672.27,-333.89"/>
<polygon fill="grey" stroke="grey" stroke-width="2" points="675.54,-332.63 668.97,-324.32 668.92,-334.91 675.54,-332.63"/>
</g>
<!-- 23 -->
<g id="node24" class="node">
<title>23</title>
<path fill="none" stroke="#bed856" stroke-width="2" d="M457,-910C457,-910 369,-910 369,-910 363,-910 357,-904 357,-898 357,-898 357,-886 357,-886 357,-880 363,-874 369,-874 369,-874 457,-874 457,-874 463,-874 469,-880 469,-886 469,-886 469,-898 469,-898 469,-904 463,-910 457,-910"/>
<text text-anchor="middle" x="413" y="-889.5" font-family="sans" font-size="10.00">aggregate_alignments</text>
</g>
<!-- 23&#45;&gt;20 -->
<g id="edge37" class="edge">
<title>23&#45;&gt;20</title>
<path fill="none" stroke="grey" stroke-width="2" d="M415.77,-873.87C419.69,-849.67 426.9,-805.21 431.56,-776.39"/>
<polygon fill="grey" stroke="grey" stroke-width="2" points="435.07,-776.62 433.22,-766.19 428.16,-775.5 435.07,-776.62"/>
</g>
<!-- 23&#45;&gt;24 -->
<g id="edge43" class="edge">
<title>23&#45;&gt;24</title>
<path fill="none" stroke="grey" stroke-width="2" d="M404.1,-873.7C400,-865.73 395.05,-856.1 390.51,-847.26"/>
<polygon fill="grey" stroke="grey" stroke-width="2" points="393.48,-845.4 385.8,-838.1 387.26,-848.6 393.48,-845.4"/>
</g>
<!-- 24&#45;&gt;20 -->
<g id="edge39" class="edge">
<title>24&#45;&gt;20</title>
<path fill="none" stroke="grey" stroke-width="2" d="M391.58,-801.7C398.66,-793.3 407.28,-783.07 415.05,-773.86"/>
<polygon fill="grey" stroke="grey" stroke-width="2" points="417.81,-776.01 421.58,-766.1 412.46,-771.49 417.81,-776.01"/>
</g>
<!-- 25 -->
<g id="node26" class="node">
<title>25</title>
<path fill="none" stroke="#d85656" stroke-width="2" d="M453,-982C453,-982 373,-982 373,-982 367,-982 361,-976 361,-970 361,-970 361,-958 361,-958 361,-952 367,-946 373,-946 373,-946 453,-946 453,-946 459,-946 465,-952 465,-958 465,-958 465,-970 465,-970 465,-976 459,-982 453,-982"/>
<text text-anchor="middle" x="413" y="-961.5" font-family="sans" font-size="10.00">partition_sequences</text>
</g>
<!-- 25&#45;&gt;23 -->
<g id="edge42" class="edge">
<title>25&#45;&gt;23</title>
<path fill="none" stroke="grey" stroke-width="2" d="M413,-945.7C413,-937.98 413,-928.71 413,-920.11"/>
<polygon fill="grey" stroke="grey" stroke-width="2" points="416.5,-920.1 413,-910.1 409.5,-920.1 416.5,-920.1"/>
</g>
<!-- 26&#45;&gt;25 -->
<g id="edge45" class="edge">
<title>26&#45;&gt;25</title>
<path fill="none" stroke="grey" stroke-width="2" d="M413,-1017.7C413,-1009.98 413,-1000.71 413,-992.11"/>
<polygon fill="grey" stroke="grey" stroke-width="2" points="416.5,-992.1 413,-982.1 409.5,-992.1 416.5,-992.1"/>
</g>
</g>
</svg>
